<?xml version="1.0" encoding="UTF-8" standalone="no"?>
<!-- Created with Inkscape (http://www.inkscape.org/) -->

<svg
   xmlns:dc="http://purl.org/dc/elements/1.1/"
   xmlns:cc="http://creativecommons.org/ns#"
   xmlns:rdf="http://www.w3.org/1999/02/22-rdf-syntax-ns#"
   xmlns:svg="http://www.w3.org/2000/svg"
   xmlns="http://www.w3.org/2000/svg"
   xmlns:sodipodi="http://sodipodi.sourceforge.net/DTD/sodipodi-0.dtd"
   xmlns:inkscape="http://www.inkscape.org/namespaces/inkscape"
   width="744.09448819"
   height="1052.3622047"
   id="svg2"
   version="1.1"
   inkscape:version="0.48.5 r10040"
   sodipodi:docname="master-worker.svg">
  <defs
     id="defs4" />
  <sodipodi:namedview
     id="base"
     pagecolor="#ffffff"
     bordercolor="#666666"
     borderopacity="1.0"
     inkscape:pageopacity="0.0"
     inkscape:pageshadow="2"
     inkscape:zoom="1.2725941"
     inkscape:cx="232.48562"
     inkscape:cy="747.14286"
     inkscape:document-units="px"
     inkscape:current-layer="layer1"
     showgrid="false"
     inkscape:window-width="1920"
     inkscape:window-height="1025"
     inkscape:window-x="-2"
     inkscape:window-y="-3"
     inkscape:window-maximized="1" />
  <metadata
     id="metadata7">
    <rdf:RDF>
      <cc:Work
         rdf:about="">
        <dc:format>image/svg+xml</dc:format>
        <dc:type
           rdf:resource="http://purl.org/dc/dcmitype/StillImage" />
        <dc:title></dc:title>
      </cc:Work>
    </rdf:RDF>
  </metadata>
  <g
     inkscape:label="Layer 1"
     inkscape:groupmode="layer"
     id="layer1">
    <path
       style="fill:none;stroke:#000000;stroke-width:1px;stroke-linecap:butt;stroke-linejoin:miter;stroke-opacity:1"
       d="M 68.364294,224.13269 234.56025,57.936735"
       id="path2985"
       inkscape:connector-curvature="0" />
    <path
       style="fill:none;stroke:#000000;stroke-width:1px;stroke-linecap:butt;stroke-linejoin:miter;stroke-opacity:1"
       d="M 183.09058,63.044412 461.26253,104.69163"
       id="path2987"
       inkscape:connector-curvature="0" />
    <path
       style="fill:none;stroke:#000000;stroke-width:1px;stroke-linecap:butt;stroke-linejoin:miter;stroke-opacity:1"
       d="M 171.50008,237.29478 337.69604,71.098829"
       id="path2985-9"
       inkscape:connector-curvature="0" />
    <path
       style="fill:none;stroke:#000000;stroke-width:1px;stroke-linecap:butt;stroke-linejoin:miter;stroke-opacity:1"
       d="M 276.79681,261.65447 442.99277,95.45852"
       id="path2985-0"
       inkscape:connector-curvature="0" />
    <path
       style="fill:none;stroke:#000000;stroke-width:1px;stroke-linecap:butt;stroke-linejoin:miter;stroke-opacity:1"
       d="m 119.44107,132.5874 278.17195,41.64721"
       id="path2987-6"
       inkscape:connector-curvature="0" />
    <path
       style="fill:none;stroke:#000000;stroke-width:1px;stroke-linecap:butt;stroke-linejoin:miter;stroke-opacity:1"
       d="M 47.147789,208.02386 325.31974,249.67107"
       id="path2987-0"
       inkscape:connector-curvature="0" />
    <g
       id="g3043"
       transform="translate(0,125.72744)">
      <path
         inkscape:connector-curvature="0"
         id="path3039"
         d="m 255.38386,152.62521 -73.86487,74.65067 112.36889,17.28752 74.65067,-74.65067 z"
         style="fill:none;stroke:#000000;stroke-width:1px;stroke-linecap:butt;stroke-linejoin:miter;stroke-opacity:1" />
    </g>
    <path
       style="fill:none;stroke:#000000;stroke-width:1;stroke-linecap:butt;stroke-linejoin:miter;stroke-miterlimit:4;stroke-opacity:1;stroke-dasharray:4, 4;stroke-dashoffset:0"
       d="m 294.67368,244.5634 0,124.94164"
       id="path3046"
       inkscape:connector-curvature="0" />
    <path
       style="fill:none;stroke:#000000;stroke-width:1;stroke-linecap:butt;stroke-linejoin:miter;stroke-miterlimit:4;stroke-opacity:1;stroke-dasharray:4, 4;stroke-dashoffset:0"
       d="m 368.53855,171.87723 0,124.94164"
       id="path3046-7"
       inkscape:connector-curvature="0" />
    <path
       style="fill:none;stroke:#000000;stroke-width:1;stroke-linecap:butt;stroke-linejoin:miter;stroke-miterlimit:4;stroke-opacity:1;stroke-dasharray:4, 4;stroke-dashoffset:0"
       d="m 180.73319,228.45457 0,124.94164"
       id="path3046-9"
       inkscape:connector-curvature="0" />
    <path
       style="fill:none;stroke:#000000;stroke-width:1;stroke-linecap:butt;stroke-linejoin:miter;stroke-miterlimit:4;stroke-opacity:1;stroke-dasharray:4, 4;stroke-dashoffset:0"
       d="m 256.16966,154.5897 0,124.94164"
       id="path3046-6"
       inkscape:connector-curvature="0" />
    <path
       style="fill:#b3b3b3;fill-opacity:1;stroke:#000000;stroke-width:0.78579646;stroke-linecap:butt;stroke-miterlimit:4;stroke-opacity:1;stroke-dasharray:3.14318593, 3.14318593;stroke-dashoffset:0"
       d="m 273.50419,241.08932 -16.10883,-2.47917 -0.24864,-2.13484 c -0.3163,-2.71575 -1.71585,-2.80377 -1.71585,-0.1079 0,1.7896 -0.25301,1.97753 -2.16094,1.60505 -1.18851,-0.23204 -16.83569,-2.5725 -34.77149,-5.20102 -17.93581,-2.62852 -33.23251,-5.03043 -33.99267,-5.33758 -1.10505,-0.4465 5.86522,-7.80373 34.7715,-36.70188 31.1761,-31.16733 36.1536,-35.84636 36.1536,-33.9857 0,1.18676 0.35361,2.15774 0.7858,2.15774 0.43219,0 0.7858,-1.10018 0.7858,-2.44484 0,-2.32538 0.12478,-2.42317 2.55383,-2.00139 1.40462,0.2439 25.53839,3.84836 53.63061,8.00992 28.09223,4.16156 51.58967,7.73034 52.21653,7.93064 0.73412,0.23457 -11.84952,13.3557 -35.35767,36.86793 -29.70484,29.70999 -36.86363,36.485 -38.46509,36.40298 -1.08222,-0.0554 -9.21663,-1.2164 -18.07649,-2.57994 z m -16.50172,-12.24941 c 0,-1.29657 -0.35361,-2.35739 -0.7858,-2.35739 -0.43219,0 -0.7858,1.06082 -0.7858,2.35739 0,1.29656 0.35361,2.35739 0.7858,2.35739 0.43219,0 0.7858,-1.06083 0.7858,-2.35739 z m 0,-8.25087 c 0,-1.51265 -0.35361,-2.75028 -0.7858,-2.75028 -0.43219,0 -0.7858,1.23763 -0.7858,2.75028 0,1.51266 0.35361,2.75029 0.7858,2.75029 0.43219,0 0.7858,-1.23763 0.7858,-2.75029 z m 0,-8.25086 c 0,-1.29656 -0.35361,-2.35739 -0.7858,-2.35739 -0.43219,0 -0.7858,1.06083 -0.7858,2.35739 0,1.29657 0.35361,2.35739 0.7858,2.35739 0.43219,0 0.7858,-1.06082 0.7858,-2.35739 z m 0,-7.85796 c 0,-1.29657 -0.35361,-2.35739 -0.7858,-2.35739 -0.43219,0 -0.7858,1.06082 -0.7858,2.35739 0,1.29656 0.35361,2.35739 0.7858,2.35739 0.43219,0 0.7858,-1.06083 0.7858,-2.35739 z m 0,-7.85797 c 0,-1.29656 -0.35361,-2.35739 -0.7858,-2.35739 -0.43219,0 -0.7858,1.06083 -0.7858,2.35739 0,1.29657 0.35361,2.35739 0.7858,2.35739 0.43219,0 0.7858,-1.06082 0.7858,-2.35739 z m 0,-7.85796 c 0,-1.29657 -0.35361,-2.35739 -0.7858,-2.35739 -0.43219,0 -0.7858,1.06082 -0.7858,2.35739 0,1.29656 0.35361,2.35739 0.7858,2.35739 0.43219,0 0.7858,-1.06083 0.7858,-2.35739 z m 0,-7.85797 c 0,-1.29656 -0.35361,-2.35739 -0.7858,-2.35739 -0.43219,0 -0.7858,1.06083 -0.7858,2.35739 0,1.29657 0.35361,2.35739 0.7858,2.35739 0.43219,0 0.7858,-1.06082 0.7858,-2.35739 z m 0,-8.64376 c 0,-1.29656 -0.35361,-2.35739 -0.7858,-2.35739 -0.43219,0 -0.7858,1.06083 -0.7858,2.35739 0,1.29656 0.35361,2.35739 0.7858,2.35739 0.43219,0 0.7858,-1.06083 0.7858,-2.35739 z m 0,-7.85796 c 0,-1.29657 -0.35361,-2.35739 -0.7858,-2.35739 -0.43219,0 -0.7858,1.06082 -0.7858,2.35739 0,1.29656 0.35361,2.35739 0.7858,2.35739 0.43219,0 0.7858,-1.06083 0.7858,-2.35739 z"
       id="path3867"
       inkscape:connector-curvature="0" />
    <path
       style="fill:#00ffff;fill-opacity:1;stroke:#000000;stroke-width:0.78579646000000003;stroke-linecap:butt;stroke-miterlimit:4;stroke-opacity:1;stroke-dasharray:3.14318593000000002, 3.14318593000000002;stroke-dashoffset:0"
       d="m 238.53625,360.9018 c -28.52441,-4.4546 -52.56979,-8.21508 -53.43416,-8.35662 -1.21375,-0.19875 6.66925,-8.55848 34.62066,-36.71441 l 36.19225,-36.45707 14.09872,2.11755 c 24.84573,3.7317 23.92118,3.51307 23.92118,5.65684 0,2.39657 1.38535,2.47286 1.71585,0.0945 l 0.24864,-1.78933 34.35084,5.25068 c 18.89296,2.88788 34.71804,5.37309 35.16685,5.52269 0.44881,0.1496 -15.09748,16.18254 -34.54729,35.62875 -20.66966,20.66583 -35.3633,34.78673 -35.3633,33.98488 0,-0.75453 -0.3536,-1.37187 -0.78579,-1.37187 -0.43219,0 -0.7858,1.06083 -0.7858,2.35739 0,1.94781 -0.30718,2.34157 -1.76804,2.26635 -0.97242,-0.05 -25.1062,-3.73571 -53.63061,-8.19032 z m 56.97024,-2.32689 c 0,-1.51266 -0.3536,-2.75029 -0.78579,-2.75029 -0.43219,0 -0.7858,1.23763 -0.7858,2.75029 0,1.51265 0.35361,2.75028 0.7858,2.75028 0.43219,0 0.78579,-1.23763 0.78579,-2.75028 z m 0,-8.25087 c 0,-1.29656 -0.3536,-2.35739 -0.78579,-2.35739 -0.43219,0 -0.7858,1.06083 -0.7858,2.35739 0,1.29657 0.35361,2.35739 0.7858,2.35739 0.43219,0 0.78579,-1.06082 0.78579,-2.35739 z m 0,-7.85796 c 0,-1.29657 -0.3536,-2.35739 -0.78579,-2.35739 -0.43219,0 -0.7858,1.06082 -0.7858,2.35739 0,1.29656 0.35361,2.35739 0.7858,2.35739 0.43219,0 0.78579,-1.06083 0.78579,-2.35739 z m 0,-7.85797 c 0,-1.29656 -0.3536,-2.35739 -0.78579,-2.35739 -0.43219,0 -0.7858,1.06083 -0.7858,2.35739 0,1.29657 0.35361,2.35739 0.7858,2.35739 0.43219,0 0.78579,-1.06082 0.78579,-2.35739 z m 0,-7.85796 c 0,-1.29657 -0.3536,-2.35739 -0.78579,-2.35739 -0.43219,0 -0.7858,1.06082 -0.7858,2.35739 0,1.29656 0.35361,2.35739 0.7858,2.35739 0.43219,0 0.78579,-1.06083 0.78579,-2.35739 z m 0,-7.85797 c 0,-1.29656 -0.3536,-2.35739 -0.78579,-2.35739 -0.43219,0 -0.7858,1.06083 -0.7858,2.35739 0,1.29657 0.35361,2.35739 0.7858,2.35739 0.43219,0 0.78579,-1.06082 0.78579,-2.35739 z m 0,-8.64376 c 0,-1.29656 -0.3536,-2.35739 -0.78579,-2.35739 -0.43219,0 -0.7858,1.06083 -0.7858,2.35739 0,1.29657 0.35361,2.35739 0.7858,2.35739 0.43219,0 0.78579,-1.06082 0.78579,-2.35739 z m 0,-7.85796 c 0,-1.29657 -0.3536,-2.35739 -0.78579,-2.35739 -0.43219,0 -0.7858,1.06082 -0.7858,2.35739 0,1.29656 0.35361,2.35739 0.7858,2.35739 0.43219,0 0.78579,-1.06083 0.78579,-2.35739 z m 0,-7.85797 c 0,-1.29656 -0.3536,-2.35739 -0.78579,-2.35739 -0.43219,0 -0.7858,1.06083 -0.7858,2.35739 0,1.29657 0.35361,2.35739 0.7858,2.35739 0.43219,0 0.78579,-1.06082 0.78579,-2.35739 z"
       id="path3869"
       inkscape:connector-curvature="0" />
    <path
       sodipodi:type="arc"
       style="fill:#000000;fill-opacity:1;stroke:#000000;stroke-width:1;stroke-linecap:butt;stroke-miterlimit:4;stroke-opacity:1;stroke-dasharray:4, 4;stroke-dashoffset:0"
       id="path3871"
       sodipodi:cx="181.51898"
       sodipodi:cy="225.70428"
       sodipodi:rx="7.857965"
       sodipodi:ry="7.857965"
       d="m 189.37695,225.70428 a 7.857965,7.857965 0 1 1 -15.71593,0 7.857965,7.857965 0 1 1 15.71593,0 z" />
    <path
       transform="translate(74.650672,-72.293275)"
       sodipodi:type="arc"
       style="fill:#000000;fill-opacity:1;stroke:#000000;stroke-width:1;stroke-linecap:butt;stroke-miterlimit:4;stroke-opacity:1;stroke-dasharray:4, 4;stroke-dashoffset:0"
       id="path3871-2"
       sodipodi:cx="181.51898"
       sodipodi:cy="225.70428"
       sodipodi:rx="7.857965"
       sodipodi:ry="7.857965"
       d="m 189.37695,225.70428 a 7.857965,7.857965 0 1 1 -15.71593,0 7.857965,7.857965 0 1 1 15.71593,0 z" />
    <path
       transform="translate(184.66218,-55.791551)"
       sodipodi:type="arc"
       style="fill:#000000;fill-opacity:1;stroke:#000000;stroke-width:1;stroke-linecap:butt;stroke-miterlimit:4;stroke-opacity:1;stroke-dasharray:4, 4;stroke-dashoffset:0"
       id="path3871-26"
       sodipodi:cx="181.51898"
       sodipodi:cy="225.70428"
       sodipodi:rx="7.857965"
       sodipodi:ry="7.857965"
       d="m 189.37695,225.70428 a 7.857965,7.857965 0 1 1 -15.71593,0 7.857965,7.857965 0 1 1 15.71593,0 z" />
    <path
       transform="translate(113.1547,18.073318)"
       sodipodi:type="arc"
       style="fill:#000000;fill-opacity:1;stroke:#000000;stroke-width:1;stroke-linecap:butt;stroke-miterlimit:4;stroke-opacity:1;stroke-dasharray:4, 4;stroke-dashoffset:0"
       id="path3871-7"
       sodipodi:cx="181.51898"
       sodipodi:cy="225.70428"
       sodipodi:rx="7.857965"
       sodipodi:ry="7.857965"
       d="m 189.37695,225.70428 a 7.857965,7.857965 0 1 1 -15.71593,0 7.857965,7.857965 0 1 1 15.71593,0 z" />
    <path
       transform="translate(75.436467,51.862567)"
       sodipodi:type="arc"
       style="fill:#0000ff;fill-opacity:1;stroke:#000000;stroke-width:1;stroke-linecap:butt;stroke-miterlimit:4;stroke-opacity:1;stroke-dasharray:4, 4;stroke-dashoffset:0"
       id="path3871-4"
       sodipodi:cx="181.51898"
       sodipodi:cy="225.70428"
       sodipodi:rx="7.857965"
       sodipodi:ry="7.857965"
       d="m 189.37695,225.70428 a 7.857965,7.857965 0 1 1 -15.71593,0 7.857965,7.857965 0 1 1 15.71593,0 z" />
    <path
       transform="translate(186.23378,69.150088)"
       sodipodi:type="arc"
       style="fill:#0000ff;fill-opacity:1;stroke:#000000;stroke-width:1;stroke-linecap:butt;stroke-miterlimit:4;stroke-opacity:1;stroke-dasharray:4, 4;stroke-dashoffset:0"
       id="path3871-4-0"
       sodipodi:cx="181.51898"
       sodipodi:cy="225.70428"
       sodipodi:rx="7.857965"
       sodipodi:ry="7.857965"
       d="m 189.37695,225.70428 a 7.857965,7.857965 0 1 1 -15.71593,0 7.857965,7.857965 0 1 1 15.71593,0 z" />
    <path
       transform="translate(-0.78579142,128.87062)"
       sodipodi:type="arc"
       style="fill:#0000ff;fill-opacity:1;stroke:#000000;stroke-width:1;stroke-linecap:butt;stroke-miterlimit:4;stroke-opacity:1;stroke-dasharray:4, 4;stroke-dashoffset:0"
       id="path3871-4-3"
       sodipodi:cx="181.51898"
       sodipodi:cy="225.70428"
       sodipodi:rx="7.857965"
       sodipodi:ry="7.857965"
       d="m 189.37695,225.70428 a 7.857965,7.857965 0 1 1 -15.71593,0 7.857965,7.857965 0 1 1 15.71593,0 z" />
    <path
       transform="translate(113.94049,142.22916)"
       sodipodi:type="arc"
       style="fill:#0000ff;fill-opacity:1;stroke:#000000;stroke-width:1;stroke-linecap:butt;stroke-miterlimit:4;stroke-opacity:1;stroke-dasharray:4, 4;stroke-dashoffset:0"
       id="path3871-4-8"
       sodipodi:cx="181.51898"
       sodipodi:cy="225.70428"
       sodipodi:rx="7.857965"
       sodipodi:ry="7.857965"
       d="m 189.37695,225.70428 a 7.857965,7.857965 0 1 1 -15.71593,0 7.857965,7.857965 0 1 1 15.71593,0 z" />
  </g>
</svg>
