<?xml version="1.0" encoding="UTF-8" standalone="no"?>
<!-- Created with Inkscape (http://www.inkscape.org/) -->

<svg
   xmlns:dc="http://purl.org/dc/elements/1.1/"
   xmlns:cc="http://creativecommons.org/ns#"
   xmlns:rdf="http://www.w3.org/1999/02/22-rdf-syntax-ns#"
   xmlns:svg="http://www.w3.org/2000/svg"
   xmlns="http://www.w3.org/2000/svg"
   xmlns:sodipodi="http://sodipodi.sourceforge.net/DTD/sodipodi-0.dtd"
   xmlns:inkscape="http://www.inkscape.org/namespaces/inkscape"
   width="210mm"
   height="297mm"
   viewBox="0 0 210 297"
   version="1.1"
   id="svg8"
   inkscape:version="0.92.1 r"
   sodipodi:docname="boundaries-without-hanging-nodes.svg">
  <defs
     id="defs2" />
  <sodipodi:namedview
     id="base"
     pagecolor="#ffffff"
     bordercolor="#666666"
     borderopacity="1.0"
     inkscape:pageopacity="0.0"
     inkscape:pageshadow="2"
     inkscape:zoom="2"
     inkscape:cx="351.02132"
     inkscape:cy="934.3772"
     inkscape:document-units="mm"
     inkscape:current-layer="layer1"
     showgrid="false"
     inkscape:window-width="1920"
     inkscape:window-height="1015"
     inkscape:window-x="1696"
     inkscape:window-y="16"
     inkscape:window-maximized="1" />
  <metadata
     id="metadata5">
    <rdf:RDF>
      <cc:Work
         rdf:about="">
        <dc:format>image/svg+xml</dc:format>
        <dc:type
           rdf:resource="http://purl.org/dc/dcmitype/StillImage" />
        <dc:title></dc:title>
      </cc:Work>
    </rdf:RDF>
  </metadata>
  <g
     inkscape:label="Layer 1"
     inkscape:groupmode="layer"
     id="layer1">
    <g
       id="g5195"
       transform="translate(18.885859)">
      <path
         sodipodi:nodetypes="cc"
         inkscape:connector-curvature="0"
         id="path4489"
         d="M 50.202247,11.836845 H 24.187217"
         style="fill:none;fill-rule:evenodd;stroke:#000000;stroke-width:0.2533437px;stroke-linecap:butt;stroke-linejoin:miter;stroke-opacity:1" />
      <path
         sodipodi:nodetypes="ccc"
         inkscape:connector-curvature="0"
         id="path4489-6"
         d="M 55.457753,22.373751 V 11.836844 H 45.034241"
         style="fill:none;fill-rule:evenodd;stroke:#000000;stroke-width:0.2533437px;stroke-linecap:butt;stroke-linejoin:miter;stroke-opacity:1" />
      <path
         sodipodi:nodetypes="ccc"
         inkscape:connector-curvature="0"
         id="path4489-5"
         d="M 24.187218,33.155704 V 43.447567 H 34.61073"
         style="fill:none;fill-rule:evenodd;stroke:#000000;stroke-width:0.2533437px;stroke-linecap:butt;stroke-linejoin:miter;stroke-opacity:1" />
      <path
         sodipodi:nodetypes="cc"
         inkscape:connector-curvature="0"
         id="path4489-3-6"
         d="M 34.61073,43.447567 H 45.034242"
         style="fill:none;fill-rule:evenodd;stroke:#000000;stroke-width:0.2533437px;stroke-linecap:butt;stroke-linejoin:miter;stroke-opacity:1" />
      <path
         sodipodi:nodetypes="ccc"
         inkscape:connector-curvature="0"
         id="path4489-6-2"
         d="M 45.034242,43.447566 H 55.457753 V 32.910659"
         style="fill:none;fill-rule:evenodd;stroke:#000000;stroke-width:0.2533437px;stroke-linecap:butt;stroke-linejoin:miter;stroke-opacity:1" />
      <path
         inkscape:connector-curvature="0"
         id="path4489-9"
         d="M 55.457753,12.081888 V 22.373751 H 65.881265 V 11.836844 H 55.457753"
         style="fill:none;fill-rule:evenodd;stroke:#000000;stroke-width:0.2533437px;stroke-linecap:butt;stroke-linejoin:miter;stroke-opacity:1" />
      <path
         inkscape:connector-curvature="0"
         id="path4489-3-1"
         d="M 65.881265,12.081887 V 22.373751 H 76.304777 V 11.836843 H 65.881265"
         style="fill:none;fill-rule:evenodd;stroke:#000000;stroke-width:0.2533437px;stroke-linecap:butt;stroke-linejoin:miter;stroke-opacity:1" />
      <path
         inkscape:connector-curvature="0"
         id="path4489-6-27"
         d="M 76.304777,12.081887 V 22.37375 H 86.728288 V 11.836843 H 76.304777"
         style="fill:none;fill-rule:evenodd;stroke:#000000;stroke-width:0.2533437px;stroke-linecap:butt;stroke-linejoin:miter;stroke-opacity:1" />
      <path
         inkscape:connector-curvature="0"
         id="path4489-7-0"
         d="M 55.457754,22.618795 V 32.910658 H 65.881266 V 22.373751 H 55.457754"
         style="fill:none;fill-rule:evenodd;stroke:#000000;stroke-width:0.2533437px;stroke-linecap:butt;stroke-linejoin:miter;stroke-opacity:1" />
      <path
         inkscape:connector-curvature="0"
         id="path4489-3-5-9"
         d="M 65.881266,22.618794 V 32.910658 H 76.304778 V 22.37375 H 65.881266"
         style="fill:none;fill-rule:evenodd;stroke:#000000;stroke-width:0.2533437px;stroke-linecap:butt;stroke-linejoin:miter;stroke-opacity:1" />
      <path
         inkscape:connector-curvature="0"
         id="path4489-6-3-3"
         d="m 76.304778,22.618794 v 10.291863 h 10.42351 V 22.37375 h -10.42351"
         style="fill:none;fill-rule:evenodd;stroke:#000000;stroke-width:0.2533437px;stroke-linecap:butt;stroke-linejoin:miter;stroke-opacity:1" />
      <path
         inkscape:connector-curvature="0"
         id="path4489-5-6"
         d="M 55.457754,33.155703 V 43.447566 H 65.881266 V 32.910659 H 55.457754"
         style="fill:none;fill-rule:evenodd;stroke:#000000;stroke-width:0.2533437px;stroke-linecap:butt;stroke-linejoin:miter;stroke-opacity:1" />
      <path
         inkscape:connector-curvature="0"
         id="path4489-3-6-0"
         d="M 65.881266,33.155702 V 43.447566 H 76.304778 V 32.910658 H 65.881266"
         style="fill:none;fill-rule:evenodd;stroke:#000000;stroke-width:0.2533437px;stroke-linecap:butt;stroke-linejoin:miter;stroke-opacity:1" />
      <path
         inkscape:connector-curvature="0"
         id="path4489-6-2-6"
         d="m 76.304778,33.155702 v 10.291864 h 10.42351 V 32.910658 h -10.42351"
         style="fill:none;fill-rule:evenodd;stroke:#000000;stroke-width:0.2533437px;stroke-linecap:butt;stroke-linejoin:miter;stroke-opacity:1" />
      <path
         inkscape:connector-curvature="0"
         id="path4582"
         d="m 23.8125,9.3601183 c -0.125992,0.15749 -0.256964,0.311122 -0.377976,0.47247 -0.06814,0.09085 -0.116284,0.1962367 -0.188988,0.2834817 -0.08555,0.102661 -0.188989,0.188989 -0.283483,0.283483 -0.220486,0.220486 -0.440972,0.440972 -0.661458,0.661458 -0.09449,0.09449 -0.188988,0.188988 -0.283482,0.283482 -0.09449,0.09449 -0.174739,0.205809 -0.283482,0.283482 -0.114625,0.08188 -0.251984,0.125992 -0.377976,0.188988 -0.063,0.0315 -0.139186,0.04469 -0.188988,0.09449 -0.217161,0.217161 0.02449,0.188988 -0.188989,0.188988"
         style="fill:none;fill-rule:evenodd;stroke:#000000;stroke-width:0.26458332px;stroke-linecap:butt;stroke-linejoin:miter;stroke-opacity:1" />
      <path
         inkscape:connector-curvature="0"
         id="path4584"
         d="m 24.187217,12.081889 c -0.415977,0.353111 -0.995959,0.426015 -1.414152,0.774509 -0.303549,0.252957 -0.549932,0.592863 -0.850446,0.850446 -0.119576,0.102493 -0.266614,0.17212 -0.377976,0.283482 -0.0803,0.0803 -0.108684,0.203178 -0.188988,0.283483 -0.0498,0.0498 -0.130386,0.05542 -0.188988,0.09449 -0.03706,0.02471 -0.05465,0.07457 -0.09449,0.09449 -0.02817,0.01409 -0.063,0 -0.09449,0"
         style="fill:none;fill-rule:evenodd;stroke:#000000;stroke-width:0.26458332px;stroke-linecap:butt;stroke-linejoin:miter;stroke-opacity:1" />
      <path
         inkscape:connector-curvature="0"
         id="path4586"
         d="m 24.063557,14.185046 c -0.063,0.125993 -0.125992,0.251985 -0.188988,0.377977 -0.0315,0.0315 -0.06978,0.05743 -0.09449,0.09449 -0.03907,0.0586 -0.05223,0.132642 -0.09449,0.188988 -0.05345,0.07127 -0.133334,0.119421 -0.188988,0.188988 -0.244137,0.305171 -0.104188,0.244313 -0.377977,0.47247 -0.120987,0.100823 -0.266614,0.17212 -0.377976,0.283482 -0.111362,0.111363 -0.179774,0.259453 -0.283482,0.377976 -0.117332,0.134094 -0.260644,0.243883 -0.377976,0.377977 -1.191481,1.361692 0.409508,-0.396916 -0.47247,0.661458 -0.135933,0.16312 -0.318825,0.318825 -0.47247,0.47247"
         style="fill:none;fill-rule:evenodd;stroke:#000000;stroke-width:0.26458332px;stroke-linecap:butt;stroke-linejoin:miter;stroke-opacity:1" />
      <path
         inkscape:connector-curvature="0"
         id="path4588"
         d="m 24.224868,17.750111 c -0.328871,0.103083 -0.361622,0.456116 -0.566964,0.661458 -0.0803,0.08031 -0.188988,0.125992 -0.283482,0.188988 -0.09449,0.125992 -0.180989,0.258401 -0.283482,0.377976 -0.173937,0.202926 -0.411617,0.349478 -0.566965,0.566965 -0.08188,0.114625 -0.125992,0.251984 -0.188988,0.377976 -0.063,0.125992 -0.133499,0.248502 -0.188988,0.377976 -0.16287,0.380031 2.17e-4,0.188771 -0.188988,0.377976"
         style="fill:none;fill-rule:evenodd;stroke:#000000;stroke-width:0.26458332px;stroke-linecap:butt;stroke-linejoin:miter;stroke-opacity:1" />
      <path
         sodipodi:nodetypes="cccccccc"
         inkscape:connector-curvature="0"
         id="path4592"
         d="m 24.187217,21.237856 c -0.07571,0.121817 -0.936322,1.174277 -1.225164,1.463114 -0.0803,0.0803 -0.125992,0.188988 -0.188988,0.283482 -0.09449,0.063 -0.1948,0.118043 -0.283482,0.188988 -0.139135,0.111308 -0.225188,0.286303 -0.377976,0.377976 -0.08541,0.05125 -0.194392,0.04995 -0.283482,0.09449 -0.03984,0.01992 -0.05743,0.06978 -0.09449,0.09449 -0.343245,0.22883 -0.06682,-0.02767 -0.283482,0.188988"
         style="fill:none;fill-rule:evenodd;stroke:#000000;stroke-width:0.26458332px;stroke-linecap:butt;stroke-linejoin:miter;stroke-opacity:1" />
      <path
         inkscape:connector-curvature="0"
         id="path4594"
         d="m 24.229974,24.205805 c -0.09449,0.125992 -0.17212,0.266614 -0.283482,0.377976 -0.0498,0.0498 -0.139185,0.04469 -0.188988,0.09449 -0.08031,0.08031 -0.108683,0.203179 -0.188988,0.283483 -0.0498,0.0498 -0.139186,0.04469 -0.188988,0.09449 -0.0803,0.08031 -0.116284,0.196239 -0.188989,0.283482 -0.935427,1.122516 0.368466,-0.555551 -0.566961,0.566965 -0.0727,0.08725 -0.116284,0.196237 -0.188989,0.283483 -0.142584,0.171101 -0.31498,0.314981 -0.47247,0.472469 -0.0315,0.0315 -0.06978,0.05743 -0.09449,0.0945 -0.03907,0.0586 -0.063,0.125992 -0.09449,0.188986"
         style="fill:none;fill-rule:evenodd;stroke:#000000;stroke-width:0.26458332px;stroke-linecap:butt;stroke-linejoin:miter;stroke-opacity:1" />
      <path
         inkscape:connector-curvature="0"
         id="path4596"
         d="m 24.257293,27.023789 c -0.09449,0.125992 -0.188988,0.251984 -0.283482,0.377976 -0.063,0.063 -0.131954,0.120547 -0.188988,0.188989 -0.201645,0.241975 -0.361978,0.5168 -0.566964,0.755952 -0.08697,0.101462 -0.188988,0.188989 -0.283482,0.283482 -0.125992,0.125992 -0.251984,0.251984 -0.377976,0.377976 -0.125992,0.125992 -0.243883,0.260644 -0.377976,0.377976 -0.118524,0.103709 -0.258401,0.180988 -0.377977,0.283482 -0.202926,0.173937 -0.377976,0.377976 -0.566964,0.566965 -0.01621,0.01622 -0.543864,0.520764 -0.566964,0.566963 -0.01409,0.02817 0.063,0 0.09449,0"
         style="fill:none;fill-rule:evenodd;stroke:#000000;stroke-width:0.26458332px;stroke-linecap:butt;stroke-linejoin:miter;stroke-opacity:1" />
      <path
         inkscape:connector-curvature="0"
         id="path4598"
         d="m 24.190476,29.959821 c -0.063,0.125991 -0.116514,0.257185 -0.188988,0.377975 -0.04067,0.06778 -0.342355,0.342355 -0.377976,0.377976 -0.09449,0.09449 -0.176574,0.203301 -0.283482,0.283483 -0.537345,0.403008 0.200661,-0.295156 -0.377977,0.283482 -0.188988,0.188987 -0.377976,0.377976 -0.566964,0.566965 -0.125992,0.125992 -0.238841,0.266668 -0.377976,0.377976 -0.08868,0.07095 -0.203178,0.108683 -0.283482,0.188987 -0.0803,0.08031 -0.116284,0.196238 -0.188988,0.283482 -0.08555,0.102661 -0.197931,0.180822 -0.283482,0.283483 -0.0727,0.08725 -0.116284,0.196236 -0.188989,0.283482 -0.08555,0.102661 -0.188988,0.188987 -0.283482,0.283483 -0.125992,0.125992 -0.251984,0.251984 -0.377976,0.377975"
         style="fill:none;fill-rule:evenodd;stroke:#000000;stroke-width:0.26458332px;stroke-linecap:butt;stroke-linejoin:miter;stroke-opacity:1" />
      <path
         inkscape:connector-curvature="0"
         id="path4600"
         d="m 24.187218,33.155704 c -1.1978,1.922354 -0.236054,0.446445 -0.941682,1.434325 -0.06601,0.09241 -0.122979,0.191069 -0.188989,0.283482 -0.147391,0.206349 -0.355632,0.50296 -0.566964,0.661459 -0.146931,0.110196 -0.325539,0.173283 -0.47247,0.283482 -0.220486,0.165365 -0.440972,0.514467 -0.661458,0.661458 -0.141134,0.09409 -0.324194,0.106612 -0.472471,0.188987 -0.137671,0.07649 -0.246936,0.196122 -0.377976,0.283483 -0.152817,0.101877 -0.325539,0.173283 -0.47247,0.283482 -0.106908,0.08018 -0.180821,0.197932 -0.283482,0.283483 -0.07188,0.0599 -0.349477,0.242482 -0.47247,0.283482 -0.02988,0.0099 -0.063,0 -0.09449,0"
         style="fill:none;fill-rule:evenodd;stroke:#000000;stroke-width:0.26458332px;stroke-linecap:butt;stroke-linejoin:miter;stroke-opacity:1" />
      <path
         inkscape:connector-curvature="0"
         id="path4602"
         d="m 24.174264,36.61256 c -0.09449,0.15749 -0.153612,0.342601 -0.283482,0.472472 -0.07043,0.07043 -0.205703,0.03227 -0.283482,0.09449 -0.08868,0.07095 -0.116284,0.196236 -0.188989,0.283482 -0.08555,0.102661 -0.188988,0.188987 -0.283482,0.283483 -0.188988,0.188986 -0.377976,0.377976 -0.566964,0.566962 -0.125992,0.125995 -0.251985,0.251987 -0.377977,0.377979 -0.09449,0.09449 -0.180821,0.197929 -0.283482,0.28348 -0.08724,0.0727 -0.188988,0.125994 -0.283482,0.188989 -0.06097,0.04065 -0.356244,0.254426 -0.47247,0.283482 -0.06112,0.01527 -0.125992,0 -0.188988,0"
         style="fill:none;fill-rule:evenodd;stroke:#000000;stroke-width:0.26458332px;stroke-linecap:butt;stroke-linejoin:miter;stroke-opacity:1" />
      <path
         inkscape:connector-curvature="0"
         id="path4604"
         d="m 24.235349,39.87498 c -0.287089,0.552984 -0.647469,0.523809 -1.039435,0.850445 -0.102661,0.08555 -0.174739,0.205808 -0.283482,0.283482 -0.114625,0.08188 -0.254839,0.120579 -0.377976,0.188989 -0.160551,0.08919 -0.319653,0.181605 -0.47247,0.283483 -0.26208,0.17472 -0.48885,0.400023 -0.755953,0.566962 -0.119452,0.07466 -0.26077,0.110853 -0.377976,0.188989 -0.716372,0.477581 0.268258,-0.03963 -0.377976,0.283483"
         style="fill:none;fill-rule:evenodd;stroke:#000000;stroke-width:0.26458332px;stroke-linecap:butt;stroke-linejoin:miter;stroke-opacity:1" />
      <path
         sodipodi:nodetypes="csccccccccsc"
         inkscape:connector-curvature="0"
         id="path4606"
         d="m 24.187218,42.144628 c -0.608756,-0.05629 -0.553756,0.279913 -0.908273,0.492622 -0.09738,0.05843 -0.188989,0.125992 -0.283483,0.188987 -0.09449,0.063 -0.196237,0.116284 -0.283482,0.188989 -0.102661,0.08555 -0.180821,0.197932 -0.283482,0.283483 -0.08725,0.0727 -0.188988,0.125991 -0.283482,0.188986 -0.125992,0.0945 -0.258401,0.180991 -0.377977,0.283483 -0.169105,0.144946 -0.31498,0.314981 -0.47247,0.472471 -0.09449,0.09449 -0.200001,0.179131 -0.283482,0.28348 -0.044,0.055 -0.04469,0.139187 -0.09449,0.188989 -0.02227,0.02228 -0.09449,0.0315 -0.09449,0 0,-0.0315 0.063,0 0.09449,0"
         style="fill:none;fill-rule:evenodd;stroke:#000000;stroke-width:0.26458332px;stroke-linecap:butt;stroke-linejoin:miter;stroke-opacity:1" />
      <path
         sodipodi:nodetypes="ccc"
         inkscape:connector-curvature="0"
         id="path4489-3-3"
         d="M 24.187216,22.340354 V 11.803446 H 13.763704"
         style="fill:none;fill-rule:evenodd;stroke:#000000;stroke-width:0.2533437px;stroke-linecap:butt;stroke-linejoin:miter;stroke-opacity:1" />
      <path
         sodipodi:nodetypes="cc"
         inkscape:connector-curvature="0"
         id="path4489-3-5-6"
         d="M 24.187217,32.877261 V 22.340353"
         style="fill:none;fill-rule:evenodd;stroke:#000000;stroke-width:0.2533437px;stroke-linecap:butt;stroke-linejoin:miter;stroke-opacity:1" />
      <path
         sodipodi:nodetypes="ccc"
         inkscape:connector-curvature="0"
         id="path4489-3-6-1"
         d="M 13.763705,43.414169 H 24.187217 V 32.877261"
         style="fill:none;fill-rule:evenodd;stroke:#000000;stroke-width:0.2533437px;stroke-linecap:butt;stroke-linejoin:miter;stroke-opacity:1" />
      <path
         inkscape:connector-curvature="0"
         id="path4765"
         d="m 13.89909,17.109442 v -5.102679 h 3.462239 c 3.185409,0 3.472516,0.01322 3.590774,0.165365 0.122414,0.15749 0.134655,0.15749 0.25707,0 0.111786,-0.143818 0.299551,-0.164759 1.441034,-0.160717 l 1.312499,0.0046 -0.614211,0.32328 c -0.699601,0.368224 -2.523848,2.033905 -2.416951,2.206867 0.03616,0.05851 0.103098,0.106391 0.148742,0.106391 0.04564,0 0.493387,-0.393332 0.994985,-0.87407 0.863982,-0.828053 1.2338,-1.095722 1.722071,-1.246412 0.208459,-0.06434 0.212611,-0.05058 0.212611,0.704349 0,0.765155 -0.0028,0.773989 -0.448846,1.414093 -0.246866,0.354271 -0.555153,0.717183 -0.685082,0.806472 -0.12993,0.08929 -0.533892,0.521207 -0.897694,0.959817 -0.363802,0.438609 -0.744142,0.880415 -0.8452,0.98179 -0.144749,0.145203 -0.159237,0.208824 -0.06827,0.299792 0.156385,0.156384 0.359081,0.0213 0.755427,-0.503433 0.172935,-0.228955 0.671814,-0.798983 1.108621,-1.266728 0.436806,-0.467746 0.857383,-0.935491 0.934614,-1.039435 0.126399,-0.170118 0.14072,-0.04552 0.143425,1.24785 0.0034,1.650069 0.03144,1.577141 -1.025954,2.673653 -0.58823,0.609995 -1.218957,1.692804 -1.099052,1.886815 0.124988,0.202234 0.257474,0.08062 0.504133,-0.462757 0.164631,-0.362675 0.495887,-0.810987 0.939113,-1.270966 l 0.684765,-0.710649 v 1.47339 1.47339 l -0.432529,0.506282 -0.43253,0.506281 H 18.521992 13.89909 Z"
         style="opacity:0;fill:#ececec;fill-opacity:1;stroke:#000000;stroke-width:15.35714245;stroke-linecap:round;stroke-miterlimit:4;stroke-dasharray:none;stroke-dashoffset:0;stroke-opacity:1" />
      <path
         inkscape:connector-curvature="0"
         id="path4767"
         d="m 13.89909,27.59828 v -5.102678 h 4.500038 c 4.232859,0 4.492337,0.0096 4.370349,0.161551 -0.22349,0.2784 -0.743854,0.712629 -1.052085,0.877935 -0.340649,0.182692 -0.431148,0.353972 -0.228181,0.431858 0.198188,0.07605 0.819982,-0.340083 1.421641,-0.951431 0.402483,-0.408966 0.574348,-0.519913 0.805386,-0.519913 h 0.293715 v 0.868577 0.868577 l -0.362691,0.338204 c -0.647335,0.603631 -2.011234,2.189397 -1.975438,2.296787 0.08336,0.250084 0.274681,0.120298 0.97318,-0.660181 0.408499,-0.456443 0.882726,-0.97518 1.053838,-1.15275 l 0.311111,-0.322855 v 1.154721 1.154724 l -0.50538,0.632791 c -0.27796,0.348032 -1.066476,1.160261 -1.752256,1.80495 -1.139923,1.071615 -1.382629,1.400511 -1.096902,1.486424 0.108686,0.03268 2.725634,-2.492587 3.097842,-2.989313 l 0.247822,-0.330729 0.0044,1.218298 0.0044,1.218297 -0.449283,0.435349 c -0.247105,0.23944 -0.865637,0.828677 -1.374515,1.309417 l -0.925232,0.87407 H 17.580006 13.89909 Z"
         style="opacity:0;fill:#ececec;fill-opacity:1;stroke:#000000;stroke-width:15.35714245;stroke-linecap:round;stroke-miterlimit:4;stroke-dasharray:none;stroke-dashoffset:0;stroke-opacity:1" />
    </g>
    <g
       id="g5162"
       transform="translate(-84.254973,41.815897)">
      <path
         inkscape:connector-curvature="0"
         id="path4489-0"
         d="m 127.32805,11.871913 v 10.291863 h 10.42351 V 11.626869 h -10.42351"
         style="fill:none;fill-rule:evenodd;stroke:#000000;stroke-width:0.2533437px;stroke-linecap:butt;stroke-linejoin:miter;stroke-opacity:1" />
      <path
         inkscape:connector-curvature="0"
         id="path4489-3-63"
         d="m 137.75156,11.871912 v 10.291864 h 10.42351 V 11.626868 h -10.42351"
         style="fill:none;fill-rule:evenodd;stroke:#000000;stroke-width:0.2533437px;stroke-linecap:butt;stroke-linejoin:miter;stroke-opacity:1" />
      <path
         inkscape:connector-curvature="0"
         id="path4489-6-20"
         d="m 148.17507,11.871912 v 10.291863 h 10.42352 V 11.626868 h -10.42352"
         style="fill:none;fill-rule:evenodd;stroke:#000000;stroke-width:0.2533437px;stroke-linecap:butt;stroke-linejoin:miter;stroke-opacity:1" />
      <path
         inkscape:connector-curvature="0"
         id="path4489-7-6"
         d="m 127.32805,22.40882 v 10.291863 h 10.42351 V 22.163776 h -10.42351"
         style="fill:none;fill-rule:evenodd;stroke:#000000;stroke-width:0.2533437px;stroke-linecap:butt;stroke-linejoin:miter;stroke-opacity:1" />
      <path
         inkscape:connector-curvature="0"
         id="path4489-3-5-1"
         d="m 137.75156,22.408819 v 10.291864 h 10.42352 V 22.163775 h -10.42352"
         style="fill:none;fill-rule:evenodd;stroke:#000000;stroke-width:0.2533437px;stroke-linecap:butt;stroke-linejoin:miter;stroke-opacity:1" />
      <path
         inkscape:connector-curvature="0"
         id="path4489-6-3-5"
         d="m 148.17508,22.408819 v 10.291864 h 10.42351 V 22.163775 h -10.42351"
         style="fill:none;fill-rule:evenodd;stroke:#000000;stroke-width:0.2533437px;stroke-linecap:butt;stroke-linejoin:miter;stroke-opacity:1" />
      <path
         inkscape:connector-curvature="0"
         id="path4489-5-5"
         d="m 127.32805,32.945729 v 10.291863 h 10.42351 V 32.700685 h -10.42351"
         style="fill:none;fill-rule:evenodd;stroke:#000000;stroke-width:0.2533437px;stroke-linecap:butt;stroke-linejoin:miter;stroke-opacity:1" />
      <path
         inkscape:connector-curvature="0"
         id="path4489-3-6-4"
         d="m 137.75156,32.945726 v 10.291866 h 10.42352 V 32.700683 h -10.42352"
         style="fill:none;fill-rule:evenodd;stroke:#000000;stroke-width:0.2533437px;stroke-linecap:butt;stroke-linejoin:miter;stroke-opacity:1" />
      <path
         inkscape:connector-curvature="0"
         id="path4489-6-2-7"
         d="m 148.17508,32.945726 v 10.291863 h 10.42351 V 32.700683 h -10.42351"
         style="fill:none;fill-rule:evenodd;stroke:#000000;stroke-width:0.2533437px;stroke-linecap:butt;stroke-linejoin:miter;stroke-opacity:1" />
      <path
         inkscape:connector-curvature="0"
         id="path4489-9-6"
         d="M 158.59859,11.871912 V 22.163775 H 169.0221 V 11.626868 h -10.42351"
         style="fill:none;fill-rule:evenodd;stroke:#000000;stroke-width:0.2533437px;stroke-linecap:butt;stroke-linejoin:miter;stroke-opacity:1" />
      <path
         inkscape:connector-curvature="0"
         id="path4489-3-1-5"
         d="m 169.0221,11.871911 v 10.291864 h 10.42351 V 11.626867 H 169.0221"
         style="fill:none;fill-rule:evenodd;stroke:#000000;stroke-width:0.2533437px;stroke-linecap:butt;stroke-linejoin:miter;stroke-opacity:1" />
      <path
         inkscape:connector-curvature="0"
         id="path4489-6-27-6"
         d="m 179.44561,11.871911 v 10.291863 h 10.42351 V 11.626867 h -10.42351"
         style="fill:none;fill-rule:evenodd;stroke:#000000;stroke-width:0.2533437px;stroke-linecap:butt;stroke-linejoin:miter;stroke-opacity:1" />
      <path
         inkscape:connector-curvature="0"
         id="path4489-7-0-9"
         d="M 158.59859,22.408819 V 32.700683 H 169.0221 V 22.163775 h -10.42351"
         style="fill:none;fill-rule:evenodd;stroke:#000000;stroke-width:0.2533437px;stroke-linecap:butt;stroke-linejoin:miter;stroke-opacity:1" />
      <path
         inkscape:connector-curvature="0"
         id="path4489-3-5-9-3"
         d="m 169.0221,22.408818 v 10.291865 h 10.42351 V 22.163774 H 169.0221"
         style="fill:none;fill-rule:evenodd;stroke:#000000;stroke-width:0.2533437px;stroke-linecap:butt;stroke-linejoin:miter;stroke-opacity:1" />
      <path
         inkscape:connector-curvature="0"
         id="path4489-6-3-3-7"
         d="M 179.44561,22.408818 V 32.70068 h 10.42351 V 22.163774 h -10.42351"
         style="fill:none;fill-rule:evenodd;stroke:#000000;stroke-width:0.2533437px;stroke-linecap:butt;stroke-linejoin:miter;stroke-opacity:1" />
      <path
         inkscape:connector-curvature="0"
         id="path4489-5-6-4"
         d="M 158.59859,32.945726 V 43.237589 H 169.0221 V 32.700683 h -10.42351"
         style="fill:none;fill-rule:evenodd;stroke:#000000;stroke-width:0.2533437px;stroke-linecap:butt;stroke-linejoin:miter;stroke-opacity:1" />
      <path
         inkscape:connector-curvature="0"
         id="path4489-3-6-0-5"
         d="m 169.0221,32.945726 v 10.291863 h 10.42351 V 32.700683 H 169.0221"
         style="fill:none;fill-rule:evenodd;stroke:#000000;stroke-width:0.2533437px;stroke-linecap:butt;stroke-linejoin:miter;stroke-opacity:1" />
      <path
         inkscape:connector-curvature="0"
         id="path4489-6-2-6-2"
         d="m 179.44561,32.945726 v 10.291863 h 10.42351 V 32.700683 h -10.42351"
         style="fill:none;fill-rule:evenodd;stroke:#000000;stroke-width:0.2533437px;stroke-linecap:butt;stroke-linejoin:miter;stroke-opacity:1" />
      <path
         inkscape:connector-curvature="0"
         id="path4582-5"
         d="m 126.95333,9.1501417 c -0.12599,0.15749 -0.25696,0.311122 -0.37798,0.47247 -0.0681,0.09085 -0.11628,0.196237 -0.18898,0.283482 -0.0855,0.1026613 -0.18899,0.1889893 -0.28349,0.2834833 -0.22048,0.220486 -0.44097,0.440972 -0.66145,0.661458 -0.0945,0.09449 -0.18899,0.188988 -0.28349,0.283482 -0.0945,0.09449 -0.17474,0.205809 -0.28348,0.283482 -0.11462,0.08188 -0.25198,0.125992 -0.37797,0.188988 -0.063,0.0315 -0.13919,0.04469 -0.18899,0.09449 -0.21716,0.217161 0.0245,0.188988 -0.18899,0.188988"
         style="fill:none;fill-rule:evenodd;stroke:#000000;stroke-width:0.26458332px;stroke-linecap:butt;stroke-linejoin:miter;stroke-opacity:1" />
      <path
         inkscape:connector-curvature="0"
         id="path4584-4"
         d="m 127.32805,11.871913 c -0.41598,0.353111 -0.99596,0.426015 -1.41415,0.774509 -0.30355,0.252957 -0.54994,0.592863 -0.85045,0.850446 -0.11958,0.102493 -0.26661,0.17212 -0.37798,0.283482 -0.0803,0.0803 -0.10868,0.203178 -0.18898,0.283483 -0.0498,0.0498 -0.13039,0.05542 -0.18899,0.09449 -0.0371,0.02471 -0.0547,0.07457 -0.0945,0.09449 -0.0282,0.01409 -0.063,0 -0.0945,0"
         style="fill:none;fill-rule:evenodd;stroke:#000000;stroke-width:0.26458332px;stroke-linecap:butt;stroke-linejoin:miter;stroke-opacity:1" />
      <path
         inkscape:connector-curvature="0"
         id="path4586-7"
         d="m 127.20439,13.97507 c -0.063,0.125993 -0.12599,0.251985 -0.18899,0.377977 -0.0315,0.0315 -0.0698,0.05743 -0.0945,0.09449 -0.0391,0.0586 -0.0522,0.132642 -0.0945,0.188988 -0.0534,0.07127 -0.13333,0.119421 -0.18899,0.188988 -0.24414,0.305171 -0.10419,0.244313 -0.37798,0.47247 -0.12098,0.100823 -0.26661,0.17212 -0.37797,0.283482 -0.11136,0.111363 -0.17977,0.259453 -0.28348,0.377976 -0.11734,0.134094 -0.26065,0.243883 -0.37798,0.377977 -1.19148,1.361692 0.40951,-0.396916 -0.47247,0.661458 -0.13593,0.16312 -0.31882,0.318825 -0.47247,0.47247"
         style="fill:none;fill-rule:evenodd;stroke:#000000;stroke-width:0.26458332px;stroke-linecap:butt;stroke-linejoin:miter;stroke-opacity:1" />
      <path
         inkscape:connector-curvature="0"
         id="path4588-4"
         d="m 127.3657,17.540135 c -0.32887,0.103083 -0.36162,0.456116 -0.56697,0.661458 -0.0803,0.08031 -0.18898,0.125992 -0.28348,0.188988 -0.0945,0.125992 -0.18099,0.258401 -0.28348,0.377976 -0.17394,0.202926 -0.41162,0.349478 -0.56696,0.566965 -0.0819,0.114625 -0.126,0.251984 -0.18899,0.377976 -0.063,0.125992 -0.1335,0.248502 -0.18899,0.377976 -0.16287,0.380031 2.2e-4,0.188771 -0.18899,0.377976"
         style="fill:none;fill-rule:evenodd;stroke:#000000;stroke-width:0.26458332px;stroke-linecap:butt;stroke-linejoin:miter;stroke-opacity:1" />
      <path
         sodipodi:nodetypes="cccccccc"
         inkscape:connector-curvature="0"
         id="path4592-4"
         d="m 127.32805,21.02788 c -0.0757,0.121817 -0.93632,1.174277 -1.22517,1.463114 -0.0803,0.0803 -0.12599,0.188988 -0.18898,0.283482 -0.0945,0.063 -0.1948,0.118043 -0.28349,0.188988 -0.13913,0.111308 -0.22518,0.286303 -0.37797,0.377976 -0.0854,0.05125 -0.19439,0.04995 -0.28348,0.09449 -0.0398,0.01992 -0.0574,0.06978 -0.0945,0.09449 -0.34325,0.22883 -0.0668,-0.02767 -0.28349,0.188988"
         style="fill:none;fill-rule:evenodd;stroke:#000000;stroke-width:0.26458332px;stroke-linecap:butt;stroke-linejoin:miter;stroke-opacity:1" />
      <path
         inkscape:connector-curvature="0"
         id="path4594-3"
         d="m 127.3708,23.995829 c -0.0945,0.125992 -0.17212,0.266614 -0.28348,0.377976 -0.0498,0.0498 -0.13918,0.04469 -0.18899,0.09449 -0.0803,0.08031 -0.10868,0.203179 -0.18898,0.283483 -0.0498,0.0498 -0.13919,0.04469 -0.18899,0.09449 -0.0803,0.08031 -0.11629,0.196239 -0.18899,0.283482 -0.93543,1.122515 0.36847,-0.555551 -0.56696,0.566965 -0.0727,0.08725 -0.11629,0.196236 -0.18899,0.283482 -0.14258,0.171101 -0.31498,0.314981 -0.47247,0.472469 -0.0315,0.0315 -0.0698,0.05743 -0.0945,0.0945 -0.0391,0.0586 -0.063,0.125992 -0.0945,0.188987"
         style="fill:none;fill-rule:evenodd;stroke:#000000;stroke-width:0.26458332px;stroke-linecap:butt;stroke-linejoin:miter;stroke-opacity:1" />
      <path
         inkscape:connector-curvature="0"
         id="path4596-0"
         d="m 127.39812,26.813812 c -0.0945,0.125992 -0.18898,0.251984 -0.28348,0.377976 -0.063,0.063 -0.13195,0.120549 -0.18899,0.188989 -0.20164,0.241977 -0.36197,0.5168 -0.56696,0.755954 -0.087,0.10146 -0.18899,0.188987 -0.28348,0.28348 -0.12599,0.125992 -0.25199,0.251984 -0.37798,0.377976 -0.12599,0.125992 -0.24388,0.260646 -0.37797,0.377976 -0.11853,0.103711 -0.25841,0.180988 -0.37798,0.283482 -0.20293,0.173937 -0.37798,0.377976 -0.56697,0.566965 -0.0162,0.01622 -0.54386,0.520764 -0.56696,0.566963 -0.0141,0.02817 0.063,0 0.0945,0"
         style="fill:none;fill-rule:evenodd;stroke:#000000;stroke-width:0.26458332px;stroke-linecap:butt;stroke-linejoin:miter;stroke-opacity:1" />
      <path
         inkscape:connector-curvature="0"
         id="path4598-7"
         d="m 127.33131,29.749845 c -0.063,0.12599 -0.11652,0.257186 -0.18899,0.377974 -0.0407,0.06778 -0.34236,0.342357 -0.37798,0.377978 -0.0945,0.09449 -0.17657,0.203301 -0.28348,0.283483 -0.53734,0.403008 0.20066,-0.295156 -0.37798,0.283482 -0.18898,0.188987 -0.37797,0.377976 -0.56696,0.566965 -0.12599,0.125992 -0.23884,0.266666 -0.37798,0.377976 -0.0887,0.07095 -0.20317,0.108683 -0.28348,0.188987 -0.0803,0.08031 -0.11628,0.196236 -0.18899,0.283482 -0.0855,0.102661 -0.19793,0.180822 -0.28348,0.283483 -0.0727,0.08725 -0.11628,0.196236 -0.18899,0.283482 -0.0855,0.102661 -0.18899,0.188987 -0.28348,0.283483 -0.12599,0.125992 -0.25198,0.251984 -0.37798,0.377973"
         style="fill:none;fill-rule:evenodd;stroke:#000000;stroke-width:0.26458332px;stroke-linecap:butt;stroke-linejoin:miter;stroke-opacity:1" />
      <path
         inkscape:connector-curvature="0"
         id="path4600-8"
         d="m 127.32805,32.945729 c -1.1978,1.922354 -0.23606,0.446445 -0.94168,1.434325 -0.066,0.09241 -0.12298,0.191069 -0.18899,0.28348 -0.14739,0.206351 -0.35563,0.502962 -0.56697,0.661461 -0.14693,0.110196 -0.32554,0.173283 -0.47247,0.283482 -0.22048,0.165365 -0.44097,0.514467 -0.66145,0.661456 -0.14114,0.09409 -0.3242,0.106614 -0.47248,0.188989 -0.13767,0.07649 -0.24693,0.19612 -0.37797,0.283483 -0.15282,0.101875 -0.32554,0.173283 -0.47247,0.283482 -0.10691,0.08018 -0.18082,0.197932 -0.28348,0.283483 -0.0719,0.0599 -0.34948,0.24248 -0.47247,0.283482 -0.0299,0.0099 -0.063,0 -0.0945,0"
         style="fill:none;fill-rule:evenodd;stroke:#000000;stroke-width:0.26458332px;stroke-linecap:butt;stroke-linejoin:miter;stroke-opacity:1" />
      <path
         inkscape:connector-curvature="0"
         id="path4602-6"
         d="m 127.3151,36.402584 c -0.0945,0.157491 -0.15362,0.342601 -0.28349,0.472472 -0.0704,0.07043 -0.2057,0.03227 -0.28348,0.09449 -0.0887,0.07095 -0.11628,0.196236 -0.18899,0.283482 -0.0855,0.102661 -0.18899,0.188987 -0.28348,0.283483 -0.18899,0.188984 -0.37798,0.377976 -0.56696,0.566962 -0.126,0.125995 -0.25199,0.251987 -0.37798,0.377979 -0.0945,0.09449 -0.18082,0.197929 -0.28348,0.28348 -0.0872,0.0727 -0.18899,0.125994 -0.28349,0.188989 -0.061,0.04065 -0.35624,0.254426 -0.47247,0.283482 -0.0611,0.01527 -0.12599,0 -0.18898,0"
         style="fill:none;fill-rule:evenodd;stroke:#000000;stroke-width:0.26458332px;stroke-linecap:butt;stroke-linejoin:miter;stroke-opacity:1" />
      <path
         inkscape:connector-curvature="0"
         id="path4604-8"
         d="m 127.37618,39.665005 c -0.28709,0.552982 -0.64747,0.523809 -1.03944,0.850445 -0.10266,0.08555 -0.17473,0.205806 -0.28348,0.28348 -0.11462,0.08188 -0.25484,0.120581 -0.37797,0.188989 -0.16055,0.08919 -0.31966,0.181605 -0.47247,0.283483 -0.26208,0.17472 -0.48885,0.400023 -0.75596,0.566962 -0.11945,0.07466 -0.26077,0.110853 -0.37797,0.18899 -0.71637,0.47758 0.26826,-0.03963 -0.37798,0.283482"
         style="fill:none;fill-rule:evenodd;stroke:#000000;stroke-width:0.26458332px;stroke-linecap:butt;stroke-linejoin:miter;stroke-opacity:1" />
      <path
         sodipodi:nodetypes="csccccccccsc"
         inkscape:connector-curvature="0"
         id="path4606-8"
         d="m 127.32805,41.934651 c -0.60876,-0.05629 -0.55376,0.279914 -0.90827,0.492623 -0.0974,0.05843 -0.18899,0.125992 -0.28349,0.188986 -0.0945,0.063 -0.19623,0.116285 -0.28348,0.18899 -0.10266,0.08555 -0.18082,0.197932 -0.28348,0.283482 -0.0872,0.0727 -0.18899,0.125992 -0.28348,0.188987 -0.12599,0.0945 -0.2584,0.180991 -0.37798,0.283482 -0.16911,0.144947 -0.31498,0.314981 -0.47247,0.472472 -0.0945,0.09449 -0.2,0.179131 -0.28348,0.28348 -0.044,0.055 -0.0447,0.139187 -0.0945,0.188989 -0.0223,0.02228 -0.0945,0.0315 -0.0945,0 0,-0.0315 0.063,0 0.0945,0"
         style="fill:none;fill-rule:evenodd;stroke:#000000;stroke-width:0.26458332px;stroke-linecap:butt;stroke-linejoin:miter;stroke-opacity:1" />
      <path
         sodipodi:nodetypes="ccc"
         inkscape:connector-curvature="0"
         id="path4489-3-3-4"
         d="M 127.32805,22.130378 V 11.59347 h -10.42351"
         style="fill:none;fill-rule:evenodd;stroke:#000000;stroke-width:0.2533437px;stroke-linecap:butt;stroke-linejoin:miter;stroke-opacity:1" />
      <path
         sodipodi:nodetypes="cc"
         inkscape:connector-curvature="0"
         id="path4489-3-5-6-3"
         d="M 127.32805,32.667284 V 22.130377"
         style="fill:none;fill-rule:evenodd;stroke:#000000;stroke-width:0.2533437px;stroke-linecap:butt;stroke-linejoin:miter;stroke-opacity:1" />
      <path
         sodipodi:nodetypes="ccc"
         inkscape:connector-curvature="0"
         id="path4489-3-6-1-1"
         d="m 116.90454,43.204194 h 10.42351 v -10.53691"
         style="fill:none;fill-rule:evenodd;stroke:#000000;stroke-width:0.2533437px;stroke-linecap:butt;stroke-linejoin:miter;stroke-opacity:1" />
      <path
         inkscape:connector-curvature="0"
         id="path4765-4"
         d="m 117.03992,16.899466 v -5.102679 h 3.46224 c 3.18541,0 3.47252,0.01322 3.59077,0.165365 0.12242,0.15749 0.13466,0.15749 0.25707,0 0.11179,-0.143818 0.29955,-0.164759 1.44104,-0.160717 l 1.3125,0.0046 -0.61421,0.32328 c -0.6996,0.368224 -2.52385,2.033905 -2.41696,2.206867 0.0362,0.05851 0.1031,0.106391 0.14875,0.106391 0.0456,0 0.49338,-0.393332 0.99498,-0.87407 0.86398,-0.828053 1.2338,-1.095722 1.72207,-1.246412 0.20846,-0.06434 0.21261,-0.05058 0.21261,0.704349 0,0.765155 -0.003,0.773989 -0.44884,1.414093 -0.24687,0.354271 -0.55516,0.717183 -0.68508,0.806472 -0.12993,0.08929 -0.5339,0.521207 -0.8977,0.959817 -0.3638,0.438609 -0.74414,0.880415 -0.8452,0.98179 -0.14475,0.145203 -0.15924,0.208824 -0.0683,0.299792 0.15639,0.156384 0.35908,0.0213 0.75543,-0.503433 0.17293,-0.228955 0.67181,-0.798983 1.10862,-1.266728 0.43681,-0.467746 0.85738,-0.935491 0.93461,-1.039435 0.1264,-0.170118 0.14072,-0.04552 0.14343,1.24785 0.003,1.650069 0.0314,1.577141 -1.02596,2.673653 -0.58823,0.609995 -1.21895,1.692804 -1.09905,1.886815 0.12499,0.202234 0.25748,0.08062 0.50414,-0.462757 0.16463,-0.362675 0.49588,-0.810987 0.93911,-1.270966 l 0.68476,-0.710649 v 1.47339 1.47339 l -0.43253,0.506282 -0.43253,0.506281 h -4.6229 -4.6229 z"
         style="opacity:0;fill:#ececec;fill-opacity:1;stroke:#000000;stroke-width:15.35714245;stroke-linecap:round;stroke-miterlimit:4;stroke-dasharray:none;stroke-dashoffset:0;stroke-opacity:1" />
      <path
         inkscape:connector-curvature="0"
         id="path4767-9"
         d="m 117.03992,27.388304 v -5.102678 h 4.50004 c 4.23286,0 4.49234,0.0096 4.37035,0.161551 -0.22349,0.2784 -0.74386,0.712629 -1.05209,0.877935 -0.34065,0.182692 -0.43115,0.353972 -0.22818,0.431858 0.19819,0.07605 0.81998,-0.340083 1.42164,-0.951431 0.40249,-0.408966 0.57435,-0.519913 0.80539,-0.519913 h 0.29371 v 0.868577 0.868577 l -0.36269,0.338204 c -0.64733,0.603631 -2.01123,2.189398 -1.97543,2.296787 0.0834,0.250084 0.27468,0.120298 0.97317,-0.66018 0.4085,-0.456443 0.88273,-0.975181 1.05384,-1.152751 l 0.31111,-0.322855 v 1.154722 1.154723 l -0.50538,0.632791 c -0.27796,0.348033 -1.06647,1.160262 -1.75225,1.804951 -1.13993,1.071615 -1.38263,1.400511 -1.0969,1.486424 0.10868,0.03268 2.72563,-2.492587 3.09784,-2.989313 l 0.24782,-0.330729 0.004,1.218297 0.004,1.218298 -0.44928,0.435348 c -0.24711,0.23944 -0.86564,0.828678 -1.37452,1.309418 l -0.92523,0.874069 h -3.68084 -3.68092 z"
         style="opacity:0;fill:#ececec;fill-opacity:1;stroke:#000000;stroke-width:15.35714245;stroke-linecap:round;stroke-miterlimit:4;stroke-dasharray:none;stroke-dashoffset:0;stroke-opacity:1" />
    </g>
    <g
       id="g5230"
       transform="translate(-58.208333,18.445243)">
      <path
         inkscape:connector-curvature="0"
         id="path4489-2"
         d="m 101.28141,78.812961 v 10.291863 h 10.42351 V 78.567917 h -10.42351"
         style="fill:none;fill-rule:evenodd;stroke:#000000;stroke-width:0.2533437px;stroke-linecap:butt;stroke-linejoin:miter;stroke-opacity:1" />
      <path
         inkscape:connector-curvature="0"
         id="path4489-3-0"
         d="m 111.70492,78.81296 v 10.291864 h 10.42351 V 78.567916 h -10.42351"
         style="fill:none;fill-rule:evenodd;stroke:#000000;stroke-width:0.2533437px;stroke-linecap:butt;stroke-linejoin:miter;stroke-opacity:1" />
      <path
         inkscape:connector-curvature="0"
         id="path4489-6-6"
         d="m 122.12843,78.81296 v 10.291863 h 10.42352 V 78.567916 h -10.42352"
         style="fill:none;fill-rule:evenodd;stroke:#000000;stroke-width:0.2533437px;stroke-linecap:butt;stroke-linejoin:miter;stroke-opacity:1" />
      <path
         inkscape:connector-curvature="0"
         id="path4489-7-8"
         d="m 101.28141,89.349868 v 10.291863 h 10.42352 V 89.104824 h -10.42352"
         style="fill:none;fill-rule:evenodd;stroke:#000000;stroke-width:0.2533437px;stroke-linecap:butt;stroke-linejoin:miter;stroke-opacity:1" />
      <path
         inkscape:connector-curvature="0"
         id="path4489-3-5-92"
         d="m 111.70493,89.349867 v 10.291864 h 10.42351 V 89.104823 h -10.42351"
         style="fill:none;fill-rule:evenodd;stroke:#000000;stroke-width:0.2533437px;stroke-linecap:butt;stroke-linejoin:miter;stroke-opacity:1" />
      <path
         inkscape:connector-curvature="0"
         id="path4489-6-3-6"
         d="m 122.12844,89.349867 v 10.291864 h 10.42351 V 89.104823 h -10.42351"
         style="fill:none;fill-rule:evenodd;stroke:#000000;stroke-width:0.2533437px;stroke-linecap:butt;stroke-linejoin:miter;stroke-opacity:1" />
      <path
         inkscape:connector-curvature="0"
         id="path4489-5-64"
         d="m 101.28141,99.886775 v 10.291865 h 10.42352 V 99.641731 h -10.42352"
         style="fill:none;fill-rule:evenodd;stroke:#000000;stroke-width:0.2533437px;stroke-linecap:butt;stroke-linejoin:miter;stroke-opacity:1" />
      <path
         inkscape:connector-curvature="0"
         id="path4489-3-6-9"
         d="m 111.70493,99.886775 v 10.291865 h 10.42351 V 99.641731 h -10.42351"
         style="fill:none;fill-rule:evenodd;stroke:#000000;stroke-width:0.2533437px;stroke-linecap:butt;stroke-linejoin:miter;stroke-opacity:1" />
      <path
         inkscape:connector-curvature="0"
         id="path4489-6-2-5"
         d="m 122.12844,99.886775 v 10.291865 h 10.42351 V 99.641731 h -10.42351"
         style="fill:none;fill-rule:evenodd;stroke:#000000;stroke-width:0.2533437px;stroke-linecap:butt;stroke-linejoin:miter;stroke-opacity:1" />
      <path
         inkscape:connector-curvature="0"
         id="path4489-9-0"
         d="m 132.55195,78.81296 v 10.291863 h 10.42351 V 78.567916 h -10.42351"
         style="fill:none;fill-rule:evenodd;stroke:#000000;stroke-width:0.2533437px;stroke-linecap:butt;stroke-linejoin:miter;stroke-opacity:1" />
      <path
         inkscape:connector-curvature="0"
         id="path4489-3-1-4"
         d="m 142.97546,78.812959 v 10.291864 h 10.42351 V 78.567915 h -10.42351"
         style="fill:none;fill-rule:evenodd;stroke:#000000;stroke-width:0.2533437px;stroke-linecap:butt;stroke-linejoin:miter;stroke-opacity:1" />
      <path
         inkscape:connector-curvature="0"
         id="path4489-6-27-8"
         d="m 153.39897,78.812959 v 10.291863 h 10.42351 V 78.567915 h -10.42351"
         style="fill:none;fill-rule:evenodd;stroke:#000000;stroke-width:0.2533437px;stroke-linecap:butt;stroke-linejoin:miter;stroke-opacity:1" />
      <path
         inkscape:connector-curvature="0"
         id="path4489-7-0-7"
         d="m 132.55195,89.349867 v 10.291864 h 10.42351 V 89.104823 h -10.42351"
         style="fill:none;fill-rule:evenodd;stroke:#000000;stroke-width:0.2533437px;stroke-linecap:butt;stroke-linejoin:miter;stroke-opacity:1" />
      <path
         inkscape:connector-curvature="0"
         id="path4489-3-5-9-1"
         d="m 142.97546,89.349866 v 10.291865 h 10.42351 V 89.104822 h -10.42351"
         style="fill:none;fill-rule:evenodd;stroke:#000000;stroke-width:0.2533437px;stroke-linecap:butt;stroke-linejoin:miter;stroke-opacity:1" />
      <path
         inkscape:connector-curvature="0"
         id="path4489-6-3-3-72"
         d="m 153.39897,89.349866 v 10.291862 h 10.42351 V 89.104822 h -10.42351"
         style="fill:none;fill-rule:evenodd;stroke:#000000;stroke-width:0.2533437px;stroke-linecap:butt;stroke-linejoin:miter;stroke-opacity:1" />
      <path
         inkscape:connector-curvature="0"
         id="path4489-5-6-7"
         d="m 132.55195,99.886775 v 10.291865 h 10.42351 V 99.641731 h -10.42351"
         style="fill:none;fill-rule:evenodd;stroke:#000000;stroke-width:0.2533437px;stroke-linecap:butt;stroke-linejoin:miter;stroke-opacity:1" />
      <path
         inkscape:connector-curvature="0"
         id="path4489-3-6-0-2"
         d="m 142.97546,99.886775 v 10.291865 h 10.42351 V 99.641731 h -10.42351"
         style="fill:none;fill-rule:evenodd;stroke:#000000;stroke-width:0.2533437px;stroke-linecap:butt;stroke-linejoin:miter;stroke-opacity:1" />
      <path
         inkscape:connector-curvature="0"
         id="path4489-6-2-6-26"
         d="m 153.39897,99.886775 v 10.291865 h 10.42351 V 99.641731 h -10.42351"
         style="fill:none;fill-rule:evenodd;stroke:#000000;stroke-width:0.2533437px;stroke-linecap:butt;stroke-linejoin:miter;stroke-opacity:1" />
      <path
         inkscape:connector-curvature="0"
         id="path4582-1"
         d="m 100.9067,76.09119 c -0.126,0.15749 -0.25697,0.311122 -0.37798,0.47247 -0.0681,0.09085 -0.11629,0.196237 -0.18899,0.283482 -0.0855,0.102661 -0.18899,0.188989 -0.28348,0.283483 -0.220488,0.220486 -0.440974,0.440972 -0.66146,0.661458 -0.09449,0.09449 -0.188987,0.188988 -0.283482,0.283482 -0.09449,0.09449 -0.174739,0.205809 -0.283482,0.283482 -0.114625,0.08188 -0.251984,0.125992 -0.377976,0.188988 -0.063,0.0315 -0.139186,0.04469 -0.188988,0.09449 -0.217161,0.217161 0.02449,0.188988 -0.188989,0.188988"
         style="fill:none;fill-rule:evenodd;stroke:#000000;stroke-width:0.26458332px;stroke-linecap:butt;stroke-linejoin:miter;stroke-opacity:1" />
      <path
         inkscape:connector-curvature="0"
         id="path4584-0"
         d="m 101.28141,78.812961 c -0.41598,0.353111 -0.99596,0.426015 -1.41415,0.774509 -0.303549,0.252957 -0.549932,0.592863 -0.850446,0.850446 -0.119576,0.102493 -0.266614,0.17212 -0.377976,0.283482 -0.0803,0.0803 -0.108684,0.203178 -0.188988,0.283483 -0.0498,0.0498 -0.130386,0.05542 -0.188988,0.09449 -0.03706,0.02471 -0.05465,0.07457 -0.09449,0.09449 -0.02817,0.01409 -0.063,0 -0.09449,0"
         style="fill:none;fill-rule:evenodd;stroke:#000000;stroke-width:0.26458332px;stroke-linecap:butt;stroke-linejoin:miter;stroke-opacity:1" />
      <path
         inkscape:connector-curvature="0"
         id="path4586-6"
         d="m 101.15775,80.916118 c -0.063,0.125993 -0.12599,0.251985 -0.18899,0.377977 -0.0315,0.0315 -0.0698,0.05743 -0.0945,0.09449 -0.0391,0.0586 -0.0522,0.132642 -0.0945,0.188988 -0.0534,0.07127 -0.13333,0.119421 -0.18898,0.188988 -0.24414,0.305171 -0.10419,0.244313 -0.37798,0.47247 -0.12099,0.100823 -0.266615,0.17212 -0.377977,0.283482 -0.111361,0.111363 -0.179773,0.259453 -0.283482,0.377976 -0.117332,0.134094 -0.260644,0.243883 -0.377975,0.377977 -1.191482,1.361692 0.409507,-0.396916 -0.472471,0.661458 -0.135933,0.16312 -0.318825,0.318825 -0.47247,0.47247"
         style="fill:none;fill-rule:evenodd;stroke:#000000;stroke-width:0.26458332px;stroke-linecap:butt;stroke-linejoin:miter;stroke-opacity:1" />
      <path
         inkscape:connector-curvature="0"
         id="path4588-1"
         d="m 101.31906,84.481183 c -0.32887,0.103083 -0.36162,0.456116 -0.56696,0.661458 -0.0803,0.08031 -0.18899,0.125992 -0.28348,0.188988 -0.0945,0.125992 -0.18099,0.258401 -0.28348,0.377976 -0.17394,0.202926 -0.411622,0.349478 -0.56697,0.566965 -0.08188,0.114625 -0.125991,0.251984 -0.188988,0.377976 -0.063,0.125992 -0.133499,0.248502 -0.188988,0.377976 -0.16287,0.380031 2.17e-4,0.188771 -0.188988,0.377976"
         style="fill:none;fill-rule:evenodd;stroke:#000000;stroke-width:0.26458332px;stroke-linecap:butt;stroke-linejoin:miter;stroke-opacity:1" />
      <path
         sodipodi:nodetypes="cccccccc"
         inkscape:connector-curvature="0"
         id="path4592-5"
         d="m 101.28141,87.968928 c -0.0757,0.121817 -0.93632,1.174277 -1.22516,1.463114 -0.0803,0.0803 -0.125994,0.188988 -0.18899,0.283482 -0.09449,0.063 -0.1948,0.118043 -0.283482,0.188988 -0.139135,0.111308 -0.225188,0.286303 -0.377975,0.377976 -0.08541,0.05125 -0.194393,0.04995 -0.283483,0.09449 -0.03984,0.01992 -0.05743,0.06978 -0.09449,0.09449 -0.343245,0.22883 -0.06682,-0.02767 -0.283482,0.188988"
         style="fill:none;fill-rule:evenodd;stroke:#000000;stroke-width:0.26458332px;stroke-linecap:butt;stroke-linejoin:miter;stroke-opacity:1" />
      <path
         inkscape:connector-curvature="0"
         id="path4594-9"
         d="m 101.32417,90.936877 c -0.0945,0.125992 -0.17212,0.266614 -0.28348,0.377976 -0.0498,0.0498 -0.13919,0.04469 -0.18899,0.09449 -0.0803,0.08031 -0.10868,0.203179 -0.18899,0.283483 -0.0498,0.0498 -0.13919,0.04469 -0.18899,0.09449 -0.0803,0.08031 -0.11628,0.196239 -0.18899,0.283482 -0.935423,1.122516 0.36847,-0.555551 -0.566957,0.566965 -0.0727,0.08725 -0.116284,0.196236 -0.188989,0.283483 -0.142584,0.1711 -0.31498,0.314981 -0.472469,0.472469 -0.0315,0.0315 -0.06978,0.05743 -0.09449,0.0945 -0.03907,0.0586 -0.063,0.125992 -0.09449,0.188984"
         style="fill:none;fill-rule:evenodd;stroke:#000000;stroke-width:0.26458332px;stroke-linecap:butt;stroke-linejoin:miter;stroke-opacity:1" />
      <path
         inkscape:connector-curvature="0"
         id="path4596-4"
         d="m 101.35149,93.75486 c -0.0945,0.125992 -0.18899,0.251984 -0.28348,0.377976 -0.063,0.063 -0.13196,0.120547 -0.18899,0.188989 -0.20165,0.241975 -0.36198,0.5168 -0.56697,0.755952 -0.087,0.101462 -0.18898,0.188989 -0.28348,0.283483 -0.12599,0.125992 -0.251982,0.251983 -0.377974,0.377975 -0.125992,0.125992 -0.243883,0.260644 -0.377976,0.377976 -0.118524,0.103709 -0.258401,0.180988 -0.377976,0.283483 -0.202927,0.173937 -0.377977,0.377976 -0.566965,0.566965 -0.01621,0.01622 -0.543864,0.520763 -0.566964,0.566962 -0.01409,0.02817 0.063,0 0.09449,0"
         style="fill:none;fill-rule:evenodd;stroke:#000000;stroke-width:0.26458332px;stroke-linecap:butt;stroke-linejoin:miter;stroke-opacity:1" />
      <path
         inkscape:connector-curvature="0"
         id="path4598-9"
         d="m 101.28467,96.690894 c -0.063,0.125989 -0.11651,0.257183 -0.18899,0.377973 -0.0407,0.06778 -0.34235,0.342355 -0.37797,0.377976 -0.0945,0.09449 -0.17658,0.203303 -0.28349,0.283485 -0.53734,0.403008 0.20067,-0.295156 -0.37797,0.28348 -0.18899,0.188989 -0.377978,0.377976 -0.566965,0.566965 -0.125993,0.125992 -0.238842,0.266668 -0.377977,0.377976 -0.08868,0.07095 -0.203178,0.108683 -0.283482,0.188989 -0.0803,0.08031 -0.116284,0.196236 -0.188988,0.28348 -0.08555,0.102661 -0.197931,0.180824 -0.283482,0.283485 -0.0727,0.08725 -0.116284,0.196236 -0.188989,0.28348 -0.08555,0.102657 -0.188988,0.188987 -0.283482,0.283487 -0.125992,0.12599 -0.251984,0.25198 -0.377976,0.37797"
         style="fill:none;fill-rule:evenodd;stroke:#000000;stroke-width:0.26458332px;stroke-linecap:butt;stroke-linejoin:miter;stroke-opacity:1" />
      <path
         inkscape:connector-curvature="0"
         id="path4600-0"
         d="m 101.28141,99.886775 c -1.1978,1.922355 -0.23605,0.446445 -0.94168,1.434325 -0.066,0.0924 -0.12298,0.19107 -0.18899,0.28348 -0.14739,0.20635 -0.35563,0.50296 -0.566962,0.66146 -0.146931,0.1102 -0.325539,0.17328 -0.47247,0.28348 -0.220486,0.16537 -0.440972,0.51447 -0.661458,0.66146 -0.141134,0.0941 -0.324194,0.10662 -0.472471,0.18899 -0.137671,0.0765 -0.246936,0.19612 -0.377976,0.28348 -0.152817,0.10188 -0.325539,0.17328 -0.47247,0.28348 -0.106908,0.0802 -0.180821,0.19794 -0.283482,0.28349 -0.07188,0.0599 -0.349477,0.24248 -0.47247,0.28348 -0.02988,0.01 -0.063,0 -0.09449,0"
         style="fill:none;fill-rule:evenodd;stroke:#000000;stroke-width:0.26458332px;stroke-linecap:butt;stroke-linejoin:miter;stroke-opacity:1" />
      <path
         inkscape:connector-curvature="0"
         id="path4602-9"
         d="m 101.26846,103.34363 c -0.0945,0.15749 -0.15361,0.3426 -0.28348,0.47248 -0.0704,0.0704 -0.20571,0.0323 -0.28348,0.0945 -0.0887,0.0709 -0.11629,0.19623 -0.18899,0.28348 -0.0856,0.10266 -0.18899,0.18898 -0.28349,0.28348 -0.18898,0.18898 -0.377971,0.37798 -0.56696,0.56696 -0.125992,0.126 -0.251985,0.25199 -0.377977,0.37798 -0.09449,0.0945 -0.180821,0.19793 -0.283482,0.28348 -0.08724,0.0727 -0.188988,0.12599 -0.283482,0.18899 -0.06097,0.0406 -0.356244,0.25443 -0.47247,0.28348 -0.06112,0.0153 -0.125992,0 -0.188988,0"
         style="fill:none;fill-rule:evenodd;stroke:#000000;stroke-width:0.26458332px;stroke-linecap:butt;stroke-linejoin:miter;stroke-opacity:1" />
      <path
         inkscape:connector-curvature="0"
         id="path4604-1"
         d="m 101.32954,106.60605 c -0.28709,0.55299 -0.64747,0.52381 -1.03943,0.85045 -0.10266,0.0855 -0.17474,0.20581 -0.28348,0.28348 -0.114628,0.0819 -0.254842,0.12058 -0.377979,0.18899 -0.160551,0.0892 -0.319653,0.1816 -0.472469,0.28348 -0.262081,0.17472 -0.48885,0.40002 -0.755954,0.56696 -0.119452,0.0747 -0.26077,0.11086 -0.377976,0.18899 -0.716372,0.47758 0.268258,-0.0396 -0.377976,0.28349"
         style="fill:none;fill-rule:evenodd;stroke:#000000;stroke-width:0.26458332px;stroke-linecap:butt;stroke-linejoin:miter;stroke-opacity:1" />
      <path
         sodipodi:nodetypes="csccccccccsc"
         inkscape:connector-curvature="0"
         id="path4606-7"
         d="m 101.28141,108.8757 c -0.60875,-0.0563 -0.55375,0.27991 -0.90827,0.49262 -0.0974,0.0584 -0.18899,0.12599 -0.28348,0.18899 -0.09449,0.063 -0.19624,0.11628 -0.283485,0.18899 -0.102661,0.0855 -0.180821,0.19793 -0.283482,0.28348 -0.08725,0.0727 -0.188988,0.12599 -0.283482,0.18899 -0.125991,0.0945 -0.258401,0.18099 -0.377977,0.28348 -0.169105,0.14495 -0.31498,0.31498 -0.47247,0.47247 -0.09449,0.0945 -0.200001,0.17913 -0.283482,0.28348 -0.044,0.055 -0.04469,0.13919 -0.09449,0.18899 -0.02227,0.0223 -0.09449,0.0315 -0.09449,0 0,-0.0315 0.063,0 0.09449,0"
         style="fill:none;fill-rule:evenodd;stroke:#000000;stroke-width:0.26458332px;stroke-linecap:butt;stroke-linejoin:miter;stroke-opacity:1" />
      <path
         inkscape:connector-curvature="0"
         id="path4489-3-3-7"
         d="M 90.857899,78.779562 V 89.071426 H 101.28141 V 78.534518 H 90.857899"
         style="fill:none;fill-rule:evenodd;stroke:#000000;stroke-width:0.2533437px;stroke-linecap:butt;stroke-linejoin:miter;stroke-opacity:1" />
      <path
         inkscape:connector-curvature="0"
         id="path4489-3-5-6-1"
         d="m 90.8579,89.316469 v 10.291864 h 10.42351 V 89.071425 H 90.8579"
         style="fill:none;fill-rule:evenodd;stroke:#000000;stroke-width:0.2533437px;stroke-linecap:butt;stroke-linejoin:miter;stroke-opacity:1" />
      <path
         inkscape:connector-curvature="0"
         id="path4489-3-6-1-15"
         d="m 90.8579,99.853377 v 10.291863 h 10.42351 V 99.608333 H 90.8579"
         style="fill:none;fill-rule:evenodd;stroke:#000000;stroke-width:0.2533437px;stroke-linecap:butt;stroke-linejoin:miter;stroke-opacity:1" />
    </g>
    <path
       style="opacity:0;fill:#ececec;fill-opacity:1;stroke:#000000;stroke-width:15.35714245;stroke-linecap:round;stroke-miterlimit:4;stroke-dasharray:none;stroke-dashoffset:0;stroke-opacity:1"
       d="m 87.79335,74.693498 v -5.102679 h 3.462239 c 3.185409,0 3.472516,0.01322 3.590774,0.165365 0.122414,0.15749 0.134655,0.15749 0.25707,0 0.111786,-0.143818 0.299551,-0.164759 1.441034,-0.160717 l 1.312499,0.0046 -0.614211,0.32328 c -0.6996,0.368224 -2.523848,2.033905 -2.416951,2.206867 0.03616,0.05851 0.103098,0.106391 0.148742,0.106391 0.04564,0 0.493387,-0.393332 0.994985,-0.87407 0.863982,-0.828053 1.2338,-1.095722 1.722071,-1.246412 0.208459,-0.06434 0.212612,-0.05058 0.212612,0.704349 0,0.765155 -0.0028,0.773989 -0.448847,1.414093 -0.246866,0.354271 -0.555153,0.717183 -0.685082,0.806472 -0.12993,0.08929 -0.533892,0.521207 -0.897694,0.959817 -0.363801,0.438609 -0.744142,0.880415 -0.8452,0.98179 -0.144749,0.145203 -0.159237,0.208824 -0.06827,0.299792 0.156386,0.156384 0.359081,0.0213 0.755427,-0.503433 0.172935,-0.228955 0.671814,-0.798983 1.108621,-1.266728 0.436806,-0.467746 0.857383,-0.935491 0.934614,-1.039435 0.126399,-0.170118 0.140721,-0.04552 0.143425,1.24785 0.0034,1.650069 0.03144,1.577141 -1.025954,2.673653 -0.58823,0.609995 -1.218957,1.692804 -1.099052,1.886815 0.124988,0.202234 0.257474,0.08062 0.504133,-0.462757 0.164631,-0.362675 0.495888,-0.810987 0.939113,-1.270966 l 0.684766,-0.710649 v 1.47339 1.47339 l -0.43253,0.506282 -0.43253,0.506281 H 92.416252 87.79335 Z"
       id="path4765-9"
       inkscape:connector-curvature="0" />
    <path
       style="opacity:0;fill:#ececec;fill-opacity:1;stroke:#000000;stroke-width:15.35714245;stroke-linecap:round;stroke-miterlimit:4;stroke-dasharray:none;stroke-dashoffset:0;stroke-opacity:1"
       d="m 87.939706,85.182337 v -5.102679 h 4.500038 c 4.232859,0 4.492337,0.0096 4.370349,0.161551 -0.22349,0.2784 -0.743854,0.712629 -1.052085,0.877935 -0.340649,0.182692 -0.431148,0.353972 -0.228181,0.431858 0.198188,0.07605 0.819982,-0.340083 1.421641,-0.951431 0.402483,-0.408966 0.574348,-0.519913 0.805386,-0.519913 h 0.293716 v 0.868577 0.868577 l -0.362692,0.338204 c -0.647335,0.603631 -2.011233,2.189396 -1.975437,2.296788 0.08336,0.250084 0.27468,0.120298 0.973179,-0.660183 0.408499,-0.456441 0.882727,-0.975179 1.053838,-1.152749 l 0.311112,-0.322855 v 1.154722 1.154724 l -0.505381,0.632791 c -0.27796,0.34803 -1.066475,1.160261 -1.752256,1.80495 -1.139923,1.071613 -1.382629,1.400511 -1.096902,1.486424 0.108686,0.03268 2.725635,-2.492589 3.097842,-2.989313 l 0.247822,-0.330729 0.0044,1.218298 0.0044,1.218295 -0.449283,0.435351 c -0.247105,0.23944 -0.865636,0.828677 -1.374515,1.309417 l -0.925232,0.87407 h -3.680843 -3.680916 z"
       id="path4767-7"
       inkscape:connector-curvature="0" />
    <path
       style="opacity:0;fill:#ececec;fill-opacity:1;stroke:#000000;stroke-width:15.35714245;stroke-linecap:round;stroke-miterlimit:4;stroke-dasharray:none;stroke-dashoffset:0;stroke-opacity:1"
       d="m 117.02697,62.841848 v -5.102679 h 3.46224 c 3.18541,0 3.47252,0.01322 3.59077,0.165365 0.12242,0.15749 0.13466,0.15749 0.25707,0 0.11179,-0.143818 0.29955,-0.164759 1.44104,-0.160717 l 1.3125,0.0046 -0.61421,0.32328 c -0.6996,0.368224 -2.52385,2.033905 -2.41696,2.206867 0.0362,0.05851 0.1031,0.106391 0.14875,0.106391 0.0456,0 0.49338,-0.393332 0.99498,-0.87407 0.86398,-0.828053 1.2338,-1.095722 1.72207,-1.246412 0.20846,-0.06434 0.21261,-0.05058 0.21261,0.704349 0,0.765155 -0.003,0.773989 -0.44884,1.414093 -0.24687,0.354271 -0.55516,0.717183 -0.68508,0.806472 -0.12993,0.08929 -0.5339,0.521207 -0.8977,0.959817 -0.3638,0.438609 -0.74414,0.880415 -0.8452,0.98179 -0.14475,0.145203 -0.15924,0.208824 -0.0683,0.299792 0.15639,0.156384 0.35908,0.0213 0.75543,-0.503433 0.17293,-0.228955 0.67181,-0.798983 1.10862,-1.266728 0.43681,-0.467746 0.85738,-0.935491 0.93461,-1.039435 0.1264,-0.170118 0.14072,-0.04552 0.14343,1.24785 0.003,1.650069 0.0314,1.577141 -1.02596,2.673653 -0.58823,0.609995 -1.21895,1.692804 -1.09905,1.886815 0.12499,0.202234 0.25748,0.08062 0.50414,-0.462757 0.16463,-0.362675 0.49588,-0.810987 0.93911,-1.270966 l 0.68476,-0.710649 v 1.47339 1.47339 l -0.43253,0.506282 -0.43253,0.506281 h -4.6229 -4.6229 z"
       id="path4765-4-8"
       inkscape:connector-curvature="0" />
    <ellipse
       style="opacity:1;fill:#ffdd55;fill-opacity:1;stroke:#000000;stroke-width:0.26371968;stroke-linecap:round;stroke-miterlimit:4;stroke-dasharray:none;stroke-dashoffset:0;stroke-opacity:1"
       id="path5236"
       cx="42.713837"
       cy="11.950216"
       rx="1.7621057"
       ry="1.5506531" />
    <ellipse
       style="opacity:1;fill:#ffdd55;fill-opacity:1;stroke:#000000;stroke-width:0.26371968;stroke-linecap:round;stroke-miterlimit:4;stroke-dasharray:none;stroke-dashoffset:0;stroke-opacity:1"
       id="path5236-0"
       cx="43.030392"
       cy="43.02713"
       rx="1.7621058"
       ry="1.5506532" />
    <ellipse
       style="opacity:1;fill:#ffff00;fill-opacity:1;stroke:#000000;stroke-width:0.26371968;stroke-linecap:round;stroke-miterlimit:4;stroke-dasharray:none;stroke-dashoffset:0;stroke-opacity:1"
       id="path5236-3"
       cx="43.030399"
       cy="53.826912"
       rx="1.7621058"
       ry="1.5506532" />
    <ellipse
       style="opacity:1;fill:#ffff00;fill-opacity:1;stroke:#000000;stroke-width:0.26371968;stroke-linecap:round;stroke-miterlimit:4;stroke-dasharray:none;stroke-dashoffset:0;stroke-opacity:1"
       id="path5236-04"
       cx="42.975597"
       cy="84.823799"
       rx="1.7621058"
       ry="1.5506532" />
    <ellipse
       style="opacity:1;fill:#ffff00;fill-opacity:1;stroke:#000000;stroke-width:0.26371968;stroke-linecap:round;stroke-miterlimit:4;stroke-dasharray:none;stroke-dashoffset:0;stroke-opacity:1"
       id="path5236-04-4"
       cx="43.127083"
       cy="97.107292"
       rx="1.7621058"
       ry="1.5506533" />
    <ellipse
       style="opacity:1;fill:#ffff00;fill-opacity:1;stroke:#000000;stroke-width:0.26371968;stroke-linecap:round;stroke-miterlimit:4;stroke-dasharray:none;stroke-dashoffset:0;stroke-opacity:1"
       id="path5236-04-44"
       cx="43.127083"
       cy="107.42604"
       rx="1.7621058"
       ry="1.5506533" />
    <ellipse
       style="opacity:1;fill:#ffff00;fill-opacity:1;stroke:#000000;stroke-width:0.26371968;stroke-linecap:round;stroke-miterlimit:4;stroke-dasharray:none;stroke-dashoffset:0;stroke-opacity:1"
       id="path5236-04-7"
       cx="43.391666"
       cy="117.87708"
       rx="1.7621058"
       ry="1.5506533" />
    <ellipse
       style="opacity:1;fill:#ffff00;fill-opacity:1;stroke:#000000;stroke-width:0.26371968;stroke-linecap:round;stroke-miterlimit:4;stroke-dasharray:none;stroke-dashoffset:0;stroke-opacity:1"
       id="path5236-04-6"
       cx="42.994789"
       cy="128.32812"
       rx="1.7621058"
       ry="1.5506533" />
    <ellipse
       style="opacity:1;fill:#0000ff;fill-opacity:1;stroke:#000000;stroke-width:0.26371968;stroke-linecap:round;stroke-miterlimit:4;stroke-dasharray:none;stroke-dashoffset:0;stroke-opacity:1"
       id="path5236-04-3"
       cx="74.612503"
       cy="22.362499"
       rx="1.7621058"
       ry="1.5506533" />
    <ellipse
       style="opacity:1;fill:#0000ff;fill-opacity:1;stroke:#000000;stroke-width:0.26371968;stroke-linecap:round;stroke-miterlimit:4;stroke-dasharray:none;stroke-dashoffset:0;stroke-opacity:1"
       id="path5236-04-1"
       cx="74.480209"
       cy="32.813541"
       rx="1.7621058"
       ry="1.5506533" />
    <ellipse
       style="opacity:1;fill:#00ff00;fill-opacity:1;stroke:#000000;stroke-width:0.26371968;stroke-linecap:round;stroke-miterlimit:4;stroke-dasharray:none;stroke-dashoffset:0;stroke-opacity:1"
       id="path5236-04-75"
       cx="74.744797"
       cy="11.646874"
       rx="1.7621058"
       ry="1.5506533" />
    <ellipse
       style="opacity:1;fill:#ff0000;fill-opacity:1;stroke:#000000;stroke-width:0.26371968;stroke-linecap:round;stroke-miterlimit:4;stroke-dasharray:none;stroke-dashoffset:0;stroke-opacity:1"
       id="path5236-04-9"
       cx="43.127083"
       cy="64.034378"
       rx="1.7621058"
       ry="1.5506533" />
    <ellipse
       style="opacity:1;fill:#ff0000;fill-opacity:1;stroke:#000000;stroke-width:0.26371968;stroke-linecap:round;stroke-miterlimit:4;stroke-dasharray:none;stroke-dashoffset:0;stroke-opacity:1"
       id="path5236-04-9-6"
       cx="43.127083"
       cy="74.48542"
       rx="1.7621058"
       ry="1.5506535" />
  </g>
</svg>
