<?xml version="1.0" encoding="UTF-8" standalone="no"?>
<!-- Created with Inkscape (http://www.inkscape.org/) -->

<svg
   xmlns:dc="http://purl.org/dc/elements/1.1/"
   xmlns:cc="http://creativecommons.org/ns#"
   xmlns:rdf="http://www.w3.org/1999/02/22-rdf-syntax-ns#"
   xmlns:svg="http://www.w3.org/2000/svg"
   xmlns="http://www.w3.org/2000/svg"
   xmlns:sodipodi="http://sodipodi.sourceforge.net/DTD/sodipodi-0.dtd"
   xmlns:inkscape="http://www.inkscape.org/namespaces/inkscape"
   width="744.09448819"
   height="1052.3622047"
   id="svg3092"
   version="1.1"
   inkscape:version="0.48.4 r9939"
   sodipodi:docname="LinearSurplusEvolution.svg">
  <defs
     id="defs3094" />
  <sodipodi:namedview
     id="base"
     pagecolor="#ffffff"
     bordercolor="#666666"
     borderopacity="1.0"
     inkscape:pageopacity="0.0"
     inkscape:pageshadow="2"
     inkscape:zoom="1.4"
     inkscape:cx="189.76252"
     inkscape:cy="745.53066"
     inkscape:document-units="px"
     inkscape:current-layer="layer1"
     showgrid="false"
     inkscape:window-width="1920"
     inkscape:window-height="1025"
     inkscape:window-x="1677"
     inkscape:window-y="-3"
     inkscape:window-maximized="1" />
  <metadata
     id="metadata3097">
    <rdf:RDF>
      <cc:Work
         rdf:about="">
        <dc:format>image/svg+xml</dc:format>
        <dc:type
           rdf:resource="http://purl.org/dc/dcmitype/StillImage" />
        <dc:title></dc:title>
      </cc:Work>
    </rdf:RDF>
  </metadata>
  <g
     inkscape:label="Layer 1"
     inkscape:groupmode="layer"
     id="layer1">
    <path
       style="fill:none;stroke:#000000;stroke-width:1px;stroke-linecap:butt;stroke-linejoin:miter;stroke-opacity:1"
       d="m 105.71429,86.647897 505.71428,0"
       id="path3100"
       inkscape:connector-curvature="0" />
    <path
       style="fill:none;stroke:#000000;stroke-width:1px;stroke-linecap:butt;stroke-linejoin:miter;stroke-opacity:1"
       d="m 115,80.93361 0,13.571429"
       id="path3108"
       inkscape:connector-curvature="0" />
    <path
       style="fill:none;stroke:#000000;stroke-width:1px;stroke-linecap:butt;stroke-linejoin:miter;stroke-opacity:1"
       d="m 579.85714,81.647896 0,12.857143"
       id="path3110"
       inkscape:connector-curvature="0" />
    <path
       style="fill:none;stroke:#000000;stroke-width:1px;stroke-linecap:butt;stroke-linejoin:miter;stroke-opacity:1"
       d="m 305.71429,82.362182 0,10.714285"
       id="path3114"
       inkscape:connector-curvature="0" />
    <path
       style="fill:none;stroke:#000000;stroke-width:1px;stroke-linecap:butt;stroke-linejoin:miter;stroke-opacity:1"
       d="m 210,82.362182 0,12.857142"
       id="path3116"
       inkscape:connector-curvature="0" />
    <path
       style="fill:none;stroke:#000000;stroke-width:1px;stroke-linecap:butt;stroke-linejoin:miter;stroke-opacity:1"
       d="m 399.28571,81.647896 0,12.142857"
       id="path3118"
       inkscape:connector-curvature="0" />
    <path
       style="fill:none;stroke:#000000;stroke-width:1px;stroke-linecap:butt;stroke-linejoin:miter;stroke-opacity:1"
       d="m 489.71429,82.362182 0,13.571428"
       id="path3120"
       inkscape:connector-curvature="0" />
    <path
       style="fill:none;stroke:#000000;stroke-width:1px;stroke-linecap:butt;stroke-linejoin:miter;stroke-opacity:1"
       d="m 105.71429,136.29076 505.71428,0"
       id="path3100-8"
       inkscape:connector-curvature="0" />
    <path
       style="fill:none;stroke:#000000;stroke-width:1px;stroke-linecap:butt;stroke-linejoin:miter;stroke-opacity:1"
       d="m 115,130.57647 0,13.57143"
       id="path3108-7"
       inkscape:connector-curvature="0" />
    <path
       style="fill:none;stroke:#000000;stroke-width:1px;stroke-linecap:butt;stroke-linejoin:miter;stroke-opacity:1"
       d="m 579.85714,131.29076 0,12.85714"
       id="path3110-2"
       inkscape:connector-curvature="0" />
    <path
       style="fill:none;stroke:#000000;stroke-width:1px;stroke-linecap:butt;stroke-linejoin:miter;stroke-opacity:1"
       d="m 305.71429,132.00504 0,10.71429"
       id="path3114-7"
       inkscape:connector-curvature="0" />
    <path
       style="fill:none;stroke:#000000;stroke-width:1px;stroke-linecap:butt;stroke-linejoin:miter;stroke-opacity:1"
       d="m 210,132.00504 0,12.85714"
       id="path3116-1"
       inkscape:connector-curvature="0" />
    <path
       style="fill:none;stroke:#000000;stroke-width:1px;stroke-linecap:butt;stroke-linejoin:miter;stroke-opacity:1"
       d="m 399.28571,131.29076 0,12.14285"
       id="path3118-5"
       inkscape:connector-curvature="0" />
    <path
       style="fill:none;stroke:#000000;stroke-width:1px;stroke-linecap:butt;stroke-linejoin:miter;stroke-opacity:1"
       d="m 489.71429,132.00504 0,13.57143"
       id="path3120-8"
       inkscape:connector-curvature="0" />
    <path
       style="fill:none;stroke:#000000;stroke-width:1px;stroke-linecap:butt;stroke-linejoin:miter;stroke-opacity:1"
       d="m 106.42858,186.29075 505.71428,0"
       id="path3100-86"
       inkscape:connector-curvature="0" />
    <path
       style="fill:none;stroke:#000000;stroke-width:1px;stroke-linecap:butt;stroke-linejoin:miter;stroke-opacity:1"
       d="m 115.71429,180.57647 0,13.57143"
       id="path3108-4"
       inkscape:connector-curvature="0" />
    <path
       style="fill:none;stroke:#000000;stroke-width:1px;stroke-linecap:butt;stroke-linejoin:miter;stroke-opacity:1"
       d="m 580.57143,181.29075 0,12.85715"
       id="path3110-25"
       inkscape:connector-curvature="0" />
    <path
       style="fill:none;stroke:#000000;stroke-width:1px;stroke-linecap:butt;stroke-linejoin:miter;stroke-opacity:1"
       d="m 306.42858,182.00504 0,10.71428"
       id="path3114-6"
       inkscape:connector-curvature="0" />
    <path
       style="fill:none;stroke:#000000;stroke-width:1px;stroke-linecap:butt;stroke-linejoin:miter;stroke-opacity:1"
       d="m 210.71429,182.00504 0,12.85714"
       id="path3116-8"
       inkscape:connector-curvature="0" />
    <path
       style="fill:none;stroke:#000000;stroke-width:1px;stroke-linecap:butt;stroke-linejoin:miter;stroke-opacity:1"
       d="m 400,181.29075 0,12.14286"
       id="path3118-1"
       inkscape:connector-curvature="0" />
    <path
       style="fill:none;stroke:#000000;stroke-width:1px;stroke-linecap:butt;stroke-linejoin:miter;stroke-opacity:1"
       d="m 490.42858,182.00504 0,13.57143"
       id="path3120-1"
       inkscape:connector-curvature="0" />
    <path
       style="fill:none;stroke:#000000;stroke-width:1px;stroke-linecap:butt;stroke-linejoin:miter;stroke-opacity:1"
       d="m 106.42858,238.43361 505.71428,0"
       id="path3100-2"
       inkscape:connector-curvature="0" />
    <path
       style="fill:none;stroke:#000000;stroke-width:1px;stroke-linecap:butt;stroke-linejoin:miter;stroke-opacity:1"
       d="m 115.71429,232.71932 0,13.57143"
       id="path3108-6"
       inkscape:connector-curvature="0" />
    <path
       style="fill:none;stroke:#000000;stroke-width:1px;stroke-linecap:butt;stroke-linejoin:miter;stroke-opacity:1"
       d="m 580.57143,233.43361 0,12.85714"
       id="path3110-9"
       inkscape:connector-curvature="0" />
    <path
       style="fill:none;stroke:#000000;stroke-width:1px;stroke-linecap:butt;stroke-linejoin:miter;stroke-opacity:1"
       d="m 306.42858,234.1479 0,10.71428"
       id="path3114-1"
       inkscape:connector-curvature="0" />
    <path
       style="fill:none;stroke:#000000;stroke-width:1px;stroke-linecap:butt;stroke-linejoin:miter;stroke-opacity:1"
       d="m 210.71429,234.1479 0,12.85714"
       id="path3116-2"
       inkscape:connector-curvature="0" />
    <path
       style="fill:none;stroke:#000000;stroke-width:1px;stroke-linecap:butt;stroke-linejoin:miter;stroke-opacity:1"
       d="m 400,233.43361 0,12.14286"
       id="path3118-3"
       inkscape:connector-curvature="0" />
    <path
       style="fill:none;stroke:#000000;stroke-width:1px;stroke-linecap:butt;stroke-linejoin:miter;stroke-opacity:1"
       d="m 490.42858,234.1479 0,13.57142"
       id="path3120-3"
       inkscape:connector-curvature="0" />
    <path
       style="fill:none;stroke:#000000;stroke-width:1px;stroke-linecap:butt;stroke-linejoin:miter;stroke-opacity:1"
       d="m 118.92857,388.25504 505.71428,0"
       id="path3100-0"
       inkscape:connector-curvature="0" />
    <path
       style="fill:none;stroke:#000000;stroke-width:1px;stroke-linecap:butt;stroke-linejoin:miter;stroke-opacity:1"
       d="m 128.21428,382.54075 0,13.57143"
       id="path3108-60"
       inkscape:connector-curvature="0" />
    <path
       style="fill:none;stroke:#000000;stroke-width:1px;stroke-linecap:butt;stroke-linejoin:miter;stroke-opacity:1"
       d="m 593.07142,383.25504 0,12.85714"
       id="path3110-8"
       inkscape:connector-curvature="0" />
    <path
       style="fill:none;stroke:#000000;stroke-width:1px;stroke-linecap:butt;stroke-linejoin:miter;stroke-opacity:1"
       d="m 318.92857,383.96932 0,10.71429"
       id="path3114-2"
       inkscape:connector-curvature="0" />
    <path
       style="fill:none;stroke:#000000;stroke-width:1px;stroke-linecap:butt;stroke-linejoin:miter;stroke-opacity:1"
       d="m 223.21428,383.96932 0,12.85715"
       id="path3116-29"
       inkscape:connector-curvature="0" />
    <path
       style="fill:none;stroke:#000000;stroke-width:1px;stroke-linecap:butt;stroke-linejoin:miter;stroke-opacity:1"
       d="m 412.49999,383.25504 0,12.14285"
       id="path3118-30"
       inkscape:connector-curvature="0" />
    <path
       style="fill:none;stroke:#000000;stroke-width:1px;stroke-linecap:butt;stroke-linejoin:miter;stroke-opacity:1"
       d="m 502.92857,383.96932 0,13.57143"
       id="path3120-6"
       inkscape:connector-curvature="0" />
    <path
       style="fill:none;stroke:#000000;stroke-width:1px;stroke-linecap:butt;stroke-linejoin:miter;stroke-opacity:1"
       d="m 118.92857,437.8979 505.71428,0"
       id="path3100-8-6"
       inkscape:connector-curvature="0" />
    <path
       style="fill:none;stroke:#000000;stroke-width:1px;stroke-linecap:butt;stroke-linejoin:miter;stroke-opacity:1"
       d="m 128.21428,432.18361 0,13.57143"
       id="path3108-7-7"
       inkscape:connector-curvature="0" />
    <path
       style="fill:none;stroke:#000000;stroke-width:1px;stroke-linecap:butt;stroke-linejoin:miter;stroke-opacity:1"
       d="m 593.07142,432.8979 0,12.85714"
       id="path3110-2-8"
       inkscape:connector-curvature="0" />
    <path
       style="fill:none;stroke:#000000;stroke-width:1px;stroke-linecap:butt;stroke-linejoin:miter;stroke-opacity:1"
       d="m 318.92857,433.61218 0,10.71429"
       id="path3114-7-3"
       inkscape:connector-curvature="0" />
    <path
       style="fill:none;stroke:#000000;stroke-width:1px;stroke-linecap:butt;stroke-linejoin:miter;stroke-opacity:1"
       d="m 223.21428,433.61218 0,12.85714"
       id="path3116-1-7"
       inkscape:connector-curvature="0" />
    <path
       style="fill:none;stroke:#000000;stroke-width:1px;stroke-linecap:butt;stroke-linejoin:miter;stroke-opacity:1"
       d="m 412.49999,432.8979 0,12.14285"
       id="path3118-5-8"
       inkscape:connector-curvature="0" />
    <path
       style="fill:none;stroke:#000000;stroke-width:1px;stroke-linecap:butt;stroke-linejoin:miter;stroke-opacity:1"
       d="m 502.92857,433.61218 0,13.57143"
       id="path3120-8-9"
       inkscape:connector-curvature="0" />
    <path
       style="fill:none;stroke:#000000;stroke-width:0.61798704px;stroke-linecap:butt;stroke-linejoin:miter;stroke-opacity:1"
       d="m 119.45185,488.58006 312.52487,0"
       id="path3100-86-2"
       inkscape:connector-curvature="0" />
    <path
       style="fill:none;stroke:#000000;stroke-width:0.61798704px;stroke-linecap:butt;stroke-linejoin:miter;stroke-opacity:1"
       d="m 125.1903,485.04871 0,8.38696"
       id="path3108-4-0"
       inkscape:connector-curvature="0" />
    <path
       style="fill:none;stroke:#000000;stroke-width:0.61798704px;stroke-linecap:butt;stroke-linejoin:miter;stroke-opacity:1"
       d="m 412.46598,485.49012 0,7.94555"
       id="path3110-25-4"
       inkscape:connector-curvature="0" />
    <path
       style="fill:none;stroke:#000000;stroke-width:0.61798704px;stroke-linecap:butt;stroke-linejoin:miter;stroke-opacity:1"
       d="m 243.04926,485.93155 0,6.62128"
       id="path3114-6-0"
       inkscape:connector-curvature="0" />
    <path
       style="fill:none;stroke:#000000;stroke-width:0.61798704px;stroke-linecap:butt;stroke-linejoin:miter;stroke-opacity:1"
       d="m 183.89907,485.93155 0,7.94554"
       id="path3116-8-1"
       inkscape:connector-curvature="0" />
    <path
       style="fill:none;stroke:#000000;stroke-width:0.61798704px;stroke-linecap:butt;stroke-linejoin:miter;stroke-opacity:1"
       d="m 300.87518,485.49012 0,7.50413"
       id="path3118-1-8"
       inkscape:connector-curvature="0" />
    <path
       style="fill:none;stroke:#000000;stroke-width:0.61798704px;stroke-linecap:butt;stroke-linejoin:miter;stroke-opacity:1"
       d="m 356.75887,485.93155 0,8.38696"
       id="path3120-1-2"
       inkscape:connector-curvature="0" />
    <path
       style="fill:none;stroke:#d40000;stroke-width:5;stroke-linecap:butt;stroke-linejoin:miter;stroke-opacity:1;stroke-miterlimit:4;stroke-dasharray:none;opacity:0.38429752000000000"
       d="m 551.42857,88.790754 c -5.00938,-0.826621 -9.94451,-2.324986 -15,-2.857143 -1.89429,-0.199399 -3.80952,0 -5.71428,0 -1.19048,0 -2.72964,-0.841794 -3.57143,0 -0.69416,0.694161 1.91322,0.444594 2.85714,0.714286 5.69338,1.62668 -1.9583,-0.05886 5,0.714286 1.20663,0.134069 2.37389,0.514696 3.57143,0.714285 0.23485,0.03914 0.50133,-0.106479 0.71428,0 0.30117,0.150585 1.05101,0.714286 0.71429,0.714286 -0.75292,0 -1.42857,-0.47619 -2.14286,-0.714286 -0.71428,-0.238095 -1.44378,-0.434657 -2.14285,-0.714285 -0.49432,-0.197728 -0.91207,-0.585161 -1.42858,-0.714286 -3.92193,-0.980484 1.18978,1.309174 -2.85714,-0.714286 -0.47619,-0.238095 -0.91207,-0.58516 -1.42857,-0.714286 -0.46197,-0.115493 -1.76529,0.336718 -1.42857,0 0.5324,-0.532397 1.44378,-0.434657 2.14286,-0.714285 0.49431,-0.197728 0.92349,-0.545927 1.42857,-0.714286 0.22587,-0.07529 0.95238,0 0.71428,0 -7.14285,0 -14.28571,0 -21.42857,0 -3.09524,0 -6.19047,0 -9.28571,0 -2.61905,0 -5.25832,-0.324853 -7.85715,0 -1.27228,0.159035 -2.35504,1.02311 -3.57142,1.428571 -0.50508,0.168359 1.10913,-0.288368 1.42857,-0.714285 3.0433,-4.057743 -3.22249,-0.470724 3.57143,-5 1.77192,-1.181283 3.83523,-1.854984 5.71428,-2.857143 1.69375,-0.903334 3.35397,-1.869525 5,-2.857143 1.92609,-1.155653 3.70524,-2.566904 5.71429,-3.571429 0.42591,-0.212958 1.42857,-0.47619 1.42857,0 0,2.763272 -3.1273,8.713383 -4.28572,10.714286 -7.14084,12.334184 -2.68092,3.686277 -11.42857,15.714286 -1.82591,2.510626 -2.95575,5.520853 -5,7.857143 -1.34873,1.54141 -3.55172,2.12315 -5,3.57143 -0.33671,0.33672 0,1.90476 0,1.42857 0,-4.14006 -0.39621,-0.17995 1.42857,-4.28571 1.22317,-2.75212 1.6988,-5.791409 2.85715,-8.571433 0.6143,-1.474331 1.63778,-2.770486 2.14285,-4.285714 3.55735,-10.672042 -1.89496,0.932784 2.14286,-7.142858"
       id="path3164"
       inkscape:connector-curvature="0" />
    <path
       style="fill:none;stroke:#d40000;stroke-width:5;stroke-linecap:butt;stroke-linejoin:miter;stroke-opacity:1;stroke-miterlimit:4;stroke-dasharray:none;opacity:0.38429752000000000"
       d="m 388.57143,86.647897 c -9.27581,2.318953 2.29061,-0.327231 -5,0.714286 -0.97183,0.138832 -1.88532,0.575453 -2.85714,0.714285 -0.70711,0.101016 -1.43829,-0.117428 -2.14286,0 -1.48536,0.24756 -2.80911,1.133251 -4.28572,1.428572 -0.93388,0.186777 -1.90476,0 -2.85714,0 -0.47619,0 -1.09185,0.336717 -1.42857,0 -1.051,-1.051003 1.14963,-2.578197 1.42857,-2.857143 0.2381,-0.238095 0.41312,-0.563701 0.71429,-0.714286 0.42688,-0.213439 1.42857,0.470208 1.42857,-0.714286 0,-0.238095 -0.50133,-0.106479 -0.71429,0 -0.76783,0.383918 -1.3975,1.002654 -2.14285,1.428572 -0.9245,0.528286 -1.92635,0.911462 -2.85715,1.428571 -1.21361,0.674229 -2.25435,1.703832 -3.57143,2.142857 -5.53752,1.845842 -8.03235,1.165374 -13.57142,2.142858 -1.93351,0.341207 -3.76607,1.185043 -5.71429,1.428571 -1.89005,0.236257 -3.80952,0 -5.71429,0 -0.95238,0 -1.91772,0.156571 -2.85714,0 -0.52515,-0.08753 -1.13325,-0.271304 -1.42857,-0.714286 -0.26414,-0.396214 0,-0.952381 0,-1.428571 0,-0.476191 -0.11549,-0.966599 0,-1.428572 0.12913,-0.516501 0.39485,-1.002653 0.71429,-1.428571 0.40406,-0.538748 1.02451,-0.889823 1.42857,-1.428571 0.63887,-0.851836 0.83793,-1.971181 1.42857,-2.857143 0.18678,-0.280166 0.47619,-0.952381 0.71428,-0.714286 0.2381,0.238095 -0.41311,0.563701 -0.71428,0.714286 -0.67344,0.336717 -1.45081,0.417694 -2.14286,0.714285 -0.9787,0.419443 -1.88412,0.996118 -2.85714,1.428572 -1.17167,0.520743 -2.42461,0.855162 -3.57143,1.428571 -1.24175,0.620877 -2.2824,1.627248 -3.57143,2.142857 -2.48613,0.994452 -5.2828,0.714286 -7.85714,0.714286 -1.19048,0 -2.38095,0 -3.57143,0 -1.19048,0 -2.38584,0.107781 -3.57143,0 -6.19518,-0.563198 -2.37023,-0.496784 -7.85714,-2.142857 -1.66492,-0.499475 -6.5057,-0.405787 -5.71429,-3.571429 0.28079,-1.12316 1.26711,-2.200332 2.14286,-2.857142 0.60391,-0.45293 2.85714,-1.049369 2.85714,-2.142858 0,-0.532397 -0.95238,0.476191 -1.42857,0.714286 -0.47619,0.238095 -0.98559,0.418965 -1.42857,0.714286 -1.32397,0.882644 -0.0655,0.714286 -1.42857,0.714286"
       id="path3934"
       inkscape:connector-curvature="0" />
    <path
       style="fill:none;stroke:#d40000;stroke-width:5;stroke-linecap:butt;stroke-linejoin:miter;stroke-opacity:1;stroke-miterlimit:4;stroke-dasharray:none;opacity:0.38429752000000000"
       d="m 121.42857,81.647897 c -0.23809,0.952381 0.2381,3.095238 -0.71428,2.857143 -0.95239,-0.238095 -0.25405,-2.695754 0.71428,-2.857143 1.36943,-0.228239 2.22456,1.80614 3.57143,2.142857 0.73044,0.182611 1.42857,-0.47619 2.14286,-0.714286 0.71428,-0.238095 1.44378,-0.434657 2.14285,-0.714285 0.50111,-0.200442 3.85447,-2.29107 4.28572,-1.428572 0.40955,0.819101 -2.63288,3.272411 -2.85714,3.571429 -0.31944,0.425917 -0.54593,0.923495 -0.71429,1.428571 -0.0753,0.225877 -0.22588,0.638994 0,0.714286 1.54234,0.514114 2.89188,-0.316046 4.28571,-0.714286 0.94392,-0.269691 1.9791,-0.27526 2.85715,-0.714286 1.06479,-0.532397 1.76927,-1.659358 2.85714,-2.142857 1.10941,-0.493073 2.3648,-0.580216 3.57143,-0.714285 0.94655,-0.105173 1.90476,0 2.85714,0 0.47619,0 1.00266,-0.212959 1.42857,0 0.21296,0.106479 0,0.47619 0,0.714285 0,0.476191 0,0.952381 0,1.428572 0,0.238095 0.0753,0.488408 0,0.714285 -0.16836,0.505077 -0.95238,0.952381 -0.71428,1.428572 0.21296,0.425918 0.95238,0 1.42857,0 0.95238,0 1.90476,0 2.85714,0 0.47619,0 0.96163,0.09339 1.42857,0 0.7383,-0.14766 1.42857,-0.476191 2.14286,-0.714286 2.2889,-0.762965 4.73802,-1.842252 7.14286,-2.142857 0.94502,-0.118128 1.91772,0.156571 2.85714,0 5.56347,-0.927245 -2.42124,-0.714286 2.85714,-0.714286 0.2381,0 0.71429,-0.238095 0.71429,0 0,0.578286 -0.88482,1.780354 -1.42857,2.142857 -0.44298,0.295321 -1.05211,0.337825 -1.42857,0.714286 -0.16836,0.168359 0.50132,0.10648 0.71428,0 0.30117,-0.150584 0.47619,-0.47619 0.71429,-0.714286 0.47619,0 0.97681,0.150585 1.42857,0 0.31944,-0.106479 0.43412,-0.527508 0.71428,-0.714285 0.44299,-0.295321 0.98559,-0.418965 1.42858,-0.714286 0.28016,-0.186777 0.41311,-0.563701 0.71428,-0.714286 0.21296,-0.106479 0.50133,0.10648 0.71429,0 0.30117,-0.150584 0.38762,-0.632619 0.71428,-0.714285 0.69296,-0.17324 1.42857,0 2.14286,0 1.90476,0 3.80952,0 5.71429,0 0.47619,0 0.96659,0.115493 1.42857,0 3.44924,-0.862312 -0.0354,-0.339443 2.14285,-1.428572 0.21296,-0.106479 0.47619,0 0.71429,0"
       id="path3936"
       inkscape:connector-curvature="0" />
    <path
       style="opacity:0.38429751;fill:none;stroke:#d40000;stroke-width:4.85010338;stroke-linecap:butt;stroke-linejoin:miter;stroke-miterlimit:4;stroke-opacity:1;stroke-dasharray:none"
       d="m 479.94445,139.23318 c -4.69577,-0.82975 -9.32194,-2.33378 -14.06093,-2.86795 -1.7757,-0.20015 -3.57103,0 -5.35655,0 -1.11595,0 -2.55875,-0.84497 -3.34784,0 -0.6507,0.69679 1.79345,0.44627 2.67827,0.71699 5.33695,1.63283 -1.8357,-0.0591 4.68698,0.71698 1.13109,0.13458 2.22528,0.51665 3.34784,0.71699 0.22015,0.0392 0.46995,-0.10688 0.66957,0 0.28231,0.15115 0.98521,0.71699 0.66957,0.71699 -0.70578,0 -1.33914,-0.478 -2.00871,-0.71699 -0.66956,-0.239 -1.35339,-0.4363 -2.0087,-0.71699 -0.46337,-0.19847 -0.85497,-0.58737 -1.33914,-0.71698 -3.6764,-0.98419 1.11529,1.31412 -2.67827,-0.71699 -0.44638,-0.239 -0.85497,-0.58737 -1.33914,-0.71699 -0.43305,-0.11593 -1.65477,0.33799 -1.33913,0 0.49907,-0.5344 1.35339,-0.43629 2.0087,-0.71698 0.46337,-0.19848 0.86568,-0.54799 1.33914,-0.71699 0.21173,-0.0756 0.89276,0 0.66956,0 -6.69567,0 -13.39136,0 -20.08705,0 -2.90146,0 -5.80292,0 -8.70438,0 -2.45509,0 -4.92913,-0.32608 -7.36526,0 -1.19263,0.15964 -2.2076,1.02698 -3.34783,1.43397 -0.47346,0.169 1.03969,-0.28945 1.33913,-0.71698 2.85278,-4.07308 -3.02074,-0.47251 3.34785,-5.01891 1.66099,-1.18574 3.59512,-1.862 5.35654,-2.86794 1.58771,-0.90676 3.14399,-1.8766 4.68698,-2.86795 1.8055,-1.16002 3.47327,-2.57661 5.35655,-3.58494 0.39924,-0.21375 1.33913,-0.47799 1.33913,0 0,2.77373 -2.93152,8.74634 -4.01741,10.75481 -6.6938,12.38081 -2.51309,3.70021 -10.7131,15.7737 -1.7116,2.52012 -2.7707,5.54173 -4.68697,7.88685 -1.2643,1.54724 -3.32937,2.13118 -4.68698,3.58494 -0.31563,0.33799 0,1.91196 0,1.43397 0,-4.15571 -0.37141,-0.18063 1.33913,-4.30191 1.1466,-2.76253 1.59245,-5.81331 2.67828,-8.60385 0.57585,-1.47991 1.53525,-2.78096 2.0087,-4.30192 3.33465,-10.71239 -1.77633,0.93632 2.00871,-7.16987"
       id="path3164-1"
       inkscape:connector-curvature="0" />
    <path
       style="opacity:0.38429751;fill:none;stroke:#d40000;stroke-width:4.85010338;stroke-linecap:butt;stroke-linejoin:miter;stroke-miterlimit:4;stroke-opacity:1;stroke-dasharray:none"
       d="m 375.14001,139.22508 c -8.6951,2.32772 2.14721,-0.32847 -4.68697,0.71698 -0.91099,0.13936 -1.76729,0.57763 -2.67827,0.71699 -0.66285,0.1014 -1.34825,-0.11787 -2.00871,0 -1.39237,0.2485 -2.63325,1.13754 -4.01742,1.43398 -0.87541,0.18748 -1.78551,0 -2.67827,0 -0.44638,0 -1.02349,0.33799 -1.33913,0 -0.98521,-1.05498 1.07765,-2.58795 1.33913,-2.86795 0.2232,-0.239 0.38726,-0.56584 0.66957,-0.71699 0.40016,-0.21425 1.33914,0.47199 1.33914,-0.71699 0,-0.23899 -0.46995,-0.10688 -0.66957,0 -0.71976,0.38537 -1.31001,1.00645 -2.0087,1.43398 -0.86662,0.53028 -1.80575,0.91491 -2.67828,1.43397 -1.13763,0.67678 -2.11322,1.71028 -3.34784,2.15096 -5.19085,1.85283 -7.52949,1.16978 -12.72179,2.15096 -1.81247,0.3425 -3.5303,1.18952 -5.35656,1.43397 -1.77172,0.23715 -3.57102,0 -5.35655,0 -0.89275,0 -1.79766,0.15716 -2.67827,0 -0.49227,-0.0878 -1.0623,-0.27232 -1.33913,-0.71698 -0.24761,-0.39772 0,-0.95598 0,-1.43397 0,-0.478 -0.10826,-0.97026 0,-1.43398 0.12104,-0.51846 0.37013,-1.00644 0.66957,-1.43397 0.37876,-0.54079 0.96037,-0.89319 1.33914,-1.43398 0.59887,-0.85505 0.78547,-1.97863 1.33913,-2.86794 0.17509,-0.28123 0.44638,-0.95598 0.66956,-0.71699 0.2232,0.239 -0.38724,0.56583 -0.66956,0.71699 -0.63128,0.33799 -1.35998,0.41927 -2.00871,0.71698 -0.91743,0.42104 -1.76616,0.99989 -2.67827,1.43398 -1.09832,0.52271 -2.27282,0.8584 -3.34784,1.43397 -1.16401,0.62322 -2.13951,1.6334 -3.34784,2.15096 -2.33049,0.99822 -4.95208,0.71699 -7.36525,0.71699 -1.11595,0 -2.23189,0 -3.34785,0 -1.11595,0 -2.23647,0.10819 -3.34784,0 -5.80733,-0.56533 -2.22184,-0.49866 -7.36525,-2.15096 -1.56069,-0.50136 -6.09841,-0.40732 -5.35655,-3.58494 0.26321,-1.12741 1.18779,-2.20865 2.00871,-2.86794 0.5661,-0.45465 2.67827,-1.05334 2.67827,-2.15097 0,-0.5344 -0.89276,0.478 -1.33913,0.717 -0.44638,0.23899 -0.92389,0.42054 -1.33914,0.71699 -1.24108,0.88597 -0.0614,0.71698 -1.33914,0.71698"
       id="path3934-4"
       inkscape:connector-curvature="0" />
    <path
       style="opacity:0.38429751;fill:none;stroke:#d40000;stroke-width:4.85010338;stroke-linecap:butt;stroke-linejoin:miter;stroke-miterlimit:4;stroke-opacity:1;stroke-dasharray:none"
       d="m 124.72146,134.20618 c -0.22319,0.95598 0.22319,3.10693 -0.66957,2.86794 -0.89276,-0.239 -0.23814,-2.70595 0.66957,-2.86794 1.28369,-0.22911 2.08529,1.81297 3.34784,2.15095 0.68471,0.1833 1.33913,-0.47799 2.00871,-0.71698 0.66956,-0.239 1.35339,-0.43631 2.00869,-0.71699 0.46974,-0.2012 3.61317,-2.29974 4.01742,-1.43397 0.38391,0.82219 -2.46805,3.28478 -2.67827,3.58493 -0.29944,0.42753 -0.51175,0.92698 -0.66957,1.43397 -0.0706,0.22674 -0.21174,0.64141 0,0.71699 1.44578,0.51606 2.71083,-0.31724 4.0174,-0.71699 0.88483,-0.27071 1.8552,-0.2763 2.67828,-0.71699 0.99813,-0.5344 1.65851,-1.66562 2.67827,-2.15095 1.03996,-0.49495 2.21676,-0.58242 3.34785,-0.71699 0.88729,-0.10557 1.78551,0 2.67827,0 0.44638,0 0.93989,-0.21377 1.33913,0 0.19963,0.10688 0,0.47799 0,0.71699 0,0.47799 0,0.95598 0,1.43397 0,0.23899 0.0706,0.49026 0,0.71698 -0.15782,0.50699 -0.89275,0.95598 -0.66956,1.43398 0.19963,0.42752 0.89276,0 1.33914,0 0.89275,0 1.78551,0 2.67827,0 0.44637,0 0.90142,0.0938 1.33913,0 0.69208,-0.14822 1.33914,-0.478 2.00871,-0.71699 2.1456,-0.76585 4.4414,-1.84921 6.69568,-2.15096 0.88586,-0.11858 1.79767,0.15716 2.67828,0 5.21517,-0.93075 -2.26966,-0.71698 2.67827,-0.71698 0.22319,0 0.66957,-0.239 0.66957,0 0,0.58046 -0.82943,1.78708 -1.33914,2.15095 -0.41524,0.29644 -0.98624,0.33911 -1.33913,0.71699 -0.15782,0.169 0.46993,0.10688 0.66956,0 0.28232,-0.15115 0.44638,-0.47799 0.66957,-0.71699 0.44638,0 0.91566,0.15116 1.33914,0 0.29944,-0.10688 0.40694,-0.52949 0.66956,-0.71698 0.41526,-0.29644 0.92389,-0.42055 1.33915,-0.71699 0.26262,-0.18748 0.38724,-0.56583 0.66956,-0.71698 0.19963,-0.10688 0.46994,0.10688 0.66957,0 0.28232,-0.15116 0.36335,-0.63501 0.66956,-0.71699 0.64958,-0.1739 1.33914,0 2.00871,0 1.78552,0 3.57103,0 5.35655,0 0.44638,0 0.90608,0.11592 1.33914,0 3.2333,-0.86557 -0.0332,-0.34073 2.0087,-1.43397 0.19962,-0.10689 0.44637,0 0.66957,0"
       id="path3936-2"
       inkscape:connector-curvature="0" />
    <path
       style="opacity:0.38429751;fill:none;stroke:#d40000;stroke-width:4.85010338;stroke-linecap:butt;stroke-linejoin:miter;stroke-miterlimit:4;stroke-opacity:1;stroke-dasharray:none"
       d="m 284.86593,139.23318 c -4.69577,-0.82975 -9.32194,-2.33378 -14.06093,-2.86795 -1.7757,-0.20015 -3.57103,0 -5.35655,0 -1.11595,0 -2.55875,-0.84497 -3.34784,0 -0.6507,0.69679 1.79345,0.44627 2.67827,0.71699 5.33695,1.63283 -1.8357,-0.0591 4.68698,0.71698 1.13109,0.13458 2.22528,0.51665 3.34784,0.71699 0.22015,0.0392 0.46995,-0.10688 0.66957,0 0.28231,0.15115 0.98521,0.71699 0.66957,0.71699 -0.70578,0 -1.33914,-0.478 -2.00871,-0.71699 -0.66956,-0.239 -1.35339,-0.4363 -2.0087,-0.71699 -0.46337,-0.19847 -0.85497,-0.58737 -1.33914,-0.71698 -3.6764,-0.98419 1.11529,1.31412 -2.67827,-0.71699 -0.44638,-0.239 -0.85497,-0.58737 -1.33914,-0.71699 -0.43305,-0.11593 -1.65477,0.33799 -1.33913,0 0.49907,-0.5344 1.35339,-0.43629 2.0087,-0.71698 0.46337,-0.19848 0.86568,-0.54799 1.33914,-0.71699 0.21173,-0.0756 0.89276,0 0.66956,0 -6.69567,0 -13.39136,0 -20.08705,0 -2.90146,0 -5.80292,0 -8.70438,0 -2.45509,0 -4.92913,-0.32608 -7.36526,0 -1.19263,0.15964 -2.2076,1.02698 -3.34783,1.43397 -0.47346,0.169 1.03969,-0.28945 1.33913,-0.71698 2.85278,-4.07308 -3.02074,-0.47251 3.34785,-5.01891 1.66099,-1.18574 3.59512,-1.862 5.35654,-2.86794 1.58771,-0.90676 3.14399,-1.8766 4.68698,-2.86795 1.8055,-1.16002 3.47327,-2.57661 5.35655,-3.58494 0.39924,-0.21375 1.33913,-0.47799 1.33913,0 0,2.77373 -2.93152,8.74634 -4.01741,10.75481 -6.6938,12.38081 -2.51309,3.70021 -10.7131,15.7737 -1.7116,2.52012 -2.7707,5.54173 -4.68697,7.88685 -1.2643,1.54724 -3.32937,2.13118 -4.68698,3.58494 -0.31563,0.33799 0,1.91196 0,1.43397 0,-4.15571 -0.37141,-0.18063 1.33913,-4.30191 1.1466,-2.76253 1.59245,-5.81331 2.67828,-8.60385 0.57585,-1.47991 1.53525,-2.78096 2.0087,-4.30192 3.33465,-10.71239 -1.77633,0.93632 2.00871,-7.16987"
       id="path3164-1-1"
       inkscape:connector-curvature="0" />
    <path
       style="opacity:0.38429751;fill:none;stroke:#d40000;stroke-width:4.85010338;stroke-linecap:butt;stroke-linejoin:miter;stroke-miterlimit:4;stroke-opacity:1;stroke-dasharray:none"
       d="m 236.01588,187.80461 c -4.69577,-0.82975 -9.32194,-2.33378 -14.06093,-2.86795 -1.7757,-0.20015 -3.57103,0 -5.35655,0 -1.11595,0 -2.55875,-0.84497 -3.34784,0 -0.6507,0.69679 1.79345,0.44627 2.67827,0.71699 5.33695,1.63283 -1.8357,-0.0591 4.68698,0.71698 1.13109,0.13458 2.22528,0.51665 3.34784,0.71699 0.22015,0.0392 0.46995,-0.10688 0.66957,0 0.28231,0.15115 0.98521,0.71699 0.66957,0.71699 -0.70578,0 -1.33914,-0.478 -2.00871,-0.71699 -0.66956,-0.239 -1.35339,-0.4363 -2.0087,-0.71699 -0.46337,-0.19847 -0.85497,-0.58737 -1.33914,-0.71698 -3.6764,-0.98419 1.11529,1.31412 -2.67827,-0.71699 -0.44638,-0.239 -0.85497,-0.58737 -1.33914,-0.71699 -0.43305,-0.11593 -1.65477,0.33799 -1.33913,0 0.49907,-0.5344 1.35339,-0.43629 2.0087,-0.71698 0.46337,-0.19848 0.86568,-0.54799 1.33914,-0.71699 0.21173,-0.0756 0.89276,0 0.66956,0 -6.69567,0 -13.39136,0 -20.08705,0 -2.90146,0 -5.80292,0 -8.70438,0 -2.45509,0 -4.92913,-0.32608 -7.36526,0 -1.19263,0.15964 -2.2076,1.02698 -3.34783,1.43397 -0.47346,0.169 1.03969,-0.28945 1.33913,-0.71698 2.85278,-4.07308 -3.02074,-0.47251 3.34785,-5.01891 1.66099,-1.18574 3.59512,-1.862 5.35654,-2.86794 1.58771,-0.90676 3.14399,-1.8766 4.68698,-2.86795 1.8055,-1.16002 3.47327,-2.57661 5.35655,-3.58494 0.39924,-0.21375 1.33913,-0.47799 1.33913,0 0,2.77373 -2.93152,8.74634 -4.01741,10.75481 -6.6938,12.38081 -2.51309,3.70021 -10.7131,15.7737 -1.7116,2.52012 -2.7707,5.54173 -4.68697,7.88685 -1.2643,1.54724 -3.32937,2.13118 -4.68698,3.58494 -0.31563,0.33799 0,1.91196 0,1.43397 0,-4.15571 -0.37141,-0.18063 1.33913,-4.30191 1.1466,-2.76253 1.59245,-5.81331 2.67828,-8.60385 0.57585,-1.47991 1.53525,-2.78096 2.0087,-4.30192 3.33465,-10.71239 -1.77633,0.93632 2.00871,-7.16987"
       id="path3164-1-6"
       inkscape:connector-curvature="0" />
    <path
       style="opacity:0.38429751;fill:none;stroke:#d40000;stroke-width:4.85010338;stroke-linecap:butt;stroke-linejoin:miter;stroke-miterlimit:4;stroke-opacity:1;stroke-dasharray:none"
       d="m 337.64001,184.93937 c -8.6951,2.32772 2.14721,-0.32847 -4.68697,0.71698 -0.91099,0.13936 -1.76729,0.57763 -2.67827,0.71699 -0.66285,0.1014 -1.34825,-0.11787 -2.00871,0 -1.39237,0.2485 -2.63325,1.13754 -4.01742,1.43398 -0.87541,0.18748 -1.78551,0 -2.67827,0 -0.44638,0 -1.02349,0.33799 -1.33913,0 -0.98521,-1.05498 1.07765,-2.58795 1.33913,-2.86795 0.2232,-0.239 0.38726,-0.56584 0.66957,-0.71699 0.40016,-0.21425 1.33914,0.47199 1.33914,-0.71699 0,-0.23899 -0.46995,-0.10688 -0.66957,0 -0.71976,0.38537 -1.31001,1.00645 -2.0087,1.43398 -0.86662,0.53028 -1.80575,0.91491 -2.67828,1.43397 -1.13763,0.67678 -2.11322,1.71028 -3.34784,2.15096 -5.19085,1.85283 -7.52949,1.16978 -12.72179,2.15096 -1.81247,0.3425 -3.5303,1.18952 -5.35656,1.43397 -1.77172,0.23715 -3.57102,0 -5.35655,0 -0.89275,0 -1.79766,0.15716 -2.67827,0 -0.49227,-0.0878 -1.0623,-0.27232 -1.33913,-0.71698 -0.24761,-0.39772 0,-0.95598 0,-1.43397 0,-0.478 -0.10826,-0.97026 0,-1.43398 0.12104,-0.51846 0.37013,-1.00644 0.66957,-1.43397 0.37876,-0.54079 0.96037,-0.89319 1.33914,-1.43398 0.59887,-0.85505 0.78547,-1.97863 1.33913,-2.86794 0.17509,-0.28123 0.44638,-0.95598 0.66956,-0.71699 0.2232,0.239 -0.38724,0.56583 -0.66956,0.71699 -0.63128,0.33799 -1.35998,0.41927 -2.00871,0.71698 -0.91743,0.42104 -1.76616,0.99989 -2.67827,1.43398 -1.09832,0.52271 -2.27282,0.8584 -3.34784,1.43397 -1.16401,0.62322 -2.13951,1.6334 -3.34784,2.15096 -2.33049,0.99822 -4.95208,0.71699 -7.36525,0.71699 -1.11595,0 -2.23189,0 -3.34785,0 -1.11595,0 -2.23647,0.10819 -3.34784,0 -5.80733,-0.56533 -2.22184,-0.49866 -7.36525,-2.15096 -1.56069,-0.50136 -6.09841,-0.40732 -5.35655,-3.58494 0.26321,-1.12741 1.18779,-2.20865 2.00871,-2.86794 0.5661,-0.45465 2.67827,-1.05334 2.67827,-2.15097 0,-0.5344 -0.89276,0.478 -1.33913,0.717 -0.44638,0.23899 -0.92389,0.42054 -1.33914,0.71699 -1.24108,0.88597 -0.0614,0.71698 -1.33914,0.71698"
       id="path3934-4-4"
       inkscape:connector-curvature="0" />
    <path
       style="opacity:0.38429751;fill:none;stroke:#d40000;stroke-width:4.85010338;stroke-linecap:butt;stroke-linejoin:miter;stroke-miterlimit:4;stroke-opacity:1;stroke-dasharray:none"
       d="m 124.36432,184.92047 c -0.22319,0.95598 0.22319,3.10693 -0.66957,2.86794 -0.89276,-0.239 -0.23814,-2.70595 0.66957,-2.86794 1.28369,-0.22911 2.08529,1.81297 3.34784,2.15095 0.68471,0.1833 1.33913,-0.47799 2.00871,-0.71698 0.66956,-0.239 1.35339,-0.43631 2.00869,-0.71699 0.46974,-0.2012 3.61317,-2.29974 4.01742,-1.43397 0.38391,0.82219 -2.46805,3.28478 -2.67827,3.58493 -0.29944,0.42753 -0.51175,0.92698 -0.66957,1.43397 -0.0706,0.22674 -0.21174,0.64141 0,0.71699 1.44578,0.51606 2.71083,-0.31724 4.0174,-0.71699 0.88483,-0.27071 1.8552,-0.2763 2.67828,-0.71699 0.99813,-0.5344 1.65851,-1.66562 2.67827,-2.15095 1.03996,-0.49495 2.21676,-0.58242 3.34785,-0.71699 0.88729,-0.10557 1.78551,0 2.67827,0 0.44638,0 0.93989,-0.21377 1.33913,0 0.19963,0.10688 0,0.47799 0,0.71699 0,0.47799 0,0.95598 0,1.43397 0,0.23899 0.0706,0.49026 0,0.71698 -0.15782,0.50699 -0.89275,0.95598 -0.66956,1.43398 0.19963,0.42752 0.89276,0 1.33914,0 0.89275,0 1.78551,0 2.67827,0 0.44637,0 0.90142,0.0938 1.33913,0 0.69208,-0.14822 1.33914,-0.478 2.00871,-0.71699 2.1456,-0.76585 4.4414,-1.84921 6.69568,-2.15096 0.88586,-0.11858 1.79767,0.15716 2.67828,0 5.21517,-0.93075 -2.26966,-0.71698 2.67827,-0.71698 0.22319,0 0.66957,-0.239 0.66957,0 0,0.58046 -0.82943,1.78708 -1.33914,2.15095 -0.41524,0.29644 -0.98624,0.33911 -1.33913,0.71699 -0.15782,0.169 0.46993,0.10688 0.66956,0 0.28232,-0.15115 0.44638,-0.47799 0.66957,-0.71699 0.44638,0 0.91566,0.15116 1.33914,0 0.29944,-0.10688 0.40694,-0.52949 0.66956,-0.71698 0.41526,-0.29644 0.92389,-0.42055 1.33915,-0.71699 0.26262,-0.18748 0.38724,-0.56583 0.66956,-0.71698 0.19963,-0.10688 0.46994,0.10688 0.66957,0 0.28232,-0.15116 0.36335,-0.63501 0.66956,-0.71699 0.64958,-0.1739 1.33914,0 2.00871,0 1.78552,0 3.57103,0 5.35655,0 0.44638,0 0.90608,0.11592 1.33914,0 3.2333,-0.86557 -0.0332,-0.34073 2.0087,-1.43397 0.19962,-0.10689 0.44637,0 0.66957,0"
       id="path3936-2-0"
       inkscape:connector-curvature="0" />
    <path
       style="opacity:0.38429751;fill:none;stroke:#d40000;stroke-width:4.85010338;stroke-linecap:butt;stroke-linejoin:miter;stroke-miterlimit:4;stroke-opacity:1;stroke-dasharray:none"
       d="m 284.50879,189.94747 c -4.69577,-0.82975 -9.32194,-2.33378 -14.06093,-2.86795 -1.7757,-0.20015 -3.57103,0 -5.35655,0 -1.11595,0 -2.55875,-0.84497 -3.34784,0 -0.6507,0.69679 1.79345,0.44627 2.67827,0.71699 5.33695,1.63283 -1.8357,-0.0591 4.68698,0.71698 1.13109,0.13458 2.22528,0.51665 3.34784,0.71699 0.22015,0.0392 0.46995,-0.10688 0.66957,0 0.28231,0.15115 0.98521,0.71699 0.66957,0.71699 -0.70578,0 -1.33914,-0.478 -2.00871,-0.71699 -0.66956,-0.239 -1.35339,-0.4363 -2.0087,-0.71699 -0.46337,-0.19847 -0.85497,-0.58737 -1.33914,-0.71698 -3.6764,-0.98419 1.11529,1.31412 -2.67827,-0.71699 -0.44638,-0.239 -0.85497,-0.58737 -1.33914,-0.71699 -0.43305,-0.11593 -1.65477,0.33799 -1.33913,0 0.49907,-0.5344 1.35339,-0.43629 2.0087,-0.71698 0.46337,-0.19848 0.86568,-0.54799 1.33914,-0.71699 0.21173,-0.0756 0.89276,0 0.66956,0 -6.69567,0 -13.39136,0 -20.08705,0 -2.90146,0 -5.80292,0 -8.70438,0 -2.45509,0 -4.92913,-0.32608 -7.36526,0 -1.19263,0.15964 -2.2076,1.02698 -3.34783,1.43397 -0.47346,0.169 1.03969,-0.28945 1.33913,-0.71698 2.85278,-4.07308 -3.02074,-0.47251 3.34785,-5.01891 1.66099,-1.18574 3.59512,-1.862 5.35654,-2.86794 1.58771,-0.90676 3.14399,-1.8766 4.68698,-2.86795 1.8055,-1.16002 3.47327,-2.57661 5.35655,-3.58494 0.39924,-0.21375 1.33913,-0.47799 1.33913,0 0,2.77373 -2.93152,8.74634 -4.01741,10.75481 -6.6938,12.38081 -2.51309,3.70021 -10.7131,15.7737 -1.7116,2.52012 -2.7707,5.54173 -4.68697,7.88685 -1.2643,1.54724 -3.32937,2.13118 -4.68698,3.58494 -0.31563,0.33799 0,1.91196 0,1.43397 0,-4.15571 -0.37141,-0.18063 1.33913,-4.30191 1.1466,-2.76253 1.59245,-5.81331 2.67828,-8.60385 0.57585,-1.47991 1.53525,-2.78096 2.0087,-4.30192 3.33465,-10.71239 -1.77633,0.93632 2.00871,-7.16987"
       id="path3164-1-1-2"
       inkscape:connector-curvature="0" />
    <path
       style="fill:none;stroke:#000000;stroke-width:0.61524928px;stroke-linecap:butt;stroke-linejoin:miter;stroke-opacity:1"
       d="m 109.80762,219.82974 309.67047,0"
       id="path3100-2-4"
       inkscape:connector-curvature="0" />
    <path
       style="fill:none;stroke:#000000;stroke-width:0.61524928px;stroke-linecap:butt;stroke-linejoin:miter;stroke-opacity:1"
       d="m 115.49366,216.29735 0,8.38944"
       id="path3108-6-7"
       inkscape:connector-curvature="0" />
    <path
       style="fill:none;stroke:#000000;stroke-width:0.61524928px;stroke-linecap:butt;stroke-linejoin:miter;stroke-opacity:1"
       d="m 400.14554,216.7389 0,7.94789"
       id="path3110-9-0"
       inkscape:connector-curvature="0" />
    <path
       style="fill:none;stroke:#000000;stroke-width:0.61524928px;stroke-linecap:butt;stroke-linejoin:miter;stroke-opacity:1"
       d="m 232.27617,217.18045 0,6.62325"
       id="path3114-1-4"
       inkscape:connector-curvature="0" />
    <path
       style="fill:none;stroke:#000000;stroke-width:0.61524928px;stroke-linecap:butt;stroke-linejoin:miter;stroke-opacity:1"
       d="m 173.66622,217.18045 0,7.9479"
       id="path3116-2-5"
       inkscape:connector-curvature="0" />
    <path
       style="fill:none;stroke:#000000;stroke-width:0.61524928px;stroke-linecap:butt;stroke-linejoin:miter;stroke-opacity:1"
       d="m 289.57394,216.7389 0,7.50635"
       id="path3118-3-3"
       inkscape:connector-curvature="0" />
    <path
       style="fill:none;stroke:#000000;stroke-width:0.61524928px;stroke-linecap:butt;stroke-linejoin:miter;stroke-opacity:1"
       d="m 344.94723,217.18045 0,8.38944"
       id="path3120-3-1"
       inkscape:connector-curvature="0" />
    <path
       style="fill:none;stroke:#000000;stroke-width:0.41554821px;stroke-linecap:butt;stroke-linejoin:miter;stroke-opacity:1"
       d="m 110.7792,258.75946 209.15588,0"
       id="path3100-2-4-3"
       inkscape:connector-curvature="0" />
    <path
       style="fill:none;stroke:#000000;stroke-width:0.41554821px;stroke-linecap:butt;stroke-linejoin:miter;stroke-opacity:1"
       d="m 114.61963,256.37364 0,5.66634"
       id="path3108-6-7-4"
       inkscape:connector-curvature="0" />
    <path
       style="fill:none;stroke:#000000;stroke-width:0.41554821px;stroke-linecap:butt;stroke-linejoin:miter;stroke-opacity:1"
       d="m 306.8776,256.67187 0,5.36811"
       id="path3110-9-0-5"
       inkscape:connector-curvature="0" />
    <path
       style="fill:none;stroke:#000000;stroke-width:0.41554821px;stroke-linecap:butt;stroke-linejoin:miter;stroke-opacity:1"
       d="m 193.49622,256.9701 0,4.47343"
       id="path3114-1-4-6"
       inkscape:connector-curvature="0" />
    <path
       style="fill:none;stroke:#000000;stroke-width:0.41554821px;stroke-linecap:butt;stroke-linejoin:miter;stroke-opacity:1"
       d="m 153.91022,256.9701 0,5.36812"
       id="path3116-2-5-0"
       inkscape:connector-curvature="0" />
    <path
       style="fill:none;stroke:#000000;stroke-width:0.41554821px;stroke-linecap:butt;stroke-linejoin:miter;stroke-opacity:1"
       d="m 232.19596,256.67187 0,5.06989"
       id="path3118-3-3-6"
       inkscape:connector-curvature="0" />
    <path
       style="fill:none;stroke:#000000;stroke-width:0.41554821px;stroke-linecap:butt;stroke-linejoin:miter;stroke-opacity:1"
       d="m 269.59587,256.9701 0,5.66634"
       id="path3120-3-1-9"
       inkscape:connector-curvature="0" />
    <path
       style="opacity:0.38429751;fill:none;stroke:#008000;stroke-width:6.16197872;stroke-linecap:butt;stroke-linejoin:miter;stroke-miterlimit:4;stroke-opacity:1;stroke-dasharray:none"
       d="m 570.71709,394.26569 c -7.83799,-0.80239 -15.5598,-2.25684 -23.46993,-2.7734 -2.96392,-0.19355 -5.96061,0 -8.94092,0 -1.8627,0 -4.27096,-0.81712 -5.58808,0 -1.08613,0.67382 2.99354,0.43156 4.47046,0.69335 8.90822,1.579 -3.06408,-0.0572 7.82331,0.69335 1.88797,0.13014 3.71434,0.4996 5.58808,0.69334 0.36746,0.038 0.78441,-0.10336 1.11761,0 0.47123,0.14618 1.64447,0.69336 1.11762,0.69336 -1.17807,0 -2.23523,-0.46224 -3.35285,-0.69336 -1.11761,-0.23111 -2.25903,-0.42191 -3.35284,-0.69334 -0.77344,-0.19193 -1.42708,-0.56801 -2.23524,-0.69335 -6.1365,-0.95174 1.8616,1.2708 -4.47046,-0.69335 -0.74508,-0.23112 -1.42708,-0.568 -2.23523,-0.69335 -0.72283,-0.1121 -2.76208,0.32685 -2.23523,0 0.83303,-0.51679 2.25903,-0.42192 3.35285,-0.69334 0.77343,-0.19194 1.44495,-0.52993 2.23523,-0.69336 0.35341,-0.0731 1.49015,0 1.11761,0 -11.17615,0 -22.35231,0 -33.52847,0 -4.84301,0 -9.686,0 -14.529,0 -4.09793,0 -8.2275,-0.31532 -12.29379,0 -1.99069,0.15437 -3.68484,0.99313 -5.58806,1.3867 -0.79028,0.16343 1.73541,-0.27992 2.23523,-0.69334 4.76173,-3.93881 -5.04211,-0.45693 5.58808,-4.85344 2.77245,-1.14667 6.00084,-1.80062 8.94092,-2.77341 2.65014,-0.87685 5.24783,-1.81472 7.82331,-2.77339 3.01368,-1.12177 5.79744,-2.49166 8.94093,-3.46674 0.6664,-0.20672 2.23523,-0.46224 2.23523,0 0,2.68227 -4.89317,8.45797 -6.70571,10.40023 -11.173,11.97265 -4.19473,3.57822 -17.88185,15.25367 -2.85693,2.43704 -4.62475,5.35904 -7.82331,7.62685 -2.1103,1.49622 -5.55724,2.06091 -7.82331,3.46674 -0.52683,0.32685 0,1.84893 0,1.3867 0,-4.01871 -0.61993,-0.17468 2.23523,-4.16009 1.91385,-2.67145 2.65805,-5.62166 4.47048,-8.3202 0.96117,-1.43111 2.56257,-2.68927 3.35283,-4.16009 5.56605,-10.35922 -2.96497,0.90544 3.35285,-6.93349"
       id="path3164-0"
       inkscape:connector-curvature="0" />
    <path
       style="opacity:0.38429751000000001;fill:none;stroke:#008000;stroke-width:5;stroke-linecap:butt;stroke-linejoin:miter;stroke-miterlimit:4;stroke-opacity:1;stroke-dasharray:none"
       d="m 408.44094,392.09403 c -9.27581,2.31896 2.29061,-0.32723 -5,0.71429 -0.97183,0.13883 -1.88532,0.57545 -2.85714,0.71428 -0.70711,0.10102 -1.43829,-0.11742 -2.14286,0 -1.48536,0.24756 -2.80911,1.13325 -4.28572,1.42858 -0.93388,0.18677 -1.90476,0 -2.85714,0 -0.47619,0 -1.09185,0.33671 -1.42857,0 -1.051,-1.05101 1.14963,-2.5782 1.42857,-2.85715 0.2381,-0.23809 0.41312,-0.5637 0.71429,-0.71428 0.42688,-0.21344 1.42857,0.4702 1.42857,-0.71429 0,-0.23809 -0.50133,-0.10648 -0.71429,0 -0.76783,0.38392 -1.3975,1.00265 -2.14285,1.42857 -0.9245,0.52829 -1.92635,0.91146 -2.85715,1.42857 -1.21361,0.67423 -2.25435,1.70384 -3.57143,2.14286 -5.53752,1.84584 -8.03235,1.16537 -13.57142,2.14286 -1.93351,0.34121 -3.76607,1.18504 -5.71429,1.42857 -1.89005,0.23626 -3.80952,0 -5.71429,0 -0.95238,0 -1.91772,0.15657 -2.85714,0 -0.52515,-0.0875 -1.13325,-0.2713 -1.42857,-0.71429 -0.26414,-0.39621 0,-0.95238 0,-1.42857 0,-0.47619 -0.11549,-0.9666 0,-1.42857 0.12913,-0.5165 0.39485,-1.00265 0.71429,-1.42857 0.40406,-0.53875 1.02451,-0.88982 1.42857,-1.42857 0.63887,-0.85184 0.83793,-1.97118 1.42857,-2.85714 0.18678,-0.28017 0.47619,-0.95239 0.71428,-0.71429 0.2381,0.23809 -0.41311,0.5637 -0.71428,0.71429 -0.67344,0.33671 -1.45081,0.41769 -2.14286,0.71428 -0.9787,0.41944 -1.88412,0.99612 -2.85714,1.42857 -1.17167,0.52075 -2.42461,0.85516 -3.57143,1.42857 -1.24175,0.62088 -2.2824,1.62725 -3.57143,2.14286 -2.48613,0.99445 -5.2828,0.71429 -7.85714,0.71429 -1.19048,0 -2.38095,0 -3.57143,0 -1.19048,0 -2.38584,0.10778 -3.57143,0 -6.19518,-0.5632 -2.37023,-0.49679 -7.85714,-2.14286 -1.66492,-0.49948 -6.5057,-0.40579 -5.71429,-3.57143 0.28079,-1.12316 1.26711,-2.20033 2.14286,-2.85714 0.60391,-0.45293 2.85714,-1.04937 2.85714,-2.14286 0,-0.5324 -0.95238,0.47619 -1.42857,0.71429 -0.47619,0.23809 -0.98559,0.41896 -1.42857,0.71428 -1.32397,0.88265 -0.0655,0.71429 -1.42857,0.71429"
       id="path3934-0"
       inkscape:connector-curvature="0" />
    <path
       style="opacity:0.38429751000000001;fill:none;stroke:#008000;stroke-width:5;stroke-linecap:butt;stroke-linejoin:miter;stroke-miterlimit:4;stroke-opacity:1;stroke-dasharray:none"
       d="m 141.29808,387.09403 c -0.23809,0.95238 0.2381,3.09524 -0.71428,2.85715 -0.95239,-0.2381 -0.25405,-2.69576 0.71428,-2.85715 1.36943,-0.22824 2.22456,1.80614 3.57143,2.14286 0.73044,0.18261 1.42857,-0.47619 2.14286,-0.71429 0.71428,-0.23809 1.44378,-0.43465 2.14285,-0.71428 0.50111,-0.20044 3.85447,-2.29107 4.28572,-1.42857 0.40955,0.8191 -2.63288,3.27241 -2.85714,3.57143 -0.31944,0.42591 -0.54593,0.92349 -0.71429,1.42857 -0.0753,0.22587 -0.22588,0.63899 0,0.71428 1.54234,0.51412 2.89188,-0.31604 4.28571,-0.71428 0.94392,-0.26969 1.9791,-0.27526 2.85715,-0.71429 1.06479,-0.5324 1.76927,-1.65936 2.85714,-2.14286 1.10941,-0.49307 2.3648,-0.58021 3.57143,-0.71428 0.94655,-0.10517 1.90476,0 2.85714,0 0.47619,0 1.00266,-0.21296 1.42857,0 0.21296,0.10648 0,0.47619 0,0.71428 0,0.47619 0,0.95238 0,1.42858 0,0.23809 0.0753,0.4884 0,0.71428 -0.16836,0.50508 -0.95238,0.95238 -0.71428,1.42857 0.21296,0.42592 0.95238,0 1.42857,0 0.95238,0 1.90476,0 2.85714,0 0.47619,0 0.96163,0.0934 1.42857,0 0.7383,-0.14766 1.42857,-0.47619 2.14286,-0.71428 2.2889,-0.76297 4.73802,-1.84226 7.14286,-2.14286 0.94502,-0.11813 1.91772,0.15657 2.85714,0 5.56347,-0.92725 -2.42124,-0.71429 2.85714,-0.71429 0.2381,0 0.71429,-0.23809 0.71429,0 0,0.57829 -0.88482,1.78036 -1.42857,2.14286 -0.44298,0.29532 -1.05211,0.33783 -1.42857,0.71429 -0.16836,0.16836 0.50132,0.10648 0.71428,0 0.30117,-0.15059 0.47619,-0.47619 0.71429,-0.71429 0.47619,0 0.97681,0.15059 1.42857,0 0.31944,-0.10648 0.43412,-0.52751 0.71428,-0.71428 0.44299,-0.29533 0.98559,-0.41897 1.42858,-0.71429 0.28016,-0.18678 0.41311,-0.5637 0.71428,-0.71429 0.21296,-0.10648 0.50133,0.10648 0.71429,0 0.30117,-0.15058 0.38762,-0.63262 0.71428,-0.71428 0.69296,-0.17324 1.42857,0 2.14286,0 1.90476,0 3.80952,0 5.71429,0 0.47619,0 0.96659,0.11549 1.42857,0 3.44924,-0.86231 -0.0354,-0.33944 2.14285,-1.42857 0.21296,-0.10648 0.47619,0 0.71429,0"
       id="path3936-27"
       inkscape:connector-curvature="0" />
    <path
       style="opacity:0.38429751;fill:none;stroke:#008000;stroke-width:3.76095462;stroke-linecap:butt;stroke-linejoin:miter;stroke-miterlimit:4;stroke-opacity:1;stroke-dasharray:none"
       d="m 569.06045,441.34904 c -2.74836,-0.85245 -5.45598,-2.39766 -8.22964,-2.94644 -1.03929,-0.20563 -2.09007,0 -3.1351,0 -0.65315,0 -1.4976,-0.86811 -1.95944,0 -0.38085,0.71586 1.04967,0.45849 1.56755,0.73661 3.12363,1.67752 -1.07441,-0.0607 2.74321,0.73661 0.66201,0.13826 1.30242,0.53078 1.95944,0.73661 0.12885,0.0403 0.27505,-0.10981 0.39189,0 0.16523,0.15529 0.57663,0.73661 0.39189,0.73661 -0.41309,0 -0.78378,-0.49107 -1.17567,-0.73661 -0.39188,-0.24553 -0.79212,-0.44824 -1.17566,-0.73661 -0.2712,-0.20391 -0.5004,-0.60345 -0.78378,-0.73661 -2.15174,-1.01113 0.65277,1.3501 -1.56755,-0.73661 -0.26126,-0.24554 -0.5004,-0.60345 -0.78377,-0.73661 -0.25346,-0.1191 -0.96852,0.34724 -0.78378,0 0.2921,-0.54904 0.79212,-0.44825 1.17567,-0.73661 0.2712,-0.20391 0.50666,-0.56299 0.78377,-0.73661 0.12392,-0.0777 0.52252,0 0.39189,0 -3.91888,0 -7.83776,0 -11.75664,0 -1.69818,0 -3.39636,0 -5.09454,0 -1.43692,0 -2.88494,-0.33501 -4.31077,0 -0.69803,0.164 -1.29207,1.05508 -1.95943,1.47322 -0.27711,0.17362 0.60851,-0.29739 0.78377,-0.73661 1.66969,-4.18458 -1.76799,-0.48544 1.95944,-5.15628 0.97215,-1.21821 2.10417,-1.91297 3.1351,-2.94645 0.92927,-0.93156 1.84013,-1.92795 2.74322,-2.94644 1.05673,-1.19177 2.03285,-2.64713 3.1351,-3.68306 0.23368,-0.21962 0.78378,-0.49107 0.78378,0 0,2.84964 -1.71577,8.98572 -2.35133,11.04917 -3.91777,12.7197 -1.47087,3.80149 -6.27021,16.20544 -1.00177,2.58911 -1.62165,5.69342 -2.74321,8.10273 -0.73997,1.58959 -1.94863,2.18951 -2.74322,3.68306 -0.18473,0.34725 0,1.9643 0,1.47322 0,-4.26946 -0.21738,-0.18557 0.78378,-4.41966 0.67108,-2.83814 0.93203,-5.97242 1.56755,-8.83935 0.33703,-1.52041 0.89856,-2.85707 1.17566,-4.41966 1.95172,-11.0056 -1.03965,0.96194 1.17567,-7.36611"
       id="path3164-0-3"
       inkscape:connector-curvature="0" />
    <path
       style="opacity:0.38429751;fill:none;stroke:#008000;stroke-width:5;stroke-linecap:butt;stroke-linejoin:miter;stroke-miterlimit:4;stroke-opacity:1;stroke-dasharray:none"
       d="m 405.58379,439.23689 c -9.27581,2.31896 2.29061,-0.32723 -5,0.71429 -0.97183,0.13883 -1.88532,0.57545 -2.85714,0.71428 -0.70711,0.10102 -1.43829,-0.11742 -2.14286,0 -1.48536,0.24756 -2.80911,1.13325 -4.28572,1.42858 -0.93388,0.18677 -1.90476,0 -2.85714,0 -0.47619,0 -1.09185,0.33671 -1.42857,0 -1.051,-1.05101 1.14963,-2.5782 1.42857,-2.85715 0.2381,-0.23809 0.41312,-0.5637 0.71429,-0.71428 0.42688,-0.21344 1.42857,0.4702 1.42857,-0.71429 0,-0.23809 -0.50133,-0.10648 -0.71429,0 -0.76783,0.38392 -1.3975,1.00265 -2.14285,1.42857 -0.9245,0.52829 -1.92635,0.91146 -2.85715,1.42857 -1.21361,0.67423 -2.25435,1.70384 -3.57143,2.14286 -5.53752,1.84584 -8.03235,1.16537 -13.57142,2.14286 -1.93351,0.34121 -3.76607,1.18504 -5.71429,1.42857 -1.89005,0.23626 -3.80952,0 -5.71429,0 -0.95238,0 -1.91772,0.15657 -2.85714,0 -0.52515,-0.0875 -1.13325,-0.2713 -1.42857,-0.71429 -0.26414,-0.39621 0,-0.95238 0,-1.42857 0,-0.47619 -0.11549,-0.9666 0,-1.42857 0.12913,-0.5165 0.39485,-1.00265 0.71429,-1.42857 0.40406,-0.53875 1.02451,-0.88982 1.42857,-1.42857 0.63887,-0.85184 0.83793,-1.97118 1.42857,-2.85714 0.18678,-0.28017 0.47619,-0.95239 0.71428,-0.71429 0.2381,0.23809 -0.41311,0.5637 -0.71428,0.71429 -0.67344,0.33671 -1.45081,0.41769 -2.14286,0.71428 -0.9787,0.41944 -1.88412,0.99612 -2.85714,1.42857 -1.17167,0.52075 -2.42461,0.85516 -3.57143,1.42857 -1.24175,0.62088 -2.2824,1.62725 -3.57143,2.14286 -2.48613,0.99445 -5.2828,0.71429 -7.85714,0.71429 -1.19048,0 -2.38095,0 -3.57143,0 -1.19048,0 -2.38584,0.10778 -3.57143,0 -6.19518,-0.5632 -2.37023,-0.49679 -7.85714,-2.14286 -1.66492,-0.49948 -6.5057,-0.40579 -5.71429,-3.57143 0.28079,-1.12316 1.26711,-2.20033 2.14286,-2.85714 0.60391,-0.45293 2.85714,-1.04937 2.85714,-2.14286 0,-0.5324 -0.95238,0.47619 -1.42857,0.71429 -0.47619,0.23809 -0.98559,0.41896 -1.42857,0.71428 -1.32397,0.88265 -0.0655,0.71429 -1.42857,0.71429"
       id="path3934-0-0"
       inkscape:connector-curvature="0" />
    <path
       style="opacity:0.38429751;fill:none;stroke:#008000;stroke-width:5;stroke-linecap:butt;stroke-linejoin:miter;stroke-miterlimit:4;stroke-opacity:1;stroke-dasharray:none"
       d="m 138.44094,434.23689 c -0.23809,0.95238 0.2381,3.09524 -0.71428,2.85715 -0.95239,-0.2381 -0.25405,-2.69576 0.71428,-2.85715 1.36943,-0.22824 2.22456,1.80614 3.57143,2.14286 0.73044,0.18261 1.42857,-0.47619 2.14286,-0.71429 0.71428,-0.23809 1.44378,-0.43465 2.14285,-0.71428 0.50111,-0.20044 3.85447,-2.29107 4.28572,-1.42857 0.40955,0.8191 -2.63288,3.27241 -2.85714,3.57143 -0.31944,0.42591 -0.54593,0.92349 -0.71429,1.42857 -0.0753,0.22587 -0.22588,0.63899 0,0.71428 1.54234,0.51412 2.89188,-0.31604 4.28571,-0.71428 0.94392,-0.26969 1.9791,-0.27526 2.85715,-0.71429 1.06479,-0.5324 1.76927,-1.65936 2.85714,-2.14286 1.10941,-0.49307 2.3648,-0.58021 3.57143,-0.71428 0.94655,-0.10517 1.90476,0 2.85714,0 0.47619,0 1.00266,-0.21296 1.42857,0 0.21296,0.10648 0,0.47619 0,0.71428 0,0.47619 0,0.95238 0,1.42858 0,0.23809 0.0753,0.4884 0,0.71428 -0.16836,0.50508 -0.95238,0.95238 -0.71428,1.42857 0.21296,0.42592 0.95238,0 1.42857,0 0.95238,0 1.90476,0 2.85714,0 0.47619,0 0.96163,0.0934 1.42857,0 0.7383,-0.14766 1.42857,-0.47619 2.14286,-0.71428 2.2889,-0.76297 4.73802,-1.84226 7.14286,-2.14286 0.94502,-0.11813 1.91772,0.15657 2.85714,0 5.56347,-0.92725 -2.42124,-0.71429 2.85714,-0.71429 0.2381,0 0.71429,-0.23809 0.71429,0 0,0.57829 -0.88482,1.78036 -1.42857,2.14286 -0.44298,0.29532 -1.05211,0.33783 -1.42857,0.71429 -0.16836,0.16836 0.50132,0.10648 0.71428,0 0.30117,-0.15059 0.47619,-0.47619 0.71429,-0.71429 0.47619,0 0.97681,0.15059 1.42857,0 0.31944,-0.10648 0.43412,-0.52751 0.71428,-0.71428 0.44299,-0.29533 0.98559,-0.41897 1.42858,-0.71429 0.28016,-0.18678 0.41311,-0.5637 0.71428,-0.71429 0.21296,-0.10648 0.50133,0.10648 0.71429,0 0.30117,-0.15058 0.38762,-0.63262 0.71428,-0.71428 0.69296,-0.17324 1.42857,0 2.14286,0 1.90476,0 3.80952,0 5.71429,0 0.47619,0 0.96659,0.11549 1.42857,0 3.44924,-0.86231 -0.0354,-0.33944 2.14285,-1.42857 0.21296,-0.10648 0.47619,0 0.71429,0"
       id="path3936-27-7"
       inkscape:connector-curvature="0" />
    <path
       style="opacity:0.38429751;fill:none;stroke:#008000;stroke-width:5.27113914;stroke-linecap:butt;stroke-linejoin:miter;stroke-miterlimit:4;stroke-opacity:1;stroke-dasharray:none"
       d="m 326.72497,441.38647 c -5.60575,-0.82096 -11.1284,-2.30909 -16.78574,-2.8376 -2.11981,-0.19803 -4.26306,0 -6.39457,0 -1.33221,0 -3.05461,-0.83604 -3.99661,0 -0.77681,0.68942 2.14098,0.44155 3.19728,0.7094 6.37117,1.61555 -2.19144,-0.0585 5.59524,0.7094 1.35028,0.13315 2.65651,0.51117 3.99661,0.7094 0.26281,0.0388 0.56101,-0.10576 0.79933,0 0.33701,0.14955 1.17613,0.7094 0.79932,0.7094 -0.84256,0 -1.59865,-0.47293 -2.39797,-0.7094 -0.79931,-0.23646 -1.61567,-0.43168 -2.39796,-0.7094 -0.55316,-0.19638 -1.02065,-0.58116 -1.59865,-0.7094 -4.38884,-0.97378 1.33143,1.30023 -3.19729,-0.7094 -0.53288,-0.23647 -1.02065,-0.58116 -1.59863,-0.7094 -0.51697,-0.1147 -1.97546,0.33441 -1.59865,0 0.59579,-0.52876 1.61566,-0.43169 2.39798,-0.7094 0.55316,-0.19638 1.03342,-0.54219 1.59863,-0.7094 0.25276,-0.0748 1.06577,0 0.79933,0 -7.99322,0 -15.98644,0 -23.97966,0 -3.46372,0 -6.92745,0 -10.39117,0 -2.93085,0 -5.88433,-0.32263 -8.79255,0 -1.42375,0.15794 -2.63539,1.01611 -3.99659,1.4188 -0.56521,0.16721 1.24116,-0.2864 1.59863,-0.7094 3.40562,-4.03 -3.60611,-0.46751 3.99661,-4.9658 1.98287,-1.17321 4.29181,-1.84231 6.39457,-2.83761 1.8954,-0.89715 3.75326,-1.85673 5.59526,-2.83759 2.15538,-1.14775 4.14634,-2.54935 6.39457,-3.54701 0.47663,-0.21151 1.59865,-0.47293 1.59865,0 0,2.74437 -3.4996,8.65378 -4.79594,10.64101 -7.99095,12.24982 -3.00008,3.66106 -12.78915,15.6068 -2.04328,2.49346 -3.30763,5.4831 -5.59524,7.80341 -1.50929,1.53086 -3.97456,2.10862 -5.59526,3.547 -0.37679,0.33442 0,1.89174 0,1.4188 0,-4.11174 -0.44338,-0.17872 1.59865,-4.2564 1.36878,-2.73329 1.90103,-5.75179 3.19728,-8.51281 0.68743,-1.46425 1.83277,-2.75153 2.39796,-4.2564 3.98086,-10.59904 -2.12054,0.92641 2.39798,-7.094"
       id="path3164-0-3-1"
       inkscape:connector-curvature="0" />
    <text
       xml:space="preserve"
       style="font-size:27.07886505px;font-style:normal;font-weight:normal;line-height:125%;letter-spacing:0px;word-spacing:0px;fill:#000000;fill-opacity:1;stroke:none;font-family:Sans"
       x="499.83957"
       y="305.40228"
       id="text4145"
       sodipodi:linespacing="125%"><tspan
         sodipodi:role="line"
         id="tspan4147"
         x="499.83957"
         y="305.40228">Refine</tspan></text>
  </g>
</svg>
