<?xml version="1.0" encoding="UTF-8" standalone="no"?>
<!-- Created with Inkscape (http://www.inkscape.org/) -->

<svg
   xmlns:dc="http://purl.org/dc/elements/1.1/"
   xmlns:cc="http://creativecommons.org/ns#"
   xmlns:rdf="http://www.w3.org/1999/02/22-rdf-syntax-ns#"
   xmlns:svg="http://www.w3.org/2000/svg"
   xmlns="http://www.w3.org/2000/svg"
   xmlns:sodipodi="http://sodipodi.sourceforge.net/DTD/sodipodi-0.dtd"
   xmlns:inkscape="http://www.inkscape.org/namespaces/inkscape"
   width="744.09448819"
   height="1052.3622047"
   id="svg2"
   version="1.1"
   inkscape:version="0.48.5 r10040"
   sodipodi:docname="linear-surplus-restriction.svg"
   inkscape:export-filename="/home/tobias/workspace/helmholtz/src/matrixfree/solver/linear-surplus-restriction.png"
   inkscape:export-xdpi="90"
   inkscape:export-ydpi="90">
  <defs
     id="defs4" />
  <sodipodi:namedview
     id="base"
     pagecolor="#ffffff"
     bordercolor="#666666"
     borderopacity="1.0"
     inkscape:pageopacity="0.0"
     inkscape:pageshadow="2"
     inkscape:zoom="1.4"
     inkscape:cx="30.2903"
     inkscape:cy="641.46068"
     inkscape:document-units="px"
     inkscape:current-layer="layer1"
     showgrid="false"
     inkscape:window-width="1920"
     inkscape:window-height="1025"
     inkscape:window-x="-2"
     inkscape:window-y="-3"
     inkscape:window-maximized="1" />
  <metadata
     id="metadata7">
    <rdf:RDF>
      <cc:Work
         rdf:about="">
        <dc:format>image/svg+xml</dc:format>
        <dc:type
           rdf:resource="http://purl.org/dc/dcmitype/StillImage" />
        <dc:title />
      </cc:Work>
    </rdf:RDF>
  </metadata>
  <g
     inkscape:label="Layer 1"
     inkscape:groupmode="layer"
     id="layer1">
    <path
       style="fill:none;stroke:#000000;stroke-width:1px;stroke-linecap:butt;stroke-linejoin:miter;stroke-opacity:1"
       d="M 74.285713,248.07647 278.51143,130.16669 513.23072,193.05954 293.31936,336.50528 z"
       id="path2987"
       inkscape:connector-curvature="0"
       sodipodi:nodetypes="ccccc" />
    <path
       style="fill:none;stroke:#000000;stroke-width:1px;stroke-linecap:butt;stroke-linejoin:miter;stroke-opacity:1"
       d="M 73.384641,468.53124 277.61036,350.62146 512.32965,413.51431 292.41829,556.96005 z"
       id="path2987-6"
       inkscape:connector-curvature="0"
       sodipodi:nodetypes="ccccc" />
    <path
       style="fill:none;stroke:#000000;stroke-width:1px;stroke-linecap:butt;stroke-linejoin:miter;stroke-opacity:1"
       d="m 212.14286,388.79075 229.28572,69.28572"
       id="path3007"
       inkscape:connector-curvature="0"
       sodipodi:nodetypes="cc" />
    <path
       style="fill:none;stroke:#000000;stroke-width:1px;stroke-linecap:butt;stroke-linejoin:miter;stroke-opacity:1"
       d="m 146.42857,425.93361 220.71428,81.42858"
       id="path3009"
       inkscape:connector-curvature="0"
       sodipodi:nodetypes="cc" />
    <path
       style="fill:none;stroke:#000000;stroke-width:1px;stroke-linecap:butt;stroke-linejoin:miter;stroke-opacity:1"
       d="M 349.28571,370.21932 146.42857,496.6479"
       id="path3011"
       inkscape:connector-curvature="0"
       sodipodi:nodetypes="cc" />
    <path
       style="fill:none;stroke:#000000;stroke-width:1px;stroke-linecap:butt;stroke-linejoin:miter;stroke-opacity:1"
       d="M 217.85714,527.36218 425,390.93361"
       id="path3013"
       inkscape:connector-curvature="0" />
    <path
       sodipodi:type="arc"
       style="fill:#008080;fill-opacity:1;stroke:#000000;stroke-width:1;stroke-miterlimit:4;stroke-opacity:1;stroke-dasharray:4, 4;stroke-dashoffset:0"
       id="path3015"
       sodipodi:cx="79.285713"
       sodipodi:cy="247.71933"
       sodipodi:rx="16.428572"
       sodipodi:ry="6.7857141"
       d="m 95.714285,247.71933 a 16.428572,6.7857141 0 1 1 -32.857144,0 16.428572,6.7857141 0 1 1 32.857144,0 z" />
    <path
       sodipodi:type="arc"
       style="fill:#008080;fill-opacity:1;stroke:#000000;stroke-width:1;stroke-miterlimit:4;stroke-opacity:1;stroke-dasharray:4, 4;stroke-dashoffset:0"
       id="path3017"
       sodipodi:cx="282.5"
       sodipodi:cy="129.1479"
       sodipodi:rx="15.357142"
       sodipodi:ry="6.7857141"
       d="m 297.85714,129.1479 a 15.357142,6.7857141 0 1 1 -30.71428,0 15.357142,6.7857141 0 1 1 30.71428,0 z" />
    <path
       sodipodi:type="arc"
       style="fill:#008080;fill-opacity:1;stroke:#000000;stroke-width:1;stroke-miterlimit:4;stroke-opacity:1;stroke-dasharray:4, 4;stroke-dashoffset:0"
       id="path3019"
       sodipodi:cx="512.14288"
       sodipodi:cy="191.29076"
       sodipodi:rx="15.714286"
       sodipodi:ry="6.7857141"
       d="m 527.85717,191.29076 a 15.714286,6.7857141 0 1 1 -31.42857,0 15.714286,6.7857141 0 1 1 31.42857,0 z" />
    <path
       sodipodi:type="arc"
       style="fill:#008080;fill-opacity:1;stroke:#000000;stroke-width:1;stroke-miterlimit:4;stroke-opacity:1;stroke-dasharray:4, 4;stroke-dashoffset:0"
       id="path3021"
       sodipodi:cx="297.5"
       sodipodi:cy="334.14789"
       sodipodi:rx="16.785715"
       sodipodi:ry="6.0714288"
       d="m 314.28572,334.14789 a 16.785715,6.0714288 0 1 1 -33.57144,0 16.785715,6.0714288 0 1 1 33.57144,0 z" />
    <path
       sodipodi:type="arc"
       style="fill:#0000ff;fill-opacity:1;stroke:#000000;stroke-width:1;stroke-miterlimit:4;stroke-opacity:1;stroke-dasharray:4, 4;stroke-dashoffset:0"
       id="path3023"
       sodipodi:cx="219.64285"
       sodipodi:cy="451.29074"
       sodipodi:rx="13.928572"
       sodipodi:ry="5.3571429"
       d="m 233.57142,451.29074 a 13.928572,5.3571429 0 1 1 -27.85714,0 13.928572,5.3571429 0 1 1 27.85714,0 z" />
    <path
       sodipodi:type="arc"
       style="fill:#ff0000;fill-opacity:1;stroke:#000000;stroke-width:1;stroke-miterlimit:4;stroke-opacity:1;stroke-dasharray:4, 4;stroke-dashoffset:0"
       id="path3025"
       sodipodi:cx="365.35715"
       sodipodi:cy="503.79074"
       sodipodi:rx="15.357142"
       sodipodi:ry="5"
       d="m 380.71429,503.79074 a 15.357142,5 0 1 1 -30.71429,0 15.357142,5 0 1 1 30.71429,0 z"
       transform="translate(4,2)" />
    <path
       style="fill:#008080;stroke:none;stroke-width:1px;stroke-linecap:butt;stroke-linejoin:miter;stroke-opacity:1;fill-opacity:0.16504854"
       d="m 257.85714,343.07647 c -0.90354,2.85666 -4.05135,1.5268 -5.71428,2.85714 -0.67035,0.53628 -0.7418,1.62778 -1.42857,2.14286 -4.10189,3.07641 -4.21365,1.39253 -8.57143,3.57143 -5.67294,2.83647 3.76848,0.0341 -3.57143,2.85714 -2.3201,0.89235 -4.84431,1.19639 -7.14286,2.14286 -1.775,0.73088 -3.20836,2.16805 -5,2.85714 -1.35174,0.5199 -2.92463,0.21935 -4.28571,0.71429 -1.30474,0.47444 -2.32968,1.52198 -3.57143,2.14285 -2.0974,1.0487 -4.23991,2.01535 -6.42857,2.85715 -0.91626,0.3524 -1.94567,0.34969 -2.85715,0.71428 -3.63043,1.45217 3.60248,-0.008 -2.14285,1.42857 -0.46198,0.1155 -1.00266,-0.21296 -1.42857,0 -0.21296,0.10648 0.10648,0.50133 0,0.71429 -0.15059,0.30117 -0.43412,0.52751 -0.71429,0.71428 -1.61072,1.07381 -2.19526,0.73176 -4.28571,1.42858 -4.28102,1.427 1.79406,-0.18275 -2.85715,2.14285 -0.42591,0.21296 -0.99342,-0.1934 -1.42857,0 -1.75414,0.77962 -3.17892,2.25012 -5,2.85715 -1.12938,0.37646 -2.40407,-0.23348 -3.57143,0 -0.23347,0.0467 0.16836,0.54592 0,0.71428 -0.37646,0.37646 -0.98559,0.41897 -1.42857,0.71429 -0.99053,0.66035 -1.81648,1.56471 -2.85714,2.14285 -1.12083,0.62269 -2.39976,0.90783 -3.57143,1.42858 -0.97302,0.43245 -1.87844,1.00912 -2.85714,1.42857 -0.69205,0.29659 -1.48187,0.35374 -2.14286,0.71428 -1.97192,1.07559 -3.73658,2.50651 -5.71429,3.57143 -1.59654,0.85968 -3.54937,1.05489 -5,2.14286 -1.39174,1.04381 -1.68899,2.3193 -3.57142,2.85714 -0.91574,0.26164 -1.92326,-0.18678 -2.85715,0 -0.0979,0.0196 -2.67992,2.67992 -2.85714,2.85714 -2.36899,2.36899 0.67344,-0.33671 -1.42857,0.71429 -2.97269,1.48634 0.7636,-0.0493 -0.71429,1.42857 -0.33671,0.33672 -1.09185,-0.33672 -1.42857,0 -1.47788,1.47788 2.2584,-0.0578 -0.71428,1.42857 -0.21296,0.10648 -0.60781,-0.21296 -0.71429,0 -0.21296,0.42592 0.26414,1.03236 0,1.42857 -0.32384,0.48576 -3.43821,1.34531 -3.57143,1.42858 -1.29282,0.80801 -2.39149,1.89173 -3.57143,2.85714 -4.05825,3.32038 -7.80398,7.05576 -12.14285,10 -6.89182,4.67659 -7.31008,2.79717 -14.28572,5 -2.44533,0.77221 -4.77801,1.86543 -7.14286,2.85714 -5.01658,2.10373 -10.134457,3.9958 -14.999996,6.42857 -1.831941,0.91597 -3.333333,2.38095 -5,3.57143 -1.666666,1.19048 -3.361462,2.34253 -5,3.57143 -2.606624,1.95497 -4.899344,4.23539 -7.857143,5.71429 -0.425917,0.21295 -1.002653,-0.21296 -1.428571,0 -0.212959,0.10647 0.106479,0.50132 0,0.71428 -0.150585,0.30117 -0.563701,0.41312 -0.714286,0.71429 -0.09391,0.18781 0,2.48363 0,2.85714 0,0.23809 -0.168358,0.54593 0,0.71429 0.02297,0.023 1.969624,0 2.142857,0 2.380953,0 4.761905,0 7.142858,0 0.575025,0 2.408819,-0.14945 2.857142,0 0.505077,0.16835 0.934254,0.51655 1.428572,0.71428 0.699072,0.27963 1.437873,0.44992 2.142857,0.71429 2.901518,1.08807 5.419918,2.40692 8.571429,2.85714 1.649911,0.2357 3.333331,0 5.000001,0 0.95238,0 1.90476,0 2.85714,0 10,0 20,0 30,0 2.14286,0 4.28572,0 6.42857,0 1.42857,0 2.86818,-0.17719 4.28572,0 0.52828,0.066 0.92349,0.54593 1.42857,0.71429 0.22588,0.0753 0.50133,-0.10648 0.71428,0 0.30117,0.15058 0.43412,0.5275 0.71429,0.71428 1.46169,0.97446 1.82904,0.65418 3.57143,1.42857 1.45953,0.64868 2.75915,1.67315 4.28571,2.14286 1.60914,0.49512 3.39567,0.20382 5,0.71429 3.66548,1.16628 7.08124,3.02204 10.71429,4.28571 10.38536,3.6123 1.38955,-0.58704 10,2.85714 2.32318,0.92927 2.70075,1.68301 5,2.14286 0.46694,0.0934 0.9666,-0.11549 1.42857,0 0.5165,0.12913 0.9235,0.54593 1.42857,0.71429 0.22588,0.0753 0.48186,-0.0516 0.71429,0 1.91663,0.42591 3.83772,0.85116 5.71428,1.42857 6.15386,1.89349 0.96418,1.1339 7.85715,2.85714 1.40503,0.35126 2.8685,0.41593 4.28571,0.71429 3.10845,0.65441 6.18477,1.45375 9.28571,2.14285 1.18515,0.26337 2.41968,0.33037 3.57143,0.71429 8.27771,4.13885 -1.4153,-0.17526 5,1.42857 0.32667,0.0817 0.43412,0.52751 0.71429,0.71429 0.44298,0.29532 0.91207,0.58516 1.42857,0.71428 0.46197,0.11549 0.95606,-0.0591 1.42857,0 1.43709,0.17964 2.87453,0.38863 4.28572,0.71429 1.68897,0.38976 3.35559,0.88043 5,1.42857 1.21638,0.40546 2.30992,1.19921 3.57142,1.42857 1.40553,0.25555 2.86968,-0.18881 4.28572,0 2.17587,0.29012 4.25897,1.09479 6.42857,1.42857 0.94131,0.14482 1.91433,-0.13469 2.85714,0 1.49071,0.21296 2.7915,1.2418 4.28572,1.42857 1.19047,0 2.38095,0 3.57143,0 0.47619,0.2381 0.90651,0.60988 1.42857,0.71429 0.70041,0.14008 1.4499,-0.17324 2.14285,0 1.2439,0.31097 2.30993,1.19921 3.57143,1.42857 1.40553,0.25555 2.85715,0 4.28572,0 0.95238,0 1.9414,-0.26164 2.85714,0 0.82543,0.23584 1.37502,1.04465 2.14286,1.42857 0.67343,0.33672 1.41241,0.53168 2.14285,0.71429 0.46198,0.11549 1.00266,-0.21296 1.42858,0 0.30117,0.15058 0.41311,0.5637 0.71428,0.71428 0.21296,0.10648 0.50133,-0.10648 0.71429,0 0.30117,0.15059 0.39484,0.60781 0.71428,0.71429 0.003,0.001 2.14218,-6.8e-4 2.14286,0 0.16836,0.16836 -0.21296,0.6078 0,0.71428 0.57143,0.28572 1.57143,-0.28571 2.14286,0 0.30117,0.15059 0.41311,0.56371 0.71428,0.71429 0.42592,0.21296 0.97682,-0.15058 1.42857,0 1.17673,0.39224 2.91009,1.86513 3.57143,2.85714 0.13207,0.19811 -0.10648,0.50133 0,0.71429 0.15059,0.30117 0.41312,0.5637 0.71429,0.71428 0.0609,0.0304 2.79625,0.0304 2.85714,0 0.30117,-0.15058 0.47619,-0.47619 0.71429,-0.71428 0.95238,-0.95238 1.80541,-2.01576 2.85714,-2.85714 1.59935,-1.27949 3.20192,-2.59066 5,-3.57143 0.86182,-0.47009 1.88881,-0.5529 2.85714,-0.71429 0.46971,-0.0783 1.03236,0.26414 1.42857,0 0.44299,-0.29532 0.47619,-0.95238 0.71429,-1.42857 0.71429,-0.47619 1.37502,-1.04465 2.14286,-1.42857 0.42591,-0.21296 1.09185,0.33672 1.42857,0 0.16836,-0.16836 -0.10648,-0.50133 0,-0.71429 0.30117,-0.60234 1.05502,-0.86824 1.42857,-1.42857 0.1897,-0.28455 1.351,-2.80543 1.42857,-2.85714 0.39622,-0.26414 0.96163,0.0934 1.42857,0 0.7383,-0.14766 1.50438,-0.31524 2.14286,-0.71429 1.29282,-0.80801 2.49341,-1.77912 3.57143,-2.85714 0.86999,-0.86999 0.33459,-1.59587 1.42857,-2.14286 1.75925,-0.87962 -0.64481,2.07338 2.14286,-0.71428 0.47702,-0.47702 -0.47702,-0.95156 0,-1.42857 0.16836,-0.16836 0.52381,0.14285 0.71428,0 1.20241,-0.90181 2.44776,-2.44776 3.57143,-3.57143 0.2381,-0.2381 0.47619,-0.47619 0.71429,-0.71429 0.23809,-0.23809 0.41311,-0.5637 0.71428,-0.71428 1.75925,-0.87963 -0.64481,2.07338 2.14286,-0.71429 0.16836,-0.16836 -0.10648,-0.50133 0,-0.71429 0.96383,-1.92766 0.32016,0.0247 1.42857,-0.71428 0.56033,-0.37356 0.86824,-1.05502 1.42857,-1.42857 0.19811,-0.13207 0.50133,0.10648 0.71429,0 0.30117,-0.15059 0.41311,-0.5637 0.71428,-0.71429 0.21296,-0.10648 0.51618,0.13207 0.71429,0 0.47619,-0.47619 0.95238,-0.95238 1.42857,-1.42857 0.2381,0 0.50133,0.10648 0.71429,0 0.60234,-0.30117 0.8511,-1.08209 1.42857,-1.42857 0.95238,-0.47619 1.90476,-0.95238 2.85714,-1.42857 0.2381,-0.2381 0.43412,-0.52751 0.71429,-0.71429 0.44298,-0.29532 1.00265,-0.39485 1.42857,-0.71428 0.53875,-0.40407 0.86824,-1.05502 1.42857,-1.42858 0.19811,-0.13207 0.51618,0.13208 0.71429,0 1.26769,-0.84512 2.33488,-2.64402 3.57142,-3.57142 0.42592,-0.31944 0.98559,-0.41897 1.42858,-0.71429 0.28016,-0.18678 0.41311,-0.5637 0.71428,-0.71429 0.21296,-0.10648 0.50133,0.10648 0.71429,0 0.76783,-0.38391 1.45608,-0.91349 2.14285,-1.42857 0.26938,-0.20203 0.41312,-0.5637 0.71429,-0.71428 0.21296,-0.10648 0.51618,0.13207 0.71429,0 4.14149,-2.761 0.52893,-0.34358 1.42857,-2.14286 0.15058,-0.30117 0.47619,-0.47619 0.71428,-0.71429 0.2381,-0.23809 0.43412,-0.5275 0.71429,-0.71428 0.44298,-0.29532 0.98559,-0.41897 1.42857,-0.71429 1.64098,-1.09398 -0.30629,-0.408 1.42857,-2.14285 0.37646,-0.37647 1.05211,-0.33783 1.42857,-0.71429 0.60703,-0.60703 0.7418,-1.62778 1.42857,-2.14286 0.38096,-0.28571 0.97682,0.15059 1.42858,0 0.31943,-0.10648 0.47619,-0.47619 0.71428,-0.71428 0.2381,-0.2381 0.47619,-0.47619 0.71429,-0.71429 0.71428,-0.71428 1.42857,-1.42857 2.14285,-2.14286 0.37605,-0.37604 1.76137,-1.95211 2.14286,-2.14285 0.21296,-0.10648 0.50133,0.10648 0.71429,0 0.30117,-0.15059 0.47619,-0.47619 0.71428,-0.71429 0.2381,-0.23809 0.47619,-0.47619 0.71429,-0.71428 0.23809,-0.2381 0.5637,-0.41312 0.71428,-0.71429 0.87963,-1.75925 -2.07338,0.64481 0.71429,-2.14286 0.16836,-0.16836 0.54593,0.16836 0.71429,0 0.16835,-0.16836 0,-0.47619 0,-0.71428 0.23809,-0.2381 0.43412,-0.52751 0.71428,-0.71429 0.44298,-0.29532 0.98559,-0.41896 1.42857,-0.71428 0.82418,-0.54946 1.31868,-1.59341 2.14286,-2.14286 0.44298,-0.29532 0.98559,-0.41897 1.42857,-0.71429 0.28017,-0.18677 0.41312,-0.5637 0.71429,-0.71428 0.21296,-0.10648 0.54592,0.16836 0.71428,0 0.16836,-0.16836 -0.16836,-0.54593 0,-0.71429 0.16836,-0.16836 0.50133,0.10648 0.71429,0 0.60234,-0.30117 0.82623,-1.1274 1.42857,-1.42857 0.21296,-0.10648 0.50133,0.10648 0.71429,0 0.30117,-0.15058 0.41311,-0.5637 0.71428,-0.71429 0.21296,-0.10648 0.51618,0.13208 0.71429,0 0.56033,-0.37355 0.86824,-1.05501 1.42857,-1.42857 0.19811,-0.13207 0.48841,0.0753 0.71428,0 5.17387,-1.72462 -1.12614,0.20593 2.14286,-1.42857 0.21296,-0.10648 0.54593,0.16836 0.71429,0 0.16836,-0.16836 -0.21296,-0.60781 0,-0.71428 0.42591,-0.21296 0.97681,0.15058 1.42857,0 0.63888,-0.21296 0.86824,-1.05502 1.42857,-1.42858 0.44298,-0.29532 1.05211,-0.33782 1.42857,-0.71428 0.16836,-0.16836 -0.10648,-0.50133 0,-0.71429 0.78966,-1.57932 0.44332,-0.22166 1.42857,-0.71428 0.30117,-0.15059 0.47619,-0.47619 0.71429,-0.71429 0.23809,-0.23809 0.47619,-0.47619 0.71428,-0.71428 0.2381,-0.2381 0.56371,-0.41312 0.71429,-0.71429 0.10648,-0.21296 -0.16836,-0.54593 0,-0.71429 0.16836,-0.16835 0.50133,0.10648 0.71429,0 0.58758,-0.29379 2.32886,-2.50496 2.85714,-2.85714 0.19811,-0.13207 0.54593,0.16836 0.71428,0 0.37647,-0.37646 0.33783,-1.05211 0.71429,-1.42857 0.37646,-0.37646 0.9235,-0.54593 1.42857,-0.71429 0.22588,-0.0753 0.54593,0.16836 0.71429,0 0.60702,-0.60702 0.98689,-1.40673 1.42857,-2.14285 0.27391,-0.45653 0.33782,-1.05211 0.71428,-1.42857 0.16836,-0.16836 0.50133,0.10647 0.71429,0 0.30117,-0.15059 0.43412,-0.52751 0.71429,-0.71429 0.44298,-0.29532 0.98559,-0.41897 1.42857,-0.71429 0.56033,-0.37355 0.82623,-1.1274 1.42857,-1.42857 0.21296,-0.10648 0.54593,0.16836 0.71428,0 0.16836,-0.16836 0,-0.47619 0,-0.71428 0.47619,-0.2381 0.9235,-0.54593 1.42858,-0.71429 0.42665,-0.14222 1.33431,0.18852 1.42857,0 0.21296,-0.42592 -0.21296,-1.00265 0,-1.42857 0.21296,-0.42592 1.00265,0.21296 1.42857,0 0.60234,-0.30117 0.82623,-1.1274 1.42857,-1.42857 0.21296,-0.10648 0.54593,0.16836 0.71429,0 1.47788,-1.47788 -2.2584,0.0578 0.71428,-1.42857 0.21296,-0.10648 0.50133,0.10648 0.71429,0 0.30117,-0.15059 0.41311,-0.5637 0.71428,-0.71429 0.21296,-0.10648 0.50133,0.10648 0.71429,0 0.60234,-0.30117 0.82623,-1.1274 1.42857,-1.42857 0.21296,-0.10648 0.54593,0.16836 0.71429,0 0.16835,-0.16836 -0.16836,-0.54593 0,-0.71429 0.16835,-0.16835 0.50132,0.10648 0.71428,0 0.70288,-0.35143 2.15427,-2.5057 2.85714,-2.85714 0.21296,-0.10648 0.54593,0.16836 0.71429,0 0.16836,-0.16836 0,-0.47619 0,-0.71428 0.2381,0 0.54593,0.16835 0.71429,0 0.16835,-0.16836 -0.16836,-0.54593 0,-0.71429 0.16835,-0.16836 0.71428,-0.2381 0.71428,0 0,0.33672 -0.71428,1.051 -0.71428,0.71429 0,-0.86829 1.63774,-1.59695 0,-2.14286 -0.5169,-0.1723 -2.62169,0.23545 -2.85715,0 -0.16836,-0.16836 -0.23809,-0.71429 0,-0.71429 0.2381,0 0.2381,0.71429 0,0.71429 -0.33671,0 -0.47619,-0.47619 -0.71428,-0.71429 -0.2381,-0.23809 -0.5637,-0.41311 -0.71429,-0.71428 -0.10648,-0.21296 0.16836,-0.54593 0,-0.71429 -0.16836,-0.16836 -0.50133,0.10648 -0.71428,0 -0.30117,-0.15058 -0.47619,-0.47619 -0.71429,-0.71428 -0.2381,-0.2381 -0.5637,-0.41312 -0.71429,-0.71429 -0.10648,-0.21296 0.16836,-0.54593 0,-0.71429 -0.16835,-0.16835 -0.50132,0.10648 -0.71428,0 -0.30117,-0.15058 -0.41312,-0.5637 -0.71429,-0.71428 -0.21296,-0.10648 -0.54592,0.16836 -0.71428,0 -0.16836,-0.16836 0.10648,-0.50133 0,-0.71429 -0.15059,-0.30117 -0.47619,-0.47619 -0.71429,-0.71428 -0.23809,-0.2381 -0.43412,-0.52751 -0.71428,-0.71429 -0.44299,-0.29532 -0.98559,-0.41896 -1.42858,-0.71428 -0.28016,-0.18678 -0.41311,-0.56371 -0.71428,-0.71429 -0.42592,-0.21296 -1.09186,0.33672 -1.42857,0 -0.16836,-0.16836 0.16836,-0.54593 0,-0.71429 -0.16836,-0.16835 -0.50133,0.10648 -0.71429,0 -0.30117,-0.15058 -0.41311,-0.5637 -0.71428,-0.71428 -0.57143,-0.28572 -1.57143,0.28571 -2.14286,0 -0.30117,-0.15059 -0.41312,-0.5637 -0.71429,-0.71429 -0.42591,-0.21296 -1.00265,0.21296 -1.42857,0 -0.30117,-0.15058 -0.41311,-0.5637 -0.71428,-0.71428 -0.42592,-0.21296 -1.00266,0.21296 -1.42858,0 -0.30117,-0.15059 -0.42555,-0.54105 -0.71428,-0.71429 -1.36958,-0.82175 -2.85714,-1.42857 -4.28572,-2.14286 -0.47619,-0.23809 -0.98559,-0.41896 -1.42857,-0.71428 -0.28016,-0.18678 -0.40165,-0.58923 -0.71428,-0.71429 -0.91148,-0.36459 -1.94567,-0.34969 -2.85715,-0.71428 -0.62526,-0.25011 -0.82623,-1.12741 -1.42857,-1.42857 -0.49338,-0.2467 -3.3207,0.25072 -3.57143,0 -0.16835,-0.16836 0.21296,-0.60781 0,-0.71429 -0.56346,-0.63888 -1.50398,0.31944 -2.14285,0 -0.30117,-0.15058 -0.47619,-0.47619 -0.71429,-0.71429 -0.47619,0 -0.9666,0.1155 -1.42857,0 -3.44925,-0.86231 0.0354,-0.33944 -2.14286,-1.42857 -0.42591,-0.21296 -1.09185,0.33672 -1.42857,0 -0.16836,-0.16836 0.16836,-0.54592 0,-0.71428 -0.17101,-0.17102 -2.85714,0.16237 -2.85714,0 0,-0.2381 0.95238,0 0.71428,0 -1.66666,0 -3.33333,0 -5,0 -6.75124,0 5.79185,0.0886 -7.85714,-0.71429 -2.13916,-0.12583 -4.29882,0.23664 -6.42857,0 -2.1817,-0.24241 -4.25357,-1.13198 -6.42857,-1.42857 -3.07592,-0.41944 -6.21568,-0.25378 -9.28572,-0.71429 -1.71418,-0.25712 -3.28184,-1.19948 -5,-1.42857 -1.88805,-0.25174 -3.82623,0.25174 -5.71428,0 -1.71816,-0.22908 -3.28185,-1.19948 -5,-1.42857 -8.63508,0 -2.75867,0.37356 -9.28572,-0.71428 -0.62783,-0.10464 -3.22517,0.17312 -3.57142,0 -0.30117,-0.15059 -0.41312,-0.56371 -0.71429,-0.71429 -0.21296,-0.10648 -0.47619,0 -0.71429,0 -0.23809,0 -0.47619,0 -0.71428,0 -0.71932,0 -3.8907,0.13167 -4.28572,0 -0.31943,-0.10648 -0.41311,-0.5637 -0.71428,-0.71429 -0.42592,-0.21295 -1.00266,0.21296 -1.42857,0 -0.30117,-0.15058 -0.41312,-0.5637 -0.71429,-0.71428 -0.21296,-0.10648 -0.47619,0 -0.71428,0 -0.2381,0 -0.47619,0 -0.71429,0 -0.95238,0 -1.91772,0.15657 -2.85714,0 -0.52516,-0.0875 -0.9235,-0.54593 -1.42857,-0.71429 -0.22588,-0.0753 -0.48841,0.0753 -0.71429,0 -1.60367,-0.53455 -1.94135,-1.32781 -3.57143,-2.14285 -0.49338,-0.2467 -3.3207,0.25072 -3.57143,0 -0.16836,-0.16836 0.16836,-0.54593 0,-0.71429 -0.35714,-0.35714 -1.78571,0.35714 -2.14285,0 -1.47789,-1.47788 2.2584,0.0578 -0.71429,-1.42857 -0.21296,-0.10648 -0.50133,0.10648 -0.71429,0 -2.36898,-2.36899 0.67344,0.33672 -1.42857,-0.71429 -0.30117,-0.15058 -0.41311,-0.5637 -0.71428,-0.71428 -0.42592,-0.21296 -1.00266,0.21296 -1.42857,0 -0.30117,-0.15059 -0.39485,-0.60781 -0.71429,-0.71429 -0.45175,-0.15058 -0.95238,0 -1.42857,0 -0.2381,0 -0.50133,0.10648 -0.71429,0 -0.30117,-0.15058 -0.41311,-0.5637 -0.71428,-0.71428 -0.18468,-0.0923 -3.77943,0 -4.28572,0 -0.23809,0 -0.54592,0.16835 -0.71428,0 -0.16836,-0.16836 0.16836,-0.54593 0,-0.71429 -0.16836,-0.16836 -0.47619,0 -0.71429,0 -0.47619,0 -0.95238,0 -1.42857,0 -1.66667,0 -3.33333,0 -5,0 -0.2381,0 -0.47619,0 -0.71429,0 -0.23809,0 -0.50132,0.10648 -0.71428,0 -0.30117,-0.15058 -0.41312,-0.5637 -0.71429,-0.71429 -0.21296,-0.10648 -0.47619,0 -0.71428,0 -0.71429,0 -1.42857,0 -2.14286,0 -2.38095,0 -4.7619,0 -7.14286,0 -0.23809,0 -0.47619,0 -0.71428,0 -0.2381,0 -0.54593,-0.16835 -0.71429,0 -0.16836,0.16836 0.16836,0.54593 0,0.71429 -0.0287,0.0287 -2.59483,0 -2.85714,0 -1.90476,0 -3.80953,0 -5.71429,0 -0.40361,0 -1.82246,0.12816 -2.14285,0 -0.98864,-0.39545 -1.90477,-0.95238 -2.85715,-1.42857 z"
       id="path2996"
       inkscape:connector-curvature="0" />
  </g>
</svg>
